<svg width="113" height="113" viewBox="0 0 113 113" fill="none" xmlns="http://www.w3.org/2000/svg">
<mask id="path-1-inside-1" fill="white">
<path d="M112.391 56.1957C112.391 87.2317 87.2317 112.391 56.1957 112.391C25.1597 112.391 0 87.2317 0 56.1957C0 25.1597 25.1597 0 56.1957 0C87.2317 0 112.391 25.1597 112.391 56.1957ZM6.38782 56.1957C6.38782 83.7038 28.6875 106.003 56.1957 106.003C83.7038 106.003 106.003 83.7038 106.003 56.1957C106.003 28.6875 83.7038 6.38782 56.1957 6.38782C28.6875 6.38782 6.38782 28.6875 6.38782 56.1957Z"/>
</mask>
<g filter="url(#filter0_i)">
<path d="M112.391 56.1957C112.391 87.2317 87.2317 112.391 56.1957 112.391C25.1597 112.391 0 87.2317 0 56.1957C0 25.1597 25.1597 0 56.1957 0C87.2317 0 112.391 25.1597 112.391 56.1957ZM6.38782 56.1957C6.38782 83.7038 28.6875 106.003 56.1957 106.003C83.7038 106.003 106.003 83.7038 106.003 56.1957C106.003 28.6875 83.7038 6.38782 56.1957 6.38782C28.6875 6.38782 6.38782 28.6875 6.38782 56.1957Z" fill="#0F1118"/>
</g>
<path d="M112.391 56.1957C112.391 87.2317 87.2317 112.391 56.1957 112.391C25.1597 112.391 0 87.2317 0 56.1957C0 25.1597 25.1597 0 56.1957 0C87.2317 0 112.391 25.1597 112.391 56.1957ZM6.38782 56.1957C6.38782 83.7038 28.6875 106.003 56.1957 106.003C83.7038 106.003 106.003 83.7038 106.003 56.1957C106.003 28.6875 83.7038 6.38782 56.1957 6.38782C28.6875 6.38782 6.38782 28.6875 6.38782 56.1957Z" stroke="url(#paint0_linear)" stroke-width="4" mask="url(#path-1-inside-1)"/>
<defs>
<filter id="filter0_i" x="0" y="0" width="112.391" height="112.391" filterUnits="userSpaceOnUse" color-interpolation-filters="sRGB">
<feFlood flood-opacity="0" result="BackgroundImageFix"/>
<feBlend mode="normal" in="SourceGraphic" in2="BackgroundImageFix" result="shape"/>
<feColorMatrix in="SourceAlpha" type="matrix" values="0 0 0 0 0 0 0 0 0 0 0 0 0 0 0 0 0 0 127 0" result="hardAlpha"/>
<feOffset/>
<feGaussianBlur stdDeviation="5"/>
<feComposite in2="hardAlpha" operator="arithmetic" k2="-1" k3="1"/>
<feColorMatrix type="matrix" values="0 0 0 0 0 0 0 0 0 0 0 0 0 0 0 0 0 0 1 0"/>
<feBlend mode="normal" in2="shape" result="effect1_innerShadow"/>
</filter>
<linearGradient id="paint0_linear" x1="56.1957" y1="0" x2="56.1957" y2="112.391" gradientUnits="userSpaceOnUse">
<stop stop-color="#2A3F5C"/>
<stop offset="0.515625" stop-color="#5188D4"/>
<stop offset="1" stop-color="#2A3F5C"/>
</linearGradient>
</defs>
</svg>
