<svg width="402" height="310" viewBox="0 0 402 310" fill="none" xmlns="http://www.w3.org/2000/svg">
<g filter="url(#filter0_di)">
<path d="M106.648 119.673C105.757 118.032 106.688 115.993 108.513 115.593L214.351 92.3885C215.816 92.0674 217.274 92.9547 217.663 94.4031L224.395 119.53C224.81 121.079 223.845 122.661 222.277 122.999L122.449 144.546C121.231 144.808 119.985 144.237 119.391 143.142L106.648 119.673Z" fill="#8B80E8"/>
</g>
<g filter="url(#filter1_di)">
<path d="M78.8166 105.293C77.9252 103.651 78.8569 101.613 80.6816 101.213L186.52 78.0082C187.985 77.687 189.443 78.5743 189.831 80.0228L196.564 105.15C196.979 106.699 196.013 108.28 194.446 108.619L94.6175 130.165C93.3995 130.428 92.1541 129.856 91.5596 128.761L78.8166 105.293Z" fill="#A3A2FE"/>
</g>
<g filter="url(#filter2_di)">
<path d="M49.2805 84.5455C48.3891 82.9038 49.3207 80.8658 51.1455 80.4657L156.984 57.2608C158.449 56.9397 159.907 57.827 160.295 59.2755L167.028 84.4022C167.443 85.9515 166.477 87.5329 164.909 87.8713L65.0813 109.418C63.8634 109.681 62.618 109.109 62.0234 108.014L49.2805 84.5455Z" fill="#C4C5FF"/>
</g>
<g filter="url(#filter3_di)">
<path d="M295.352 119.673C296.243 118.032 295.312 115.993 293.487 115.593L187.649 92.3885C186.184 92.0674 184.726 92.9547 184.338 94.4031L177.605 119.53C177.19 121.079 178.155 122.661 179.723 122.999L279.551 144.546C280.769 144.808 282.015 144.237 282.609 143.142L295.352 119.673Z" fill="#8B80E8"/>
</g>
<g filter="url(#filter4_di)">
<path d="M323.183 105.293C324.074 103.651 323.143 101.613 321.318 101.213L215.48 78.0082C214.015 77.687 212.556 78.5743 212.168 80.0228L205.436 105.15C205.021 106.699 205.986 108.28 207.554 108.619L307.382 130.165C308.6 130.428 309.845 129.856 310.44 128.761L323.183 105.293Z" fill="#A3A2FE"/>
</g>
<g filter="url(#filter5_di)">
<path d="M352.719 84.5455C353.611 82.9038 352.679 80.8658 350.854 80.4657L245.016 57.2608C243.551 56.9397 242.093 57.827 241.705 59.2755L234.972 84.4022C234.557 85.9515 235.522 87.5329 237.09 87.8712L336.918 109.418C338.136 109.681 339.382 109.109 339.976 108.014L352.719 84.5455Z" fill="#C4C5FF"/>
</g>
<g filter="url(#filter6_d)">
<mask id="mask0" style="mask-type:alpha" maskUnits="userSpaceOnUse" x="163" y="12" width="78" height="78">
<path d="M200.005 12.9841C201.101 11.8883 202.878 11.8883 203.974 12.9841L221.99 31L240.005 49.0159C241.101 50.1117 241.101 51.8883 240.005 52.9841L221.99 71L203.974 89.0159C202.878 90.1117 201.101 90.1117 200.005 89.0159L181.99 71L163.974 52.9841C162.878 51.8883 162.878 50.1117 163.974 49.0159L181.99 31L200.005 12.9841Z" fill="#C4C4C4"/>
</mask>
<g mask="url(#mask0)">
<path d="M201.989 91V11L161.989 51L201.989 91Z" fill="#7EF7FF"/>
<path d="M201.989 11V91L241.989 51L201.989 11Z" fill="#38C9D1"/>
<path d="M281.989 91L241.989 51L201.989 91H281.989Z" fill="#7EF7FF"/>
<path d="M121.989 91H201.989L161.989 51L121.989 91Z" fill="#7EF7FF"/>
</g>
</g>
<g filter="url(#filter7_d)">
<mask id="mask1" style="mask-type:alpha" maskUnits="userSpaceOnUse" x="203" y="52" width="78" height="78">
<path d="M280.079 88.9422C281.175 90.038 281.175 91.8146 280.079 92.9104L262.063 110.926L244.047 128.942C242.951 130.038 241.175 130.038 240.079 128.942L222.063 110.926L204.047 92.9104C202.951 91.8146 202.951 90.0379 204.047 88.9422L222.063 70.9263L240.079 52.9104C241.175 51.8146 242.951 51.8146 244.047 52.9104L262.063 70.9263L280.079 88.9422Z" fill="#C4C4C4"/>
</mask>
<g mask="url(#mask1)">
<path d="M202.063 90.9258L282.063 90.9258L242.063 50.9258L202.063 90.9258Z" fill="#7EF7FF"/>
<path d="M282.063 90.9258L202.063 90.9258L242.063 130.926L282.063 90.9258Z" fill="#38C9D1"/>
<path d="M202.063 170.926L242.063 130.926L202.063 90.9258L202.063 170.926Z" fill="#7EF7FF"/>
<path d="M202.063 10.9258L202.063 90.9258L242.063 50.9258L202.063 10.9258Z" fill="#7EF7FF"/>
</g>
</g>
<g filter="url(#filter8_d)">
<mask id="mask2" style="mask-type:alpha" maskUnits="userSpaceOnUse" x="163" y="92" width="78" height="78">
<path d="M204.121 169.016C203.025 170.112 201.248 170.112 200.153 169.016L182.137 151L164.121 132.984C163.025 131.888 163.025 130.112 164.121 129.016L182.137 111L200.153 92.9841C201.248 91.8883 203.025 91.8883 204.121 92.9841L222.137 111L240.153 129.016C241.248 130.112 241.248 131.888 240.153 132.984L222.137 151L204.121 169.016Z" fill="#C4C4C4"/>
</mask>
<g mask="url(#mask2)">
<path d="M202.137 91L202.137 171L242.137 131L202.137 91Z" fill="#7EF7FF"/>
<path d="M202.137 171L202.137 91L162.137 131L202.137 171Z" fill="#38C9D1"/>
<path d="M122.137 91L162.137 131L202.137 91L122.137 91Z" fill="#7EF7FF"/>
<path d="M282.137 91L202.137 91L242.137 131L282.137 91Z" fill="#7EF7FF"/>
</g>
</g>
<g filter="url(#filter9_d)">
<mask id="mask3" style="mask-type:alpha" maskUnits="userSpaceOnUse" x="123" y="52" width="78" height="78">
<path d="M124.047 93.0578C122.951 91.962 122.951 90.1854 124.047 89.0896L142.063 71.0737L160.079 53.0578C161.175 51.962 162.951 51.962 164.047 53.0579L182.063 71.0737L200.079 89.0896C201.175 90.1854 201.175 91.9621 200.079 93.0579L182.063 111.074L164.047 129.09C162.951 130.185 161.175 130.185 160.079 129.09L142.063 111.074L124.047 93.0578Z" fill="#C4C4C4"/>
</mask>
<g mask="url(#mask3)">
<path d="M202.063 91.0742L122.063 91.0742L162.063 131.074L202.063 91.0742Z" fill="#7EF7FF"/>
<path d="M122.063 91.0742L202.063 91.0742L162.063 51.0742L122.063 91.0742Z" fill="#38C9D1"/>
<path d="M202.063 11.0742L162.063 51.0742L202.063 91.0742L202.063 11.0742Z" fill="#7EF7FF"/>
<path d="M202.063 171.074L202.063 91.0742L162.063 131.074L202.063 171.074Z" fill="#7EF7FF"/>
</g>
</g>
<g filter="url(#filter10_d)">
<circle cx="202.063" cy="91.0001" r="67.3431" fill="url(#paint0_linear)"/>
<circle cx="202.063" cy="91.0001" r="64.5372" fill="url(#paint1_linear)"/>
<circle cx="202.063" cy="91.0002" r="54.7163" fill="url(#paint2_linear)"/>
<g filter="url(#filter11_i)">
<circle cx="202.063" cy="91.0009" r="51.9103" fill="url(#paint3_radial)"/>
<circle cx="202.063" cy="91.0009" r="51.9103" fill="url(#paint4_radial)"/>
</g>
<path d="M202.063 56.3943L225.436 91.0004L202.063 125.607L178.69 91.0004L202.063 56.3943Z" fill="#0C24DA" fill-opacity="0.29"/>
<path d="M202.062 62.1624L182.814 91.0008H193.813L202.062 78.0235V62.1624Z" fill="#D3FCFF"/>
<path d="M221.311 91.0008L202.062 62.1624V78.0235L210.312 91.0008H221.311Z" fill="#7EF7FF"/>
<path d="M202.062 119.839L221.311 91.0008H210.312L202.062 103.978V119.839Z" fill="#38C9D1"/>
<path d="M182.814 91.0008L202.062 119.839V103.978L193.813 91.0008H182.814Z" fill="#7EF7FF"/>
<path d="M210.312 91.0008L202.062 78.0235L193.813 91.0008L202.062 103.978L210.312 91.0008Z" fill="white"/>
</g>
<ellipse cx="200.626" cy="227" rx="200.626" ry="24.5522" fill="url(#paint5_radial)"/>
<ellipse cx="200.626" cy="227" rx="129.074" ry="4.91044" fill="url(#paint6_radial)"/>
<g filter="url(#filter12_d)">
<path d="M123.374 238.272L114.974 213.12H120.014L125.966 231.888L131.822 213.12H136.91L128.558 238.272V252H123.374V238.272ZM150.468 252.432C146.66 252.432 143.924 251.36 142.26 249.216C140.628 247.04 139.812 243.904 139.812 239.808V225.072C139.812 221.04 140.644 217.984 142.308 215.904C143.972 213.824 146.692 212.784 150.468 212.784C154.244 212.784 156.948 213.84 158.58 215.952C160.244 218.032 161.076 221.072 161.076 225.072V239.856C161.076 243.888 160.244 246.992 158.58 249.168C156.916 251.344 154.212 252.432 150.468 252.432ZM150.468 248.16C152.484 248.16 153.844 247.568 154.548 246.384C155.252 245.2 155.604 243.408 155.604 241.008V223.968C155.604 221.6 155.252 219.856 154.548 218.736C153.844 217.584 152.484 217.008 150.468 217.008C148.42 217.008 147.044 217.584 146.34 218.736C145.636 219.856 145.284 221.6 145.284 223.968V241.008C145.284 243.408 145.636 245.2 146.34 246.384C147.044 247.568 148.42 248.16 150.468 248.16ZM176.439 252.432C173.719 252.432 171.591 251.888 170.055 250.8C168.551 249.712 167.511 248.192 166.935 246.24C166.359 244.288 166.071 241.84 166.071 238.896V213.12H171.255V239.136C171.255 242.08 171.591 244.32 172.263 245.856C172.967 247.392 174.359 248.16 176.439 248.16C178.519 248.16 179.895 247.392 180.567 245.856C181.271 244.32 181.623 242.08 181.623 239.136V213.12H186.759V238.896C186.759 241.84 186.471 244.288 185.895 246.24C185.319 248.192 184.279 249.712 182.775 250.8C181.271 251.888 179.159 252.432 176.439 252.432ZM203.438 213.12H208.862V248.112H218.798V252H203.438V213.12ZM232.171 252.432C228.363 252.432 225.627 251.36 223.963 249.216C222.331 247.04 221.515 243.904 221.515 239.808V225.072C221.515 221.04 222.347 217.984 224.011 215.904C225.675 213.824 228.395 212.784 232.171 212.784C235.947 212.784 238.651 213.84 240.283 215.952C241.947 218.032 242.779 221.072 242.779 225.072V239.856C242.779 243.888 241.947 246.992 240.283 249.168C238.619 251.344 235.915 252.432 232.171 252.432ZM232.171 248.16C234.187 248.16 235.547 247.568 236.251 246.384C236.955 245.2 237.307 243.408 237.307 241.008V223.968C237.307 221.6 236.955 219.856 236.251 218.736C235.547 217.584 234.187 217.008 232.171 217.008C230.123 217.008 228.747 217.584 228.043 218.736C227.339 219.856 226.987 221.6 226.987 223.968V241.008C226.987 243.408 227.339 245.2 228.043 246.384C228.747 247.568 230.123 248.16 232.171 248.16ZM257.278 252.432C254.014 252.432 251.518 251.424 249.79 249.408C248.094 247.392 247.15 244.624 246.958 241.104L251.758 239.808C251.918 242.304 252.398 244.32 253.198 245.856C254.03 247.392 255.39 248.16 257.278 248.16C258.686 248.16 259.742 247.776 260.446 247.008C261.182 246.208 261.55 245.072 261.55 243.6C261.55 242 261.214 240.672 260.542 239.616C259.87 238.56 258.798 237.392 257.326 236.112L250.798 230.352C249.486 229.2 248.526 227.968 247.918 226.656C247.342 225.312 247.054 223.68 247.054 221.76C247.054 218.912 247.87 216.704 249.502 215.136C251.134 213.568 253.358 212.784 256.174 212.784C259.246 212.784 261.566 213.6 263.134 215.232C264.702 216.864 265.646 219.392 265.966 222.816L261.358 224.064C261.198 221.792 260.75 220.048 260.014 218.832C259.31 217.584 258.03 216.96 256.174 216.96C254.798 216.96 253.742 217.328 253.006 218.064C252.27 218.768 251.902 219.824 251.902 221.232C251.902 222.384 252.094 223.36 252.478 224.16C252.862 224.928 253.518 225.712 254.446 226.512L261.022 232.272C262.718 233.776 264.062 235.408 265.054 237.168C266.078 238.928 266.59 240.928 266.59 243.168C266.59 246.016 265.726 248.272 263.998 249.936C262.27 251.6 260.03 252.432 257.278 252.432ZM275.069 217.152H268.493V213.12H286.877V217.152H280.493V252H275.069V217.152Z" fill="white"/>
<path d="M123.374 238.272H124.777C124.777 238.121 124.753 237.971 124.705 237.828L123.374 238.272ZM114.974 213.12V211.717C114.523 211.717 114.1 211.934 113.836 212.3C113.572 212.666 113.501 213.137 113.644 213.564L114.974 213.12ZM120.014 213.12L121.352 212.696C121.167 212.113 120.626 211.717 120.014 211.717V213.12ZM125.966 231.888L124.629 232.312C124.814 232.896 125.357 233.292 125.97 233.291C126.582 233.29 127.123 232.891 127.306 232.306L125.966 231.888ZM131.822 213.12V211.717C131.209 211.717 130.666 212.116 130.483 212.702L131.822 213.12ZM136.91 213.12L138.242 213.562C138.384 213.134 138.312 212.664 138.048 212.299C137.784 211.934 137.361 211.717 136.91 211.717V213.12ZM128.558 238.272L127.227 237.83C127.18 237.972 127.155 238.122 127.155 238.272H128.558ZM128.558 252V253.403C129.333 253.403 129.961 252.775 129.961 252H128.558ZM123.374 252H121.971C121.971 252.775 122.6 253.403 123.374 253.403V252ZM124.705 237.828L116.305 212.676L113.644 213.564L122.044 238.716L124.705 237.828ZM114.974 214.523H120.014V211.717H114.974V214.523ZM118.677 213.544L124.629 232.312L127.304 231.464L121.352 212.696L118.677 213.544ZM127.306 232.306L133.162 213.538L130.483 212.702L124.627 231.47L127.306 232.306ZM131.822 214.523H136.91V211.717H131.822V214.523ZM135.579 212.678L127.227 237.83L129.89 238.714L138.242 213.562L135.579 212.678ZM127.155 238.272V252H129.961V238.272H127.155ZM128.558 250.597H123.374V253.403H128.558V250.597ZM124.777 252V238.272H121.971V252H124.777ZM142.26 249.216L141.137 250.058C141.142 250.064 141.147 250.07 141.151 250.076L142.26 249.216ZM142.308 215.904L141.212 215.028L142.308 215.904ZM158.58 215.952L157.47 216.81C157.474 216.816 157.479 216.822 157.484 216.828L158.58 215.952ZM158.58 249.168L157.465 248.316L158.58 249.168ZM154.548 246.384L155.754 247.101L154.548 246.384ZM154.548 218.736L153.351 219.468C153.354 219.473 153.357 219.478 153.36 219.483L154.548 218.736ZM146.34 218.736L147.528 219.483C147.531 219.478 147.534 219.473 147.537 219.468L146.34 218.736ZM146.34 246.384L147.546 245.667L146.34 246.384ZM150.468 251.029C146.908 251.029 144.671 250.034 143.368 248.356L141.151 250.076C143.177 252.686 146.411 253.835 150.468 253.835V251.029ZM143.382 248.374C142.004 246.536 141.215 243.746 141.215 239.808H138.409C138.409 244.062 139.252 247.544 141.137 250.058L143.382 248.374ZM141.215 239.808V225.072H138.409V239.808H141.215ZM141.215 225.072C141.215 221.202 142.018 218.512 143.403 216.78L141.212 215.028C139.27 217.456 138.409 220.878 138.409 225.072H141.215ZM143.403 216.78C144.703 215.156 146.932 214.187 150.468 214.187V211.381C146.452 211.381 143.241 212.492 141.212 215.028L143.403 216.78ZM150.468 214.187C153.999 214.187 156.201 215.168 157.47 216.81L159.69 215.094C157.694 212.512 154.488 211.381 150.468 211.381V214.187ZM157.484 216.828C158.871 218.562 159.673 221.238 159.673 225.072H162.479C162.479 220.906 161.617 217.502 159.675 215.076L157.484 216.828ZM159.673 225.072V239.856H162.479V225.072H159.673ZM159.673 239.856C159.673 243.719 158.872 246.476 157.465 248.316L159.694 250.02C161.615 247.508 162.479 244.057 162.479 239.856H159.673ZM157.465 248.316C156.156 250.028 153.946 251.029 150.468 251.029V253.835C154.477 253.835 157.676 252.66 159.694 250.02L157.465 248.316ZM150.468 249.563C152.728 249.563 154.691 248.889 155.754 247.101L153.342 245.667C152.997 246.247 152.24 246.757 150.468 246.757V249.563ZM155.754 247.101C156.65 245.593 157.007 243.497 157.007 241.008H154.201C154.201 243.319 153.853 244.807 153.342 245.667L155.754 247.101ZM157.007 241.008V223.968H154.201V241.008H157.007ZM157.007 223.968C157.007 221.517 156.653 219.448 155.736 217.989L153.36 219.483C153.851 220.264 154.201 221.683 154.201 223.968H157.007ZM155.745 218.004C154.675 216.253 152.713 215.605 150.468 215.605V218.411C152.255 218.411 153.013 218.915 153.351 219.468L155.745 218.004ZM150.468 215.605C148.202 215.605 146.216 216.247 145.143 218.004L147.537 219.468C147.871 218.921 148.638 218.411 150.468 218.411V215.605ZM145.152 217.989C144.235 219.448 143.881 221.517 143.881 223.968H146.687C146.687 221.683 147.037 220.264 147.528 219.483L145.152 217.989ZM143.881 223.968V241.008H146.687V223.968H143.881ZM143.881 241.008C143.881 243.497 144.237 245.593 145.134 247.101L147.546 245.667C147.034 244.807 146.687 243.319 146.687 241.008H143.881ZM145.134 247.101C146.201 248.895 148.186 249.563 150.468 249.563V246.757C148.653 246.757 147.887 246.241 147.546 245.667L145.134 247.101ZM170.055 250.8L169.232 251.937L169.244 251.945L170.055 250.8ZM166.935 246.24L165.589 246.637L166.935 246.24ZM166.071 213.12V211.717C165.296 211.717 164.668 212.345 164.668 213.12H166.071ZM171.255 213.12H172.658C172.658 212.345 172.03 211.717 171.255 211.717V213.12ZM172.263 245.856L170.977 246.418C170.981 246.426 170.984 246.433 170.987 246.441L172.263 245.856ZM180.567 245.856L179.291 245.271C179.288 245.279 179.285 245.286 179.281 245.294L180.567 245.856ZM181.623 213.12V211.717C180.848 211.717 180.22 212.345 180.22 213.12H181.623ZM186.759 213.12H188.162C188.162 212.345 187.534 211.717 186.759 211.717V213.12ZM185.895 246.24L184.549 245.843V245.843L185.895 246.24ZM182.775 250.8L181.952 249.663L182.775 250.8ZM176.439 251.029C173.885 251.029 172.08 250.516 170.866 249.655L169.244 251.945C171.101 253.26 173.552 253.835 176.439 253.835V251.029ZM170.877 249.663C169.649 248.775 168.778 247.528 168.28 245.843L165.589 246.637C166.244 248.856 167.453 250.649 169.232 251.937L170.877 249.663ZM168.28 245.843C167.755 244.063 167.474 241.76 167.474 238.896H164.668C164.668 241.92 164.962 244.513 165.589 246.637L168.28 245.843ZM167.474 238.896V213.12H164.668V238.896H167.474ZM166.071 214.523H171.255V211.717H166.071V214.523ZM169.852 213.12V239.136H172.658V213.12H169.852ZM169.852 239.136C169.852 242.149 170.19 244.618 170.977 246.418L173.548 245.294C172.992 244.022 172.658 242.011 172.658 239.136H169.852ZM170.987 246.441C171.456 247.463 172.181 248.274 173.157 248.812C174.115 249.341 175.233 249.563 176.439 249.563V246.757C175.565 246.757 174.947 246.595 174.513 246.356C174.097 246.126 173.773 245.785 173.538 245.271L170.987 246.441ZM176.439 249.563C177.644 249.563 178.761 249.341 179.715 248.809C180.688 248.266 181.402 247.448 181.852 246.418L179.281 245.294C179.06 245.8 178.75 246.134 178.347 246.359C177.924 246.595 177.314 246.757 176.439 246.757V249.563ZM181.842 246.441C182.671 244.632 183.026 242.154 183.026 239.136H180.22C180.22 242.006 179.871 244.008 179.291 245.271L181.842 246.441ZM183.026 239.136V213.12H180.22V239.136H183.026ZM181.623 214.523H186.759V211.717H181.623V214.523ZM185.356 213.12V238.896H188.162V213.12H185.356ZM185.356 238.896C185.356 241.76 185.074 244.063 184.549 245.843L187.24 246.637C187.867 244.513 188.162 241.92 188.162 238.896H185.356ZM184.549 245.843C184.052 247.528 183.181 248.775 181.952 249.663L183.597 251.937C185.377 250.649 186.586 248.856 187.24 246.637L184.549 245.843ZM181.952 249.663C180.776 250.515 178.995 251.029 176.439 251.029V253.835C179.323 253.835 181.766 253.261 183.597 251.937L181.952 249.663ZM203.438 213.12V211.717C202.663 211.717 202.035 212.345 202.035 213.12H203.438ZM208.862 213.12H210.265C210.265 212.345 209.637 211.717 208.862 211.717V213.12ZM208.862 248.112H207.459C207.459 248.887 208.087 249.515 208.862 249.515V248.112ZM218.798 248.112H220.201C220.201 247.337 219.573 246.709 218.798 246.709V248.112ZM218.798 252V253.403C219.573 253.403 220.201 252.775 220.201 252H218.798ZM203.438 252H202.035C202.035 252.775 202.663 253.403 203.438 253.403V252ZM203.438 214.523H208.862V211.717H203.438V214.523ZM207.459 213.12V248.112H210.265V213.12H207.459ZM208.862 249.515H218.798V246.709H208.862V249.515ZM217.395 248.112V252H220.201V248.112H217.395ZM218.798 250.597H203.438V253.403H218.798V250.597ZM204.841 252V213.12H202.035V252H204.841ZM223.963 249.216L222.841 250.058C222.845 250.064 222.85 250.07 222.855 250.076L223.963 249.216ZM224.011 215.904L222.915 215.028L224.011 215.904ZM240.283 215.952L239.173 216.81C239.178 216.816 239.182 216.822 239.187 216.828L240.283 215.952ZM240.283 249.168L239.168 248.316H239.168L240.283 249.168ZM236.251 246.384L237.457 247.101H237.457L236.251 246.384ZM236.251 218.736L235.054 219.468C235.057 219.473 235.06 219.478 235.063 219.483L236.251 218.736ZM228.043 218.736L229.231 219.483C229.234 219.478 229.237 219.473 229.24 219.468L228.043 218.736ZM228.043 246.384L229.249 245.667L228.043 246.384ZM232.171 251.029C228.612 251.029 226.374 250.034 225.071 248.356L222.855 250.076C224.88 252.686 228.114 253.835 232.171 253.835V251.029ZM225.085 248.374C223.707 246.536 222.918 243.746 222.918 239.808H220.112C220.112 244.062 220.955 247.544 222.841 250.058L225.085 248.374ZM222.918 239.808V225.072H220.112V239.808H222.918ZM222.918 225.072C222.918 221.202 223.721 218.512 225.106 216.78L222.915 215.028C220.973 217.456 220.112 220.878 220.112 225.072H222.918ZM225.106 216.78C226.406 215.156 228.635 214.187 232.171 214.187V211.381C228.155 211.381 224.944 212.492 222.915 215.028L225.106 216.78ZM232.171 214.187C235.703 214.187 237.904 215.168 239.173 216.81L241.393 215.094C239.398 212.512 236.191 211.381 232.171 211.381V214.187ZM239.187 216.828C240.574 218.562 241.376 221.238 241.376 225.072H244.182C244.182 220.906 243.32 217.502 241.378 215.076L239.187 216.828ZM241.376 225.072V239.856H244.182V225.072H241.376ZM241.376 239.856C241.376 243.719 240.575 246.476 239.168 248.316L241.397 250.02C243.319 247.508 244.182 244.057 244.182 239.856H241.376ZM239.168 248.316C237.859 250.028 235.65 251.029 232.171 251.029V253.835C236.18 253.835 239.379 252.66 241.397 250.02L239.168 248.316ZM232.171 249.563C234.431 249.563 236.394 248.889 237.457 247.101L235.045 245.667C234.7 246.247 233.943 246.757 232.171 246.757V249.563ZM237.457 247.101C238.353 245.593 238.71 243.497 238.71 241.008H235.904C235.904 243.319 235.556 244.807 235.045 245.667L237.457 247.101ZM238.71 241.008V223.968H235.904V241.008H238.71ZM238.71 223.968C238.71 221.517 238.356 219.448 237.439 217.989L235.063 219.483C235.554 220.264 235.904 221.683 235.904 223.968H238.71ZM237.448 218.004C236.378 216.253 234.416 215.605 232.171 215.605V218.411C233.958 218.411 234.716 218.915 235.054 219.468L237.448 218.004ZM232.171 215.605C229.905 215.605 227.92 216.247 226.846 218.004L229.24 219.468C229.574 218.921 230.341 218.411 232.171 218.411V215.605ZM226.855 217.989C225.938 219.448 225.584 221.517 225.584 223.968H228.39C228.39 221.683 228.74 220.264 229.231 219.483L226.855 217.989ZM225.584 223.968V241.008H228.39V223.968H225.584ZM225.584 241.008C225.584 243.497 225.94 245.593 226.837 247.101L229.249 245.667C228.737 244.807 228.39 243.319 228.39 241.008H225.584ZM226.837 247.101C227.904 248.895 229.89 249.563 232.171 249.563V246.757C230.356 246.757 229.59 246.241 229.249 245.667L226.837 247.101ZM249.79 249.408L248.716 250.311L248.725 250.321L249.79 249.408ZM246.958 241.104L246.592 239.75C245.953 239.922 245.521 240.519 245.557 241.18L246.958 241.104ZM251.758 239.808L253.158 239.718C253.131 239.298 252.917 238.912 252.575 238.667C252.233 238.422 251.799 238.344 251.392 238.454L251.758 239.808ZM253.198 245.856L251.954 246.504C251.957 246.511 251.961 246.518 251.964 246.524L253.198 245.856ZM260.446 247.008L259.413 246.058L259.412 246.06L260.446 247.008ZM260.542 239.616L261.726 238.863L260.542 239.616ZM257.326 236.112L256.398 237.164L256.405 237.171L257.326 236.112ZM250.798 230.352L251.726 229.3L251.724 229.298L250.798 230.352ZM247.918 226.656L246.628 227.209C246.634 227.221 246.639 227.234 246.645 227.246L247.918 226.656ZM249.502 215.136L250.474 216.148V216.148L249.502 215.136ZM265.966 222.816L266.333 224.17C266.992 223.992 267.426 223.365 267.363 222.685L265.966 222.816ZM261.358 224.064L259.958 224.163C259.988 224.581 260.203 224.964 260.545 225.207C260.887 225.451 261.32 225.528 261.725 225.418L261.358 224.064ZM260.014 218.832L258.792 219.521C258.799 219.534 258.806 219.546 258.814 219.558L260.014 218.832ZM253.006 218.064L253.976 219.078C253.983 219.071 253.991 219.063 253.998 219.056L253.006 218.064ZM252.478 224.16L251.213 224.767C251.216 224.774 251.22 224.781 251.223 224.787L252.478 224.16ZM254.446 226.512L255.37 225.457L255.362 225.449L254.446 226.512ZM261.022 232.272L261.953 231.222L261.946 231.217L261.022 232.272ZM265.054 237.168L263.832 237.857C263.835 237.862 263.838 237.868 263.841 237.874L265.054 237.168ZM263.998 249.936L264.971 250.947V250.947L263.998 249.936ZM257.278 251.029C254.321 251.029 252.257 250.13 250.855 248.495L248.725 250.321C250.779 252.718 253.707 253.835 257.278 253.835V251.029ZM250.864 248.505C249.42 246.789 248.54 244.346 248.359 241.028L245.557 241.18C245.76 244.902 246.768 247.995 248.716 250.311L250.864 248.505ZM247.324 242.458L252.124 241.162L251.392 238.454L246.592 239.75L247.324 242.458ZM250.358 239.898C250.525 242.509 251.033 244.736 251.954 246.504L254.442 245.208C253.763 243.904 253.311 242.099 253.158 239.718L250.358 239.898ZM251.964 246.524C252.491 247.496 253.216 248.277 254.152 248.806C255.082 249.331 256.143 249.563 257.278 249.563V246.757C256.525 246.757 255.961 246.605 255.532 246.362C255.108 246.123 254.737 245.752 254.432 245.188L251.964 246.524ZM257.278 249.563C258.935 249.563 260.427 249.105 261.48 247.956L259.412 246.06C259.057 246.447 258.437 246.757 257.278 246.757V249.563ZM261.478 247.958C262.526 246.819 262.953 245.297 262.953 243.6H260.147C260.147 244.847 259.838 245.597 259.413 246.058L261.478 247.958ZM262.953 243.6C262.953 241.807 262.576 240.199 261.726 238.863L259.358 240.369C259.852 241.145 260.147 242.193 260.147 243.6H262.953ZM261.726 238.863C260.952 237.648 259.77 236.378 258.247 235.053L256.405 237.171C257.826 238.406 258.787 239.472 259.358 240.369L261.726 238.863ZM258.254 235.06L251.726 229.3L249.87 231.404L256.398 237.164L258.254 235.06ZM251.724 229.298C250.529 228.248 249.702 227.168 249.191 226.066L246.645 227.246C247.35 228.768 248.443 230.152 249.872 231.406L251.724 229.298ZM249.207 226.103C248.726 224.979 248.457 223.547 248.457 221.76H245.651C245.651 223.813 245.958 225.645 246.628 227.209L249.207 226.103ZM248.457 221.76C248.457 219.189 249.185 217.386 250.474 216.148L248.53 214.124C246.555 216.021 245.651 218.635 245.651 221.76H248.457ZM250.474 216.148C251.784 214.889 253.627 214.187 256.174 214.187V211.381C253.089 211.381 250.483 212.247 248.53 214.124L250.474 216.148ZM256.174 214.187C259.005 214.187 260.903 214.935 262.122 216.204L264.146 214.26C262.229 212.265 259.487 211.381 256.174 211.381V214.187ZM262.122 216.204C263.382 217.515 264.264 219.682 264.569 222.947L267.363 222.685C267.028 219.102 266.022 216.213 264.146 214.26L262.122 216.204ZM265.599 221.462L260.991 222.71L261.725 225.418L266.333 224.17L265.599 221.462ZM262.757 223.965C262.59 221.591 262.115 219.593 261.214 218.106L258.814 219.558C259.385 220.503 259.806 221.993 259.958 224.163L262.757 223.965ZM261.236 218.143C260.209 216.321 258.363 215.557 256.174 215.557V218.363C257.696 218.363 258.411 218.847 258.792 219.521L261.236 218.143ZM256.174 215.557C254.55 215.557 253.089 215.996 252.014 217.072L253.998 219.056C254.394 218.66 255.046 218.363 256.174 218.363V215.557ZM252.036 217.05C250.931 218.107 250.499 219.591 250.499 221.232H253.305C253.305 220.057 253.609 219.429 253.976 219.078L252.036 217.05ZM250.499 221.232C250.499 222.534 250.715 223.73 251.213 224.767L253.743 223.553C253.473 222.99 253.305 222.234 253.305 221.232H250.499ZM251.223 224.787C251.718 225.776 252.517 226.701 253.53 227.575L255.362 225.449C254.519 224.723 254.006 224.08 253.733 223.533L251.223 224.787ZM253.522 227.567L260.098 233.327L261.946 231.217L255.37 225.457L253.522 227.567ZM260.091 233.322C261.685 234.735 262.925 236.248 263.832 237.857L266.276 236.479C265.199 234.568 263.751 232.817 261.953 231.222L260.091 233.322ZM263.841 237.874C264.728 239.398 265.187 241.15 265.187 243.168H267.993C267.993 240.706 267.427 238.458 266.267 236.462L263.841 237.874ZM265.187 243.168C265.187 245.712 264.427 247.575 263.025 248.925L264.971 250.947C267.025 248.969 267.993 246.32 267.993 243.168H265.187ZM263.025 248.925C261.597 250.3 259.725 251.029 257.278 251.029V253.835C260.335 253.835 262.943 252.9 264.971 250.947L263.025 248.925ZM275.069 217.152H276.472C276.472 216.377 275.844 215.749 275.069 215.749V217.152ZM268.493 217.152H267.09C267.09 217.927 267.719 218.555 268.493 218.555V217.152ZM268.493 213.12V211.717C267.719 211.717 267.09 212.345 267.09 213.12H268.493ZM286.877 213.12H288.28C288.28 212.345 287.652 211.717 286.877 211.717V213.12ZM286.877 217.152V218.555C287.652 218.555 288.28 217.927 288.28 217.152H286.877ZM280.493 217.152V215.749C279.719 215.749 279.09 216.377 279.09 217.152H280.493ZM280.493 252V253.403C281.268 253.403 281.896 252.775 281.896 252H280.493ZM275.069 252H273.666C273.666 252.775 274.295 253.403 275.069 253.403V252ZM275.069 215.749H268.493V218.555H275.069V215.749ZM269.896 217.152V213.12H267.09V217.152H269.896ZM268.493 214.523H286.877V211.717H268.493V214.523ZM285.474 213.12V217.152H288.28V213.12H285.474ZM286.877 215.749H280.493V218.555H286.877V215.749ZM279.09 217.152V252H281.896V217.152H279.09ZM280.493 250.597H275.069V253.403H280.493V250.597ZM276.472 252V217.152H273.666V252H276.472Z" fill="#5647FF" fill-opacity="0.6"/>
</g>
<defs>
<filter id="filter0_di" x="100.064" y="85.4806" width="130.669" height="77.4504" filterUnits="userSpaceOnUse" color-interpolation-filters="sRGB">
<feFlood flood-opacity="0" result="BackgroundImageFix"/>
<feColorMatrix in="SourceAlpha" type="matrix" values="0 0 0 0 0 0 0 0 0 0 0 0 0 0 0 0 0 0 127 0" result="hardAlpha"/>
<feOffset dy="5.61193"/>
<feGaussianBlur stdDeviation="2.80596"/>
<feColorMatrix type="matrix" values="0 0 0 0 0 0 0 0 0 0 0 0 0 0 0 0 0 0 0.08 0"/>
<feBlend mode="normal" in2="BackgroundImageFix" result="effect1_dropShadow"/>
<feBlend mode="normal" in="SourceGraphic" in2="effect1_dropShadow" result="shape"/>
<feColorMatrix in="SourceAlpha" type="matrix" values="0 0 0 0 0 0 0 0 0 0 0 0 0 0 0 0 0 0 127 0" result="hardAlpha"/>
<feOffset dx="5.61193" dy="-11.2239"/>
<feGaussianBlur stdDeviation="0.701491"/>
<feComposite in2="hardAlpha" operator="arithmetic" k2="-1" k3="1"/>
<feColorMatrix type="matrix" values="0 0 0 0 0 0 0 0 0 0 0 0 0 0 0 0 0 0 0.11 0"/>
<feBlend mode="overlay" in2="shape" result="effect2_innerShadow"/>
</filter>
<filter id="filter1_di" x="72.2326" y="71.1002" width="130.669" height="77.4504" filterUnits="userSpaceOnUse" color-interpolation-filters="sRGB">
<feFlood flood-opacity="0" result="BackgroundImageFix"/>
<feColorMatrix in="SourceAlpha" type="matrix" values="0 0 0 0 0 0 0 0 0 0 0 0 0 0 0 0 0 0 127 0" result="hardAlpha"/>
<feOffset dy="5.61193"/>
<feGaussianBlur stdDeviation="2.80596"/>
<feColorMatrix type="matrix" values="0 0 0 0 0 0 0 0 0 0 0 0 0 0 0 0 0 0 0.08 0"/>
<feBlend mode="normal" in2="BackgroundImageFix" result="effect1_dropShadow"/>
<feBlend mode="normal" in="SourceGraphic" in2="effect1_dropShadow" result="shape"/>
<feColorMatrix in="SourceAlpha" type="matrix" values="0 0 0 0 0 0 0 0 0 0 0 0 0 0 0 0 0 0 127 0" result="hardAlpha"/>
<feOffset dx="5.61193" dy="-11.2239"/>
<feGaussianBlur stdDeviation="0.701491"/>
<feComposite in2="hardAlpha" operator="arithmetic" k2="-1" k3="1"/>
<feColorMatrix type="matrix" values="0 0 0 0 0 0 0 0 0 0 0 0 0 0 0 0 0 0 0.19 0"/>
<feBlend mode="overlay" in2="shape" result="effect2_innerShadow"/>
</filter>
<filter id="filter2_di" x="42.6965" y="50.3529" width="130.669" height="77.4504" filterUnits="userSpaceOnUse" color-interpolation-filters="sRGB">
<feFlood flood-opacity="0" result="BackgroundImageFix"/>
<feColorMatrix in="SourceAlpha" type="matrix" values="0 0 0 0 0 0 0 0 0 0 0 0 0 0 0 0 0 0 127 0" result="hardAlpha"/>
<feOffset dy="5.61193"/>
<feGaussianBlur stdDeviation="2.80596"/>
<feColorMatrix type="matrix" values="0 0 0 0 0 0 0 0 0 0 0 0 0 0 0 0 0 0 0.08 0"/>
<feBlend mode="normal" in2="BackgroundImageFix" result="effect1_dropShadow"/>
<feBlend mode="normal" in="SourceGraphic" in2="effect1_dropShadow" result="shape"/>
<feColorMatrix in="SourceAlpha" type="matrix" values="0 0 0 0 0 0 0 0 0 0 0 0 0 0 0 0 0 0 127 0" result="hardAlpha"/>
<feOffset dx="5.61193" dy="-11.2239"/>
<feGaussianBlur stdDeviation="0.701491"/>
<feComposite in2="hardAlpha" operator="arithmetic" k2="-1" k3="1"/>
<feColorMatrix type="matrix" values="0 0 0 0 0 0 0 0 0 0 0 0 0 0 0 0 0 0 0.42 0"/>
<feBlend mode="overlay" in2="shape" result="effect2_innerShadow"/>
</filter>
<filter id="filter3_di" x="171.267" y="85.4806" width="130.669" height="77.4505" filterUnits="userSpaceOnUse" color-interpolation-filters="sRGB">
<feFlood flood-opacity="0" result="BackgroundImageFix"/>
<feColorMatrix in="SourceAlpha" type="matrix" values="0 0 0 0 0 0 0 0 0 0 0 0 0 0 0 0 0 0 127 0" result="hardAlpha"/>
<feOffset dy="5.61193"/>
<feGaussianBlur stdDeviation="2.80596"/>
<feColorMatrix type="matrix" values="0 0 0 0 0 0 0 0 0 0 0 0 0 0 0 0 0 0 0.08 0"/>
<feBlend mode="normal" in2="BackgroundImageFix" result="effect1_dropShadow"/>
<feBlend mode="normal" in="SourceGraphic" in2="effect1_dropShadow" result="shape"/>
<feColorMatrix in="SourceAlpha" type="matrix" values="0 0 0 0 0 0 0 0 0 0 0 0 0 0 0 0 0 0 127 0" result="hardAlpha"/>
<feOffset dx="-5.61193" dy="-11.2239"/>
<feGaussianBlur stdDeviation="0.701491"/>
<feComposite in2="hardAlpha" operator="arithmetic" k2="-1" k3="1"/>
<feColorMatrix type="matrix" values="0 0 0 0 0 0 0 0 0 0 0 0 0 0 0 0 0 0 0.11 0"/>
<feBlend mode="overlay" in2="shape" result="effect2_innerShadow"/>
</filter>
<filter id="filter4_di" x="199.097" y="71.1002" width="130.669" height="77.4505" filterUnits="userSpaceOnUse" color-interpolation-filters="sRGB">
<feFlood flood-opacity="0" result="BackgroundImageFix"/>
<feColorMatrix in="SourceAlpha" type="matrix" values="0 0 0 0 0 0 0 0 0 0 0 0 0 0 0 0 0 0 127 0" result="hardAlpha"/>
<feOffset dy="5.61193"/>
<feGaussianBlur stdDeviation="2.80596"/>
<feColorMatrix type="matrix" values="0 0 0 0 0 0 0 0 0 0 0 0 0 0 0 0 0 0 0.08 0"/>
<feBlend mode="normal" in2="BackgroundImageFix" result="effect1_dropShadow"/>
<feBlend mode="normal" in="SourceGraphic" in2="effect1_dropShadow" result="shape"/>
<feColorMatrix in="SourceAlpha" type="matrix" values="0 0 0 0 0 0 0 0 0 0 0 0 0 0 0 0 0 0 127 0" result="hardAlpha"/>
<feOffset dx="-5.61193" dy="-11.2239"/>
<feGaussianBlur stdDeviation="0.701491"/>
<feComposite in2="hardAlpha" operator="arithmetic" k2="-1" k3="1"/>
<feColorMatrix type="matrix" values="0 0 0 0 0 0 0 0 0 0 0 0 0 0 0 0 0 0 0.19 0"/>
<feBlend mode="overlay" in2="shape" result="effect2_innerShadow"/>
</filter>
<filter id="filter5_di" x="228.634" y="50.3529" width="130.669" height="77.4505" filterUnits="userSpaceOnUse" color-interpolation-filters="sRGB">
<feFlood flood-opacity="0" result="BackgroundImageFix"/>
<feColorMatrix in="SourceAlpha" type="matrix" values="0 0 0 0 0 0 0 0 0 0 0 0 0 0 0 0 0 0 127 0" result="hardAlpha"/>
<feOffset dy="5.61193"/>
<feGaussianBlur stdDeviation="2.80596"/>
<feColorMatrix type="matrix" values="0 0 0 0 0 0 0 0 0 0 0 0 0 0 0 0 0 0 0.08 0"/>
<feBlend mode="normal" in2="BackgroundImageFix" result="effect1_dropShadow"/>
<feBlend mode="normal" in="SourceGraphic" in2="effect1_dropShadow" result="shape"/>
<feColorMatrix in="SourceAlpha" type="matrix" values="0 0 0 0 0 0 0 0 0 0 0 0 0 0 0 0 0 0 127 0" result="hardAlpha"/>
<feOffset dx="-5.61193" dy="-11.2239"/>
<feGaussianBlur stdDeviation="0.701491"/>
<feComposite in2="hardAlpha" operator="arithmetic" k2="-1" k3="1"/>
<feColorMatrix type="matrix" values="0 0 0 0 0 0 0 0 0 0 0 0 0 0 0 0 0 0 0.42 0"/>
<feBlend mode="overlay" in2="shape" result="effect2_innerShadow"/>
</filter>
<filter id="filter6_d" x="151.928" y="0.938498" width="100.123" height="100.123" filterUnits="userSpaceOnUse" color-interpolation-filters="sRGB">
<feFlood flood-opacity="0" result="BackgroundImageFix"/>
<feColorMatrix in="SourceAlpha" type="matrix" values="0 0 0 0 0 0 0 0 0 0 0 0 0 0 0 0 0 0 127 0" result="hardAlpha"/>
<feOffset/>
<feGaussianBlur stdDeviation="5.61193"/>
<feColorMatrix type="matrix" values="0 0 0 0 0 0 0 0 0 0 0 0 0 0 0 0 0 0 0.2 0"/>
<feBlend mode="normal" in2="BackgroundImageFix" result="effect1_dropShadow"/>
<feBlend mode="normal" in="SourceGraphic" in2="effect1_dropShadow" result="shape"/>
</filter>
<filter id="filter7_d" x="192.001" y="40.8648" width="100.123" height="100.123" filterUnits="userSpaceOnUse" color-interpolation-filters="sRGB">
<feFlood flood-opacity="0" result="BackgroundImageFix"/>
<feColorMatrix in="SourceAlpha" type="matrix" values="0 0 0 0 0 0 0 0 0 0 0 0 0 0 0 0 0 0 127 0" result="hardAlpha"/>
<feOffset/>
<feGaussianBlur stdDeviation="5.61193"/>
<feColorMatrix type="matrix" values="0 0 0 0 0 0 0 0 0 0 0 0 0 0 0 0 0 0 0.2 0"/>
<feBlend mode="normal" in2="BackgroundImageFix" result="effect1_dropShadow"/>
<feBlend mode="normal" in="SourceGraphic" in2="effect1_dropShadow" result="shape"/>
</filter>
<filter id="filter8_d" x="152.075" y="80.9385" width="100.123" height="100.123" filterUnits="userSpaceOnUse" color-interpolation-filters="sRGB">
<feFlood flood-opacity="0" result="BackgroundImageFix"/>
<feColorMatrix in="SourceAlpha" type="matrix" values="0 0 0 0 0 0 0 0 0 0 0 0 0 0 0 0 0 0 127 0" result="hardAlpha"/>
<feOffset/>
<feGaussianBlur stdDeviation="5.61193"/>
<feColorMatrix type="matrix" values="0 0 0 0 0 0 0 0 0 0 0 0 0 0 0 0 0 0 0.2 0"/>
<feBlend mode="normal" in2="BackgroundImageFix" result="effect1_dropShadow"/>
<feBlend mode="normal" in="SourceGraphic" in2="effect1_dropShadow" result="shape"/>
</filter>
<filter id="filter9_d" x="112.002" y="41.0122" width="100.123" height="100.123" filterUnits="userSpaceOnUse" color-interpolation-filters="sRGB">
<feFlood flood-opacity="0" result="BackgroundImageFix"/>
<feColorMatrix in="SourceAlpha" type="matrix" values="0 0 0 0 0 0 0 0 0 0 0 0 0 0 0 0 0 0 127 0" result="hardAlpha"/>
<feOffset/>
<feGaussianBlur stdDeviation="5.61193"/>
<feColorMatrix type="matrix" values="0 0 0 0 0 0 0 0 0 0 0 0 0 0 0 0 0 0 0.2 0"/>
<feBlend mode="normal" in2="BackgroundImageFix" result="effect1_dropShadow"/>
<feBlend mode="normal" in="SourceGraphic" in2="effect1_dropShadow" result="shape"/>
</filter>
<filter id="filter10_d" x="118.72" y="7.65698" width="166.686" height="166.686" filterUnits="userSpaceOnUse" color-interpolation-filters="sRGB">
<feFlood flood-opacity="0" result="BackgroundImageFix"/>
<feColorMatrix in="SourceAlpha" type="matrix" values="0 0 0 0 0 0 0 0 0 0 0 0 0 0 0 0 0 0 127 0" result="hardAlpha"/>
<feOffset/>
<feGaussianBlur stdDeviation="8"/>
<feColorMatrix type="matrix" values="0 0 0 0 0 0 0 0 0 0 0 0 0 0 0 0 0 0 0.15 0"/>
<feBlend mode="normal" in2="BackgroundImageFix" result="effect1_dropShadow"/>
<feBlend mode="normal" in="SourceGraphic" in2="effect1_dropShadow" result="shape"/>
</filter>
<filter id="filter11_i" x="150.153" y="39.0906" width="103.821" height="106.627" filterUnits="userSpaceOnUse" color-interpolation-filters="sRGB">
<feFlood flood-opacity="0" result="BackgroundImageFix"/>
<feBlend mode="normal" in="SourceGraphic" in2="BackgroundImageFix" result="shape"/>
<feColorMatrix in="SourceAlpha" type="matrix" values="0 0 0 0 0 0 0 0 0 0 0 0 0 0 0 0 0 0 127 0" result="hardAlpha"/>
<feOffset dy="2.80596"/>
<feGaussianBlur stdDeviation="4.20895"/>
<feComposite in2="hardAlpha" operator="arithmetic" k2="-1" k3="1"/>
<feColorMatrix type="matrix" values="0 0 0 0 0 0 0 0 0 0 0 0 0 0 0 0 0 0 0.34 0"/>
<feBlend mode="overlay" in2="shape" result="effect1_innerShadow"/>
</filter>
<filter id="filter12_d" x="57.4522" y="155.262" width="286.948" height="154.693" filterUnits="userSpaceOnUse" color-interpolation-filters="sRGB">
<feFlood flood-opacity="0" result="BackgroundImageFix"/>
<feColorMatrix in="SourceAlpha" type="matrix" values="0 0 0 0 0 0 0 0 0 0 0 0 0 0 0 0 0 0 127 0" result="hardAlpha"/>
<feOffset/>
<feGaussianBlur stdDeviation="28.0596"/>
<feColorMatrix type="matrix" values="0 0 0 0 0.360784 0 0 0 0 0.615686 0 0 0 0 1 0 0 0 1 0"/>
<feBlend mode="normal" in2="BackgroundImageFix" result="effect1_dropShadow"/>
<feBlend mode="normal" in="SourceGraphic" in2="effect1_dropShadow" result="shape"/>
</filter>
<linearGradient id="paint0_linear" x1="202.063" y1="23.657" x2="202.063" y2="158.343" gradientUnits="userSpaceOnUse">
<stop stop-color="#CECDFF"/>
<stop offset="1" stop-color="#817FEA"/>
</linearGradient>
<linearGradient id="paint1_linear" x1="202.063" y1="26.4629" x2="202.063" y2="155.537" gradientUnits="userSpaceOnUse">
<stop stop-color="#B9B8FF"/>
<stop offset="1" stop-color="#9F9DF3"/>
</linearGradient>
<linearGradient id="paint2_linear" x1="202.063" y1="36.2839" x2="202.063" y2="145.717" gradientUnits="userSpaceOnUse">
<stop stop-color="#A59DF5"/>
<stop offset="1" stop-color="#C3BDFF"/>
</linearGradient>
<radialGradient id="paint3_radial" cx="0" cy="0" r="1" gradientUnits="userSpaceOnUse" gradientTransform="translate(185.685 66.4917) rotate(53.514) scale(78.2229 99.5459)">
<stop stop-color="#5DC6FB"/>
<stop offset="1" stop-color="#3B39F5"/>
</radialGradient>
<radialGradient id="paint4_radial" cx="0" cy="0" r="1" gradientUnits="userSpaceOnUse" gradientTransform="translate(181.099 61.9058) rotate(51.3402) scale(12.5844 25.1951)">
<stop stop-color="white" stop-opacity="0.6"/>
<stop offset="1" stop-color="white" stop-opacity="0"/>
</radialGradient>
<radialGradient id="paint5_radial" cx="0" cy="0" r="1" gradientUnits="userSpaceOnUse" gradientTransform="translate(200.626 227) rotate(90) scale(24.5522 200.626)">
<stop stop-color="#5C9DFF" stop-opacity="0.3"/>
<stop offset="1" stop-color="#5C9DFF" stop-opacity="0"/>
</radialGradient>
<radialGradient id="paint6_radial" cx="0" cy="0" r="1" gradientUnits="userSpaceOnUse" gradientTransform="translate(200.626 227) rotate(90) scale(4.91044 129.074)">
<stop stop-color="#5C9DFF" stop-opacity="0.25"/>
<stop offset="1" stop-color="#5C9DFF" stop-opacity="0"/>
</radialGradient>
</defs>
</svg>
