<svg width="973" height="588" viewBox="0 0 973 588" fill="none" xmlns="http://www.w3.org/2000/svg">
<path d="M730.973 276.901C730.973 363.937 683.232 439.821 612.508 479.797C606.746 483.053 600.832 486.072 594.779 488.838C565.324 502.3 532.574 509.802 498.072 509.802C369.444 509.802 265.171 405.529 265.171 276.901C265.171 148.273 369.444 44 498.072 44C626.7 44 730.973 148.273 730.973 276.901Z" fill="#C768DC"/>
<path d="M396.85 67.3706C280.953 123.165 232.23 262.348 288.024 378.245L497.875 277.221L396.85 67.3706Z" fill="#6871DC"/>
<path d="M498.072 276.901L394.113 68.4325C414.132 58.4301 435.793 51.2263 458.584 47.334L498.072 276.901Z" fill="#A368DC"/>
<path d="M730.974 276.901C730.974 148.273 626.7 44 498.072 44V276.901L599.614 486.561C603.99 484.437 608.29 482.181 612.508 479.797C683.232 439.821 730.974 363.937 730.974 276.901Z" fill="#68B7DC"/>
<path d="M288.542 378.359C344.575 494.141 483.859 542.576 599.641 486.542L498.183 276.901L288.542 378.359Z" fill="#6894DC"/>
<path d="M122.872 25.36H125.488C126 25.36 126.36 25.256 126.568 25.048C126.792 24.824 126.904 24.456 126.904 23.944V16.624C126.904 16.112 126.792 15.752 126.568 15.544C126.36 15.32 126 15.208 125.488 15.208H122.872C122.696 15.208 122.608 15.296 122.608 15.472V25.096C122.608 25.272 122.696 25.36 122.872 25.36ZM119.56 27.496V13.072C119.56 12.736 119.728 12.568 120.064 12.568H125.992C127.24 12.568 128.208 12.912 128.896 13.6C129.6 14.272 129.952 15.232 129.952 16.48V24.088C129.952 25.336 129.6 26.304 128.896 26.992C128.208 27.664 127.24 28 125.992 28H120.064C119.728 28 119.56 27.832 119.56 27.496ZM141.61 28H136.306C135.042 28 134.066 27.664 133.378 26.992C132.69 26.32 132.346 25.352 132.346 24.088V19.672C132.346 18.408 132.69 17.44 133.378 16.768C134.066 16.096 135.042 15.76 136.306 15.76H138.202C139.466 15.76 140.442 16.096 141.13 16.768C141.818 17.44 142.162 18.408 142.162 19.672V22.72C142.162 23.056 141.994 23.224 141.658 23.224H135.634C135.442 23.224 135.346 23.312 135.346 23.488V24.016C135.346 24.512 135.45 24.872 135.658 25.096C135.882 25.304 136.25 25.408 136.762 25.408H141.61C141.946 25.408 142.114 25.584 142.114 25.936V27.52C142.114 27.696 142.074 27.824 141.994 27.904C141.93 27.968 141.802 28 141.61 28ZM135.634 21.184H138.898C139.074 21.184 139.162 21.096 139.162 20.92V19.768C139.162 19.256 139.058 18.896 138.85 18.688C138.642 18.48 138.282 18.376 137.77 18.376H136.762C136.25 18.376 135.89 18.48 135.682 18.688C135.474 18.896 135.37 19.256 135.37 19.768V20.92C135.37 21.096 135.458 21.184 135.634 21.184ZM143.917 15.76H146.029C146.349 15.76 146.541 15.928 146.605 16.264L148.669 25.288H148.837L150.853 16.264C150.917 15.928 151.117 15.76 151.453 15.76H153.565C153.901 15.76 154.021 15.928 153.925 16.264L150.901 27.472C150.837 27.824 150.621 28 150.253 28L147.205 28C146.869 28 146.653 27.824 146.557 27.472L143.557 16.264C143.461 15.928 143.581 15.76 143.917 15.76ZM164.696 28H159.392C158.128 28 157.152 27.664 156.464 26.992C155.776 26.32 155.432 25.352 155.432 24.088V19.672C155.432 18.408 155.776 17.44 156.464 16.768C157.152 16.096 158.128 15.76 159.392 15.76H161.288C162.552 15.76 163.528 16.096 164.216 16.768C164.904 17.44 165.248 18.408 165.248 19.672V22.72C165.248 23.056 165.08 23.224 164.744 23.224H158.72C158.528 23.224 158.432 23.312 158.432 23.488V24.016C158.432 24.512 158.536 24.872 158.744 25.096C158.968 25.304 159.336 25.408 159.848 25.408H164.696C165.032 25.408 165.2 25.584 165.2 25.936V27.52C165.2 27.696 165.16 27.824 165.08 27.904C165.016 27.968 164.888 28 164.696 28ZM158.72 21.184H161.984C162.16 21.184 162.248 21.096 162.248 20.92V19.768C162.248 19.256 162.144 18.896 161.936 18.688C161.728 18.48 161.368 18.376 160.856 18.376H159.848C159.336 18.376 158.976 18.48 158.768 18.688C158.56 18.896 158.456 19.256 158.456 19.768V20.92C158.456 21.096 158.544 21.184 158.72 21.184ZM170.195 28H168.155C167.819 28 167.651 27.832 167.651 27.496V11.632C167.651 11.296 167.819 11.128 168.155 11.128H170.195C170.531 11.128 170.699 11.296 170.699 11.632V27.496C170.699 27.832 170.531 28 170.195 28ZM179.317 28H177.181C175.917 28 174.941 27.664 174.253 26.992C173.565 26.32 173.221 25.352 173.221 24.088V19.672C173.221 18.408 173.565 17.44 174.253 16.768C174.941 16.096 175.917 15.76 177.181 15.76H179.317C180.565 15.76 181.533 16.104 182.221 16.792C182.925 17.464 183.277 18.424 183.277 19.672V24.088C183.277 25.336 182.925 26.304 182.221 26.992C181.533 27.664 180.565 28 179.317 28ZM177.637 25.384H178.861C179.373 25.384 179.733 25.28 179.941 25.072C180.165 24.864 180.277 24.504 180.277 23.992V19.768C180.277 19.256 180.165 18.896 179.941 18.688C179.733 18.48 179.373 18.376 178.861 18.376H177.637C177.125 18.376 176.765 18.48 176.557 18.688C176.349 18.896 176.245 19.256 176.245 19.768V23.992C176.245 24.504 176.349 24.864 176.557 25.072C176.765 25.28 177.125 25.384 177.637 25.384ZM188.216 31.264H186.176C185.84 31.264 185.672 31.104 185.672 30.784V16.264C185.672 15.928 185.84 15.76 186.176 15.76H188.216C188.552 15.76 188.72 15.928 188.72 16.264V17.056H188.816C188.992 16.624 189.304 16.304 189.752 16.096C190.2 15.872 190.672 15.76 191.168 15.76H192.152C193.384 15.76 194.312 16.096 194.936 16.768C195.576 17.44 195.896 18.408 195.896 19.672V24.088C195.896 25.352 195.576 26.32 194.936 26.992C194.312 27.664 193.384 28 192.152 28H191.168C190.672 28 190.2 27.896 189.752 27.688C189.304 27.464 188.992 27.136 188.816 26.704H188.72V30.784C188.72 31.104 188.552 31.264 188.216 31.264ZM190.376 25.36H191.432C191.944 25.36 192.304 25.256 192.512 25.048C192.736 24.824 192.848 24.456 192.848 23.944V19.816C192.848 19.304 192.736 18.944 192.512 18.736C192.304 18.512 191.944 18.4 191.432 18.4H190.376C189.272 18.4 188.72 19.008 188.72 20.224V23.536C188.72 24.752 189.272 25.36 190.376 25.36ZM206.242 16.216V19.168C206.242 19.504 206.09 19.672 205.786 19.672H203.65C203.33 19.672 203.17 19.488 203.17 19.12V16.24C203.17 15.92 203.33 15.76 203.65 15.76H205.786C206.09 15.76 206.242 15.912 206.242 16.216ZM206.242 24.544V27.496C206.242 27.832 206.09 28 205.786 28H203.65C203.33 28 203.17 27.824 203.17 27.472V24.568C203.17 24.248 203.33 24.088 203.65 24.088H205.786C206.09 24.088 206.242 24.24 206.242 24.544ZM218.982 20.152H217.854C217.438 20.152 217.118 20.32 216.894 20.656C216.686 20.992 216.462 21.16 216.222 21.16H214.23C213.894 21.16 213.726 21 213.726 20.68V13.072C213.726 12.736 213.894 12.568 214.23 12.568L222.582 12.568C222.918 12.568 223.086 12.736 223.086 13.072V14.896C223.086 15.232 222.918 15.4 222.582 15.4H216.774V18.928C217.046 18.128 217.718 17.728 218.79 17.728H219.798C222.278 17.728 223.518 18.968 223.518 21.448V24.088C223.518 25.336 223.174 26.304 222.486 26.992C221.798 27.664 220.83 28 219.582 28H217.47C216.206 28 215.23 27.664 214.542 26.992C213.854 26.32 213.51 25.352 213.51 24.088V23.608C213.51 23.256 213.678 23.08 214.014 23.08H216.054C216.39 23.08 216.558 23.256 216.558 23.608V24.064C216.558 24.56 216.662 24.92 216.87 25.144C217.094 25.352 217.454 25.456 217.95 25.456H219.078C219.59 25.456 219.966 25.352 220.206 25.144C220.446 24.92 220.566 24.56 220.566 24.064V21.904C220.566 21.232 220.454 20.776 220.23 20.536C220.006 20.28 219.59 20.152 218.982 20.152ZM238.178 22.36H237.626C237.274 22.36 237.034 22.432 236.906 22.576C236.778 22.704 236.714 22.936 236.714 23.272V25.36C236.714 25.712 236.778 25.96 236.906 26.104C237.034 26.232 237.274 26.296 237.626 26.296H238.178C238.514 26.296 238.746 26.224 238.874 26.08C239.018 25.936 239.09 25.696 239.09 25.36V23.272C239.09 22.936 239.026 22.704 238.898 22.576C238.77 22.432 238.53 22.36 238.178 22.36ZM237.17 20.656H238.586C239.418 20.656 240.05 20.872 240.482 21.304C240.914 21.736 241.13 22.36 241.13 23.176V25.48C241.13 26.296 240.914 26.92 240.482 27.352C240.05 27.784 239.418 28 238.586 28H237.17C236.354 28 235.722 27.784 235.274 27.352C234.842 26.92 234.626 26.296 234.626 25.48V23.176C234.626 22.36 234.842 21.736 235.274 21.304C235.722 20.872 236.354 20.656 237.17 20.656ZM229.298 14.248H228.746C228.394 14.248 228.154 14.32 228.026 14.464C227.898 14.592 227.834 14.832 227.834 15.184V17.272C227.834 17.608 227.898 17.848 228.026 17.992C228.154 18.12 228.394 18.184 228.746 18.184H229.298C229.65 18.184 229.89 18.12 230.018 17.992C230.146 17.848 230.21 17.608 230.21 17.272V15.184C230.21 14.848 230.138 14.608 229.994 14.464C229.866 14.32 229.634 14.248 229.298 14.248ZM228.314 12.544H229.73C230.562 12.544 231.194 12.76 231.626 13.192C232.058 13.624 232.274 14.248 232.274 15.064V17.368C232.274 18.184 232.058 18.808 231.626 19.24C231.194 19.672 230.562 19.888 229.73 19.888H228.314C227.498 19.888 226.866 19.672 226.418 19.24C225.986 18.808 225.77 18.184 225.77 17.368V15.064C225.77 14.248 225.986 13.624 226.418 13.192C226.866 12.76 227.498 12.544 228.314 12.544ZM231.074 28H229.826C229.458 28 229.338 27.832 229.466 27.496C229.978 26.184 230.93 23.784 232.322 20.296C233.714 16.792 234.666 14.384 235.178 13.072C235.322 12.736 235.53 12.568 235.802 12.568H237.074C237.442 12.568 237.562 12.736 237.434 13.072L231.722 27.496C231.594 27.832 231.378 28 231.074 28Z" fill="white"/>
<path d="M121.456 52.856V53.208C121.456 53.3147 121.397 53.368 121.28 53.368H121.232C120.72 53.368 120.325 53.5227 120.048 53.832C119.771 54.1307 119.632 54.5627 119.632 55.128V62.216C119.632 62.7813 119.771 63.2133 120.048 63.512C120.325 63.8213 120.72 63.976 121.232 63.976H121.28C121.397 63.976 121.456 64.0293 121.456 64.136V64.488C121.456 64.584 121.397 64.632 121.28 64.632H121.232C120.517 64.632 119.947 64.4133 119.52 63.976C119.104 63.5493 118.896 62.9467 118.896 62.168V55.176C118.896 54.3973 119.104 53.7947 119.52 53.368C119.947 52.9307 120.517 52.712 121.232 52.712H121.296C121.403 52.712 121.456 52.76 121.456 52.856ZM133.405 63H128.317C128.21 63 128.157 62.936 128.157 62.808V52.904C128.157 52.776 128.21 52.712 128.317 52.712H128.781C128.898 52.712 128.957 52.776 128.957 52.904V62.104C128.957 62.2 129.01 62.248 129.117 62.248H133.405C133.533 62.248 133.597 62.3067 133.597 62.424V62.824C133.597 62.9413 133.533 63 133.405 63ZM138.672 63H137.296C136.602 63 136.053 62.7973 135.648 62.392C135.253 61.9867 135.056 61.432 135.056 60.728V57.112C135.056 56.408 135.253 55.8533 135.648 55.448C136.053 55.0427 136.602 54.84 137.296 54.84H138.672C139.365 54.84 139.914 55.0427 140.32 55.448C140.725 55.8533 140.928 56.408 140.928 57.112V60.728C140.928 61.432 140.725 61.9867 140.32 62.392C139.914 62.7973 139.365 63 138.672 63ZM137.36 62.28H138.608C139.098 62.28 139.472 62.1467 139.728 61.88C139.994 61.6027 140.128 61.2133 140.128 60.712V57.128C140.128 56.6267 139.994 56.2427 139.728 55.976C139.472 55.6987 139.098 55.56 138.608 55.56H137.36C136.869 55.56 136.496 55.6987 136.24 55.976C135.984 56.2427 135.856 56.6267 135.856 57.128V60.712C135.856 61.2133 135.984 61.6027 136.24 61.88C136.496 62.1467 136.869 62.28 137.36 62.28ZM147.713 62.456V62.824C147.713 62.9413 147.654 63 147.537 63H145.233C144.54 63 143.99 62.7973 143.585 62.392C143.19 61.9867 142.993 61.432 142.993 60.728V57.112C142.993 56.408 143.19 55.8533 143.585 55.448C143.99 55.0427 144.54 54.84 145.233 54.84H147.537C147.654 54.84 147.713 54.8987 147.713 55.016V55.4C147.713 55.5067 147.654 55.56 147.537 55.56H145.297C144.806 55.56 144.433 55.6987 144.177 55.976C143.921 56.2533 143.793 56.6427 143.793 57.144V60.696C143.793 61.1973 143.921 61.5867 144.177 61.864C144.433 62.1413 144.806 62.28 145.297 62.28H147.537C147.654 62.28 147.713 62.3387 147.713 62.456ZM154.042 54.84H154.538C154.602 54.84 154.645 54.8613 154.666 54.904C154.687 54.936 154.677 54.9787 154.634 55.032L152.186 58.744V58.808L154.922 62.808C154.965 62.8613 154.975 62.9093 154.954 62.952C154.933 62.984 154.89 63 154.826 63H154.33C154.17 63 154.047 62.936 153.962 62.808L151.322 58.92C151.279 58.8347 151.279 58.7493 151.322 58.664L153.722 55C153.786 54.8933 153.893 54.84 154.042 54.84ZM150.074 63H149.61C149.503 63 149.45 62.936 149.45 62.808V51.944C149.45 51.816 149.503 51.752 149.61 51.752H150.074C150.191 51.752 150.25 51.816 150.25 51.944V62.808C150.25 62.936 150.191 63 150.074 63ZM164.248 54.648V54.296C164.248 54.1573 164.312 54.0453 164.44 53.96L166.456 52.824C166.563 52.7493 166.675 52.712 166.792 52.712H167.208C167.325 52.712 167.384 52.776 167.384 52.904V62.808C167.384 62.936 167.325 63 167.208 63H166.744C166.637 63 166.584 62.936 166.584 62.808V53.576L164.52 54.744C164.339 54.8613 164.248 54.8293 164.248 54.648ZM174.6 65.432H174.008C173.89 65.432 173.832 65.3733 173.832 65.256V64.872C173.832 64.7547 173.89 64.696 174.008 64.696H174.44C174.76 64.696 175.032 64.648 175.256 64.552C175.48 64.4667 175.677 64.3013 175.848 64.056C176.018 63.8107 176.13 63.6187 176.184 63.48C176.333 63.1493 176.456 62.8453 176.552 62.568H176.248C176.13 62.568 176.056 62.504 176.024 62.376L173.48 55.032C173.437 54.904 173.48 54.84 173.608 54.84H174.104C174.21 54.84 174.28 54.904 174.312 55.032L176.664 61.896H176.728L179.08 55.032C179.112 54.904 179.181 54.84 179.288 54.84H179.768C179.896 54.84 179.944 54.904 179.912 55.032C178.002 60.6213 177.005 63.512 176.92 63.704C176.845 63.896 176.701 64.1573 176.488 64.488C176.082 65.1173 175.453 65.432 174.6 65.432ZM186.983 63H183.639C182.946 63 182.397 62.7973 181.991 62.392C181.597 61.9867 181.399 61.432 181.399 60.728V57.112C181.399 56.408 181.597 55.8533 181.991 55.448C182.397 55.0427 182.946 54.84 183.639 54.84H185.015C185.709 54.84 186.258 55.0427 186.663 55.448C187.069 55.8533 187.271 56.408 187.271 57.112V59.144C187.271 59.272 187.207 59.336 187.079 59.336H182.343C182.247 59.336 182.199 59.384 182.199 59.48V60.712C182.199 61.2133 182.327 61.6027 182.583 61.88C182.839 62.1467 183.213 62.28 183.703 62.28H186.983C187.101 62.28 187.159 62.3387 187.159 62.456V62.824C187.159 62.9413 187.101 63 186.983 63ZM182.343 58.696H186.327C186.423 58.696 186.471 58.648 186.471 58.552V57.128C186.471 56.6267 186.343 56.2427 186.087 55.976C185.831 55.6987 185.458 55.56 184.967 55.56H183.703C183.213 55.56 182.839 55.6987 182.583 55.976C182.327 56.2427 182.199 56.6267 182.199 57.128V58.552C182.199 58.648 182.247 58.696 182.343 58.696ZM192.538 63H191.514C190.821 63 190.272 62.7973 189.866 62.392C189.472 61.9867 189.274 61.432 189.274 60.728V57.112C189.274 56.408 189.472 55.8533 189.866 55.448C190.272 55.0427 190.821 54.84 191.514 54.84H194.906C195.013 54.84 195.066 54.904 195.066 55.032V62.808C195.066 62.936 195.013 63 194.906 63H194.442C194.325 63 194.266 62.936 194.266 62.808V62.168H194.202C193.925 62.7227 193.37 63 192.538 63ZM194.266 60.712V55.704C194.266 55.608 194.213 55.56 194.106 55.56H191.578C191.088 55.56 190.714 55.6987 190.458 55.976C190.202 56.2533 190.074 56.6427 190.074 57.144V60.696C190.074 61.1973 190.202 61.5867 190.458 61.864C190.714 62.1413 191.088 62.28 191.578 62.28H192.618C193.13 62.28 193.53 62.1467 193.818 61.88C194.117 61.6027 194.266 61.2133 194.266 60.712ZM198.09 63L197.626 63C197.519 63 197.466 62.936 197.466 62.808V55.032C197.466 54.904 197.519 54.84 197.626 54.84H198.09C198.207 54.84 198.266 54.904 198.266 55.032V55.704H198.33C198.447 55.48 198.655 55.2827 198.954 55.112C199.252 54.9307 199.62 54.84 200.058 54.84H200.682C200.799 54.84 200.858 54.8987 200.858 55.016V55.4C200.858 55.5173 200.799 55.5707 200.682 55.56H199.93C199.407 55.56 198.996 55.72 198.698 56.04C198.41 56.36 198.266 56.792 198.266 57.336V62.808C198.266 62.936 198.207 63 198.09 63ZM202.177 64.488V64.136C202.177 64.0293 202.241 63.976 202.369 63.976H202.417C202.929 63.976 203.324 63.8213 203.601 63.512C203.879 63.2133 204.017 62.7813 204.017 62.216V55.128C204.017 54.5627 203.879 54.1307 203.601 53.832C203.324 53.5227 202.929 53.368 202.417 53.368H202.369C202.241 53.368 202.177 53.3147 202.177 53.208V52.856C202.177 52.76 202.241 52.712 202.369 52.712H202.417C203.121 52.712 203.681 52.9307 204.097 53.368C204.524 53.7947 204.737 54.3973 204.737 55.176V62.168C204.737 62.9467 204.524 63.5493 204.097 63.976C203.681 64.4133 203.121 64.632 202.417 64.632H202.369C202.241 64.632 202.177 64.584 202.177 64.488Z" fill="white"/>
<path d="M128.104 428H126.064C125.728 428 125.56 427.832 125.56 427.496V413.072C125.56 412.736 125.728 412.568 126.064 412.568H131.92C133.168 412.568 134.136 412.912 134.824 413.6C135.512 414.272 135.856 415.232 135.856 416.48V418.784C135.856 420.032 135.512 421 134.824 421.688C134.136 422.36 133.168 422.696 131.92 422.696H128.896C128.704 422.696 128.608 422.784 128.608 422.96V427.496C128.608 427.832 128.44 428 128.104 428ZM128.872 420.032H131.416C131.928 420.032 132.288 419.928 132.496 419.72C132.704 419.496 132.808 419.136 132.808 418.64V416.624C132.808 416.112 132.704 415.752 132.496 415.544C132.288 415.32 131.928 415.208 131.416 415.208H128.872C128.696 415.208 128.608 415.296 128.608 415.472V419.768C128.608 419.944 128.696 420.032 128.872 420.032ZM140.591 428H138.551C138.215 428 138.047 427.832 138.047 427.496V416.264C138.047 415.928 138.215 415.76 138.551 415.76H140.591C140.927 415.76 141.095 415.928 141.095 416.264V417.08H141.191C141.367 416.648 141.679 416.32 142.127 416.096C142.575 415.872 143.047 415.76 143.543 415.76H144.407C144.727 415.76 144.887 415.928 144.887 416.264V417.92C144.887 418.112 144.847 418.248 144.767 418.328C144.703 418.392 144.583 418.416 144.407 418.4H142.751C141.647 418.4 141.095 419.024 141.095 420.272V427.496C141.095 427.832 140.927 428 140.591 428ZM155.438 428H150.134C148.87 428 147.894 427.664 147.206 426.992C146.518 426.32 146.174 425.352 146.174 424.088V419.672C146.174 418.408 146.518 417.44 147.206 416.768C147.894 416.096 148.87 415.76 150.134 415.76H152.03C153.294 415.76 154.27 416.096 154.958 416.768C155.646 417.44 155.99 418.408 155.99 419.672V422.72C155.99 423.056 155.822 423.224 155.486 423.224H149.462C149.27 423.224 149.174 423.312 149.174 423.488V424.016C149.174 424.512 149.278 424.872 149.486 425.096C149.71 425.304 150.078 425.408 150.59 425.408H155.438C155.774 425.408 155.942 425.584 155.942 425.936V427.52C155.942 427.696 155.902 427.824 155.822 427.904C155.758 427.968 155.63 428 155.438 428ZM149.462 421.184H152.726C152.902 421.184 152.99 421.096 152.99 420.92V419.768C152.99 419.256 152.886 418.896 152.678 418.688C152.47 418.48 152.11 418.376 151.598 418.376H150.59C150.078 418.376 149.718 418.48 149.51 418.688C149.302 418.896 149.198 419.256 149.198 419.768V420.92C149.198 421.096 149.286 421.184 149.462 421.184ZM167.297 428H161.993C160.729 428 159.753 427.664 159.065 426.992C158.377 426.32 158.033 425.352 158.033 424.088V419.672C158.033 418.408 158.377 417.44 159.065 416.768C159.753 416.096 160.729 415.76 161.993 415.76H163.889C165.153 415.76 166.129 416.096 166.817 416.768C167.505 417.44 167.849 418.408 167.849 419.672V422.72C167.849 423.056 167.681 423.224 167.345 423.224H161.321C161.129 423.224 161.033 423.312 161.033 423.488V424.016C161.033 424.512 161.137 424.872 161.345 425.096C161.569 425.304 161.937 425.408 162.449 425.408H167.297C167.633 425.408 167.801 425.584 167.801 425.936V427.52C167.801 427.696 167.761 427.824 167.681 427.904C167.617 427.968 167.489 428 167.297 428ZM161.321 421.184H164.585C164.761 421.184 164.849 421.096 164.849 420.92V419.768C164.849 419.256 164.745 418.896 164.537 418.688C164.329 418.48 163.969 418.376 163.457 418.376H162.449C161.937 418.376 161.577 418.48 161.369 418.688C161.161 418.896 161.057 419.256 161.057 419.768V420.92C161.057 421.096 161.145 421.184 161.321 421.184ZM175.262 424.064V423.584C175.262 423.248 175.43 423.08 175.766 423.08H177.806C178.142 423.08 178.31 423.248 178.31 423.584V423.776C178.31 424.384 178.43 424.8 178.67 425.024C178.91 425.248 179.35 425.36 179.99 425.36H181.118C181.742 425.36 182.174 425.24 182.414 425C182.67 424.76 182.798 424.312 182.798 423.656V423.368C182.798 422.904 182.606 422.552 182.222 422.312C181.854 422.056 181.39 421.904 180.83 421.856C180.27 421.808 179.662 421.72 179.006 421.592C178.366 421.448 177.766 421.272 177.206 421.064C176.646 420.84 176.174 420.416 175.79 419.792C175.422 419.152 175.238 418.336 175.238 417.344V416.504C175.238 415.256 175.59 414.288 176.294 413.6C176.998 412.912 177.974 412.568 179.222 412.568H181.622C182.886 412.568 183.87 412.912 184.574 413.6C185.278 414.288 185.63 415.256 185.63 416.504V416.96C185.63 417.296 185.462 417.464 185.126 417.464H183.086C182.75 417.464 182.582 417.296 182.582 416.96V416.816C182.582 416.192 182.462 415.768 182.222 415.544C181.982 415.32 181.542 415.208 180.902 415.208H179.966C179.31 415.208 178.862 415.336 178.622 415.592C178.398 415.832 178.286 416.312 178.286 417.032V417.488C178.286 418.24 178.942 418.672 180.254 418.784C181.614 418.896 182.822 419.168 183.878 419.6C184.438 419.84 184.902 420.272 185.27 420.896C185.654 421.504 185.846 422.288 185.846 423.248V424.064C185.846 425.312 185.494 426.28 184.79 426.968C184.086 427.656 183.11 428 181.862 428H179.246C177.998 428 177.022 427.656 176.318 426.968C175.614 426.28 175.262 425.312 175.262 424.064ZM192.639 428H192.063C190.799 428 189.823 427.664 189.135 426.992C188.447 426.32 188.103 425.352 188.103 424.088V419.672C188.103 418.408 188.447 417.44 189.135 416.768C189.823 416.096 190.799 415.76 192.063 415.76H197.607C197.959 415.76 198.135 415.928 198.135 416.264V427.496C198.135 427.832 197.959 428 197.607 428H195.591C195.255 428 195.087 427.832 195.087 427.496V426.704H194.991C194.815 427.136 194.503 427.464 194.055 427.688C193.607 427.896 193.135 428 192.639 428ZM195.087 423.536V418.664C195.087 418.488 194.991 418.4 194.799 418.4H192.543C192.031 418.4 191.671 418.512 191.463 418.736C191.255 418.944 191.151 419.304 191.151 419.816V423.944C191.151 424.456 191.255 424.824 191.463 425.048C191.671 425.256 192.031 425.36 192.543 425.36H193.431C194.535 425.36 195.087 424.752 195.087 423.536ZM203.429 428H201.389C201.053 428 200.885 427.832 200.885 427.496V411.632C200.885 411.296 201.053 411.128 201.389 411.128H203.429C203.765 411.128 203.933 411.296 203.933 411.632V427.496C203.933 427.832 203.765 428 203.429 428ZM215.719 428H210.415C209.151 428 208.175 427.664 207.487 426.992C206.799 426.32 206.455 425.352 206.455 424.088V419.672C206.455 418.408 206.799 417.44 207.487 416.768C208.175 416.096 209.151 415.76 210.415 415.76H212.311C213.575 415.76 214.551 416.096 215.239 416.768C215.927 417.44 216.271 418.408 216.271 419.672V422.72C216.271 423.056 216.103 423.224 215.767 423.224H209.743C209.551 423.224 209.455 423.312 209.455 423.488V424.016C209.455 424.512 209.559 424.872 209.767 425.096C209.991 425.304 210.359 425.408 210.871 425.408H215.719C216.055 425.408 216.223 425.584 216.223 425.936V427.52C216.223 427.696 216.183 427.824 216.103 427.904C216.039 427.968 215.911 428 215.719 428ZM209.743 421.184H213.007C213.183 421.184 213.271 421.096 213.271 420.92V419.768C213.271 419.256 213.167 418.896 212.959 418.688C212.751 418.48 212.391 418.376 211.879 418.376H210.871C210.359 418.376 209.999 418.48 209.791 418.688C209.583 418.896 209.479 419.256 209.479 419.768V420.92C209.479 421.096 209.567 421.184 209.743 421.184ZM226.492 416.216V419.168C226.492 419.504 226.34 419.672 226.036 419.672H223.9C223.58 419.672 223.42 419.488 223.42 419.12V416.24C223.42 415.92 223.58 415.76 223.9 415.76H226.036C226.34 415.76 226.492 415.912 226.492 416.216ZM226.492 424.544V427.496C226.492 427.832 226.34 428 226.036 428H223.9C223.58 428 223.42 427.824 223.42 427.472V424.568C223.42 424.248 223.58 424.088 223.9 424.088H226.036C226.34 424.088 226.492 424.24 226.492 424.544ZM233.808 427.496V425.216C233.808 424.304 234.2 423.528 234.984 422.888L239.4 419.144C240.12 418.552 240.48 417.912 240.48 417.224V416.504C240.48 416.008 240.36 415.656 240.12 415.448C239.896 415.224 239.52 415.112 238.992 415.112H238.152C237.64 415.112 237.28 415.224 237.072 415.448C236.864 415.656 236.76 416.008 236.76 416.504V417.272C236.76 417.624 236.592 417.8 236.256 417.8H234.216C233.88 417.8 233.712 417.624 233.712 417.272V416.456C233.712 415.208 234.056 414.248 234.744 413.576C235.432 412.904 236.408 412.568 237.672 412.568H239.496C240.76 412.568 241.736 412.904 242.424 413.576C243.112 414.248 243.456 415.208 243.456 416.456V417.416C243.456 418.664 242.976 419.696 242.016 420.512L237.504 424.352C237.312 424.528 237.216 424.72 237.216 424.928V425.312H242.952C243.288 425.312 243.456 425.48 243.456 425.816V427.496C243.456 427.832 243.288 428 242.952 428H234.312C233.976 428 233.808 427.832 233.808 427.496ZM251.068 420.152H249.94C249.524 420.152 249.204 420.32 248.98 420.656C248.772 420.992 248.548 421.16 248.308 421.16H246.316C245.98 421.16 245.812 421 245.812 420.68V413.072C245.812 412.736 245.98 412.568 246.316 412.568H254.668C255.004 412.568 255.172 412.736 255.172 413.072V414.896C255.172 415.232 255.004 415.4 254.668 415.4H248.86V418.928C249.132 418.128 249.804 417.728 250.876 417.728H251.884C254.364 417.728 255.604 418.968 255.604 421.448V424.088C255.604 425.336 255.26 426.304 254.572 426.992C253.884 427.664 252.916 428 251.668 428H249.556C248.292 428 247.316 427.664 246.628 426.992C245.94 426.32 245.596 425.352 245.596 424.088V423.608C245.596 423.256 245.764 423.08 246.1 423.08H248.14C248.476 423.08 248.644 423.256 248.644 423.608V424.064C248.644 424.56 248.748 424.92 248.956 425.144C249.18 425.352 249.54 425.456 250.036 425.456H251.164C251.676 425.456 252.052 425.352 252.292 425.144C252.532 424.92 252.652 424.56 252.652 424.064V421.904C252.652 421.232 252.54 420.776 252.316 420.536C252.092 420.28 251.676 420.152 251.068 420.152ZM270.264 422.36H269.712C269.36 422.36 269.12 422.432 268.992 422.576C268.864 422.704 268.8 422.936 268.8 423.272V425.36C268.8 425.712 268.864 425.96 268.992 426.104C269.12 426.232 269.36 426.296 269.712 426.296H270.264C270.6 426.296 270.832 426.224 270.96 426.08C271.104 425.936 271.176 425.696 271.176 425.36V423.272C271.176 422.936 271.112 422.704 270.984 422.576C270.856 422.432 270.616 422.36 270.264 422.36ZM269.256 420.656H270.672C271.504 420.656 272.136 420.872 272.568 421.304C273 421.736 273.216 422.36 273.216 423.176V425.48C273.216 426.296 273 426.92 272.568 427.352C272.136 427.784 271.504 428 270.672 428H269.256C268.44 428 267.808 427.784 267.36 427.352C266.928 426.92 266.712 426.296 266.712 425.48V423.176C266.712 422.36 266.928 421.736 267.36 421.304C267.808 420.872 268.44 420.656 269.256 420.656ZM261.384 414.248H260.832C260.48 414.248 260.24 414.32 260.112 414.464C259.984 414.592 259.92 414.832 259.92 415.184V417.272C259.92 417.608 259.984 417.848 260.112 417.992C260.24 418.12 260.48 418.184 260.832 418.184H261.384C261.736 418.184 261.976 418.12 262.104 417.992C262.232 417.848 262.296 417.608 262.296 417.272V415.184C262.296 414.848 262.224 414.608 262.08 414.464C261.952 414.32 261.72 414.248 261.384 414.248ZM260.4 412.544H261.816C262.648 412.544 263.28 412.76 263.712 413.192C264.144 413.624 264.36 414.248 264.36 415.064V417.368C264.36 418.184 264.144 418.808 263.712 419.24C263.28 419.672 262.648 419.888 261.816 419.888H260.4C259.584 419.888 258.952 419.672 258.504 419.24C258.072 418.808 257.856 418.184 257.856 417.368V415.064C257.856 414.248 258.072 413.624 258.504 413.192C258.952 412.76 259.584 412.544 260.4 412.544ZM263.16 428H261.912C261.544 428 261.424 427.832 261.552 427.496C262.064 426.184 263.016 423.784 264.408 420.296C265.8 416.792 266.752 414.384 267.264 413.072C267.408 412.736 267.616 412.568 267.888 412.568H269.16C269.528 412.568 269.648 412.736 269.52 413.072L263.808 427.496C263.68 427.832 263.464 428 263.16 428Z" fill="white"/>
<path d="M9.97025 246H2.07425C1.73825 246 1.57025 245.832 1.57025 245.496V231.072C1.57025 230.736 1.73825 230.568 2.07425 230.568H4.11425C4.45025 230.568 4.61825 230.736 4.61825 231.072V243.072C4.61825 243.248 4.71425 243.336 4.90625 243.336H9.97025C10.2903 243.336 10.4503 243.512 10.4503 243.864V245.496C10.4503 245.832 10.2903 246 9.97025 246ZM12.2315 231.696V229.608C12.2315 229.288 12.3915 229.128 12.7115 229.128H14.7995C15.1195 229.128 15.2795 229.28 15.2795 229.584V231.696C15.2795 232.016 15.1195 232.176 14.7995 232.176H12.7115C12.3915 232.176 12.2315 232.016 12.2315 231.696ZM12.2315 245.496V234.264C12.2315 233.928 12.3915 233.76 12.7115 233.76H14.7755C15.1115 233.76 15.2795 233.928 15.2795 234.264V245.496C15.2795 245.704 15.2395 245.84 15.1595 245.904C15.0955 245.968 14.9755 246 14.7995 246H12.7355C12.3995 246 12.2315 245.832 12.2315 245.496ZM24.7852 241.512V236.664C24.7852 236.488 24.6892 236.4 24.4972 236.4H22.2412C21.7292 236.4 21.3692 236.512 21.1612 236.736C20.9532 236.944 20.8492 237.304 20.8492 237.816V241.944C20.8492 242.456 20.9532 242.824 21.1612 243.048C21.3692 243.256 21.7292 243.36 22.2412 243.36H23.1052C24.2252 243.36 24.7852 242.744 24.7852 241.512ZM22.3132 246H21.7612C20.4972 246 19.5212 245.664 18.8332 244.992C18.1452 244.32 17.8012 243.352 17.8012 242.088V237.672C17.8012 236.408 18.1452 235.44 18.8332 234.768C19.5212 234.096 20.4972 233.76 21.7612 233.76H27.3052C27.6572 233.76 27.8332 233.928 27.8332 234.264V248.784C27.8332 249.104 27.6572 249.264 27.3052 249.264H25.2892C24.9532 249.264 24.7852 249.104 24.7852 248.784V244.68H24.6892C24.3052 245.56 23.5132 246 22.3132 246ZM34.8791 246H34.0871C32.8551 246 31.9191 245.664 31.2791 244.992C30.6551 244.32 30.3431 243.352 30.3431 242.088V234.264C30.3431 233.928 30.5111 233.76 30.8471 233.76H32.8871C33.2231 233.76 33.3911 233.928 33.3911 234.264V241.944C33.3911 242.456 33.4951 242.824 33.7031 243.048C33.9271 243.256 34.2871 243.36 34.7831 243.36H35.6711C36.7751 243.36 37.3271 242.752 37.3271 241.536V234.264C37.3271 233.928 37.4951 233.76 37.8311 233.76H39.8471C40.1991 233.76 40.3751 233.928 40.3751 234.264V245.496C40.3751 245.832 40.1991 246 39.8471 246H37.8311C37.4951 246 37.3271 245.832 37.3271 245.496V244.704H37.2311C37.0551 245.136 36.7431 245.464 36.2951 245.688C35.8471 245.896 35.3751 246 34.8791 246ZM43.1456 231.696V229.608C43.1456 229.288 43.3056 229.128 43.6256 229.128H45.7136C46.0336 229.128 46.1936 229.28 46.1936 229.584V231.696C46.1936 232.016 46.0336 232.176 45.7136 232.176H43.6256C43.3056 232.176 43.1456 232.016 43.1456 231.696ZM43.1456 245.496V234.264C43.1456 233.928 43.3056 233.76 43.6256 233.76H45.6896C46.0256 233.76 46.1936 233.928 46.1936 234.264V245.496C46.1936 245.704 46.1536 245.84 46.0736 245.904C46.0096 245.968 45.8896 246 45.7136 246H43.6496C43.3136 246 43.1456 245.832 43.1456 245.496ZM53.4433 246H52.4593C51.2273 246 50.2913 245.664 49.6513 244.992C49.0273 244.32 48.7153 243.352 48.7153 242.088V237.672C48.7153 236.408 49.0273 235.44 49.6513 234.768C50.2913 234.096 51.2273 233.76 52.4593 233.76H53.4433C53.9393 233.76 54.4113 233.872 54.8593 234.096C55.3073 234.304 55.6193 234.624 55.7953 235.056H55.8913V229.632C55.8913 229.296 56.0593 229.128 56.3953 229.128H58.4353C58.7713 229.128 58.9393 229.296 58.9393 229.632V245.496C58.9393 245.832 58.7713 246 58.4353 246H56.3953C56.0593 246 55.8913 245.832 55.8913 245.496V244.704H55.7953C55.6193 245.136 55.3073 245.464 54.8593 245.688C54.4113 245.896 53.9393 246 53.4433 246ZM55.8913 241.536V238.224C55.8913 237.008 55.3393 236.4 54.2353 236.4H53.1553C52.6433 236.4 52.2833 236.512 52.0753 236.736C51.8673 236.944 51.7633 237.304 51.7633 237.816V241.944C51.7633 242.456 51.8673 242.824 52.0753 243.048C52.2833 243.256 52.6433 243.36 53.1553 243.36H54.2353C55.3393 243.36 55.8913 242.752 55.8913 241.536ZM61.7081 231.696V229.608C61.7081 229.288 61.8681 229.128 62.1881 229.128H64.2761C64.5961 229.128 64.7561 229.28 64.7561 229.584V231.696C64.7561 232.016 64.5961 232.176 64.2761 232.176H62.1881C61.8681 232.176 61.7081 232.016 61.7081 231.696ZM61.7081 245.496V234.264C61.7081 233.928 61.8681 233.76 62.1881 233.76H64.2521C64.5881 233.76 64.7561 233.928 64.7561 234.264V245.496C64.7561 245.704 64.7161 245.84 64.6361 245.904C64.5721 245.968 64.4521 246 64.2761 246H62.2121C61.8761 246 61.7081 245.832 61.7081 245.496ZM67.7818 236.4H66.8218C66.6298 236.4 66.4938 236.368 66.4138 236.304C66.3498 236.24 66.3178 236.112 66.3178 235.92V234.264C66.3178 233.928 66.4858 233.76 66.8218 233.76H67.7818C67.9578 233.76 68.0458 233.672 68.0458 233.496V231.216C68.0458 230.88 68.2218 230.712 68.5738 230.712H70.5898C70.9258 230.712 71.0938 230.88 71.0938 231.216V233.496C71.0938 233.672 71.1898 233.76 71.3818 233.76H73.2538C73.5898 233.76 73.7578 233.928 73.7578 234.264V235.92C73.7578 236.096 73.7178 236.224 73.6378 236.304C73.5738 236.368 73.4458 236.4 73.2538 236.4H71.3818C71.1898 236.4 71.0938 236.488 71.0938 236.664V241.968C71.0938 242.464 71.2058 242.824 71.4298 243.048C71.6538 243.256 72.0218 243.36 72.5338 243.36H73.4938C73.8298 243.36 73.9978 243.528 73.9978 243.864V245.52C73.9978 245.696 73.9578 245.824 73.8778 245.904C73.8138 245.968 73.6858 246 73.4938 246H72.0298C70.7658 246 69.7818 245.664 69.0778 244.992C68.3898 244.32 68.0458 243.36 68.0458 242.112V236.664C68.0458 236.488 67.9578 236.4 67.7818 236.4ZM77.9707 250.056H76.4347C76.1147 250.056 75.9547 249.88 75.9547 249.528V247.92C75.9547 247.568 76.1147 247.392 76.4347 247.392H76.9387C77.9467 247.392 78.6267 247.248 78.9787 246.96C79.3467 246.688 79.6267 246.152 79.8187 245.352H78.5467C78.2427 245.352 78.0427 245.184 77.9467 244.848L75.1387 234.264C75.0427 233.928 75.1627 233.76 75.4987 233.76H77.6347C77.9547 233.76 78.1547 233.928 78.2347 234.264L80.2987 243.12H80.3947L82.4347 234.264C82.4987 233.928 82.6987 233.76 83.0347 233.76H85.0507C85.4507 233.76 85.6107 233.936 85.5307 234.288L82.6027 246C82.2507 247.328 81.7067 248.336 80.9707 249.024C80.2347 249.712 79.2347 250.056 77.9707 250.056ZM95.213 234.216V237.168C95.213 237.504 95.061 237.672 94.757 237.672H92.621C92.301 237.672 92.141 237.488 92.141 237.12V234.24C92.141 233.92 92.301 233.76 92.621 233.76H94.757C95.061 233.76 95.213 233.912 95.213 234.216ZM95.213 242.544V245.496C95.213 245.832 95.061 246 94.757 246H92.621C92.301 246 92.141 245.824 92.141 245.472V242.568C92.141 242.248 92.301 242.088 92.621 242.088H94.757C95.061 242.088 95.213 242.24 95.213 242.544ZM105.385 234.216V237.168C105.385 237.504 105.233 237.672 104.929 237.672H102.793C102.473 237.672 102.313 237.488 102.313 237.12V234.24C102.313 233.92 102.473 233.76 102.793 233.76H104.929C105.233 233.76 105.385 233.912 105.385 234.216ZM105.385 242.544V245.496C105.385 245.832 105.233 246 104.929 246H102.793C102.473 246 102.313 245.824 102.313 245.472V242.568C102.313 242.248 102.473 242.088 102.793 242.088H104.929C105.233 242.088 105.385 242.24 105.385 242.544ZM112.701 245.496V243.216C112.701 242.304 113.093 241.528 113.877 240.888L118.293 237.144C119.013 236.552 119.373 235.912 119.373 235.224V234.504C119.373 234.008 119.253 233.656 119.013 233.448C118.789 233.224 118.413 233.112 117.885 233.112H117.045C116.533 233.112 116.173 233.224 115.965 233.448C115.757 233.656 115.653 234.008 115.653 234.504V235.272C115.653 235.624 115.485 235.8 115.149 235.8H113.109C112.773 235.8 112.605 235.624 112.605 235.272V234.456C112.605 233.208 112.949 232.248 113.637 231.576C114.325 230.904 115.301 230.568 116.565 230.568H118.389C119.653 230.568 120.629 230.904 121.317 231.576C122.005 232.248 122.349 233.208 122.349 234.456V235.416C122.349 236.664 121.869 237.696 120.909 238.512L116.397 242.352C116.205 242.528 116.109 242.72 116.109 242.928V243.312H121.845C122.181 243.312 122.349 243.48 122.349 243.816V245.496C122.349 245.832 122.181 246 121.845 246H113.205C112.869 246 112.701 245.832 112.701 245.496ZM129.961 238.152H128.833C128.417 238.152 128.097 238.32 127.873 238.656C127.665 238.992 127.441 239.16 127.201 239.16H125.209C124.873 239.16 124.705 239 124.705 238.68V231.072C124.705 230.736 124.873 230.568 125.209 230.568H133.561C133.897 230.568 134.065 230.736 134.065 231.072V232.896C134.065 233.232 133.897 233.4 133.561 233.4H127.753V236.928C128.025 236.128 128.697 235.728 129.769 235.728H130.777C133.257 235.728 134.497 236.968 134.497 239.448V242.088C134.497 243.336 134.153 244.304 133.465 244.992C132.777 245.664 131.809 246 130.561 246H128.449C127.185 246 126.209 245.664 125.521 244.992C124.833 244.32 124.489 243.352 124.489 242.088V241.608C124.489 241.256 124.657 241.08 124.993 241.08H127.033C127.369 241.08 127.537 241.256 127.537 241.608V242.064C127.537 242.56 127.641 242.92 127.849 243.144C128.073 243.352 128.433 243.456 128.929 243.456H130.057C130.569 243.456 130.945 243.352 131.185 243.144C131.425 242.92 131.545 242.56 131.545 242.064V239.904C131.545 239.232 131.433 238.776 131.209 238.536C130.985 238.28 130.569 238.152 129.961 238.152ZM149.157 240.36H148.605C148.253 240.36 148.013 240.432 147.885 240.576C147.757 240.704 147.693 240.936 147.693 241.272V243.36C147.693 243.712 147.757 243.96 147.885 244.104C148.013 244.232 148.253 244.296 148.605 244.296H149.157C149.493 244.296 149.725 244.224 149.853 244.08C149.997 243.936 150.069 243.696 150.069 243.36V241.272C150.069 240.936 150.005 240.704 149.877 240.576C149.749 240.432 149.509 240.36 149.157 240.36ZM148.149 238.656H149.565C150.397 238.656 151.029 238.872 151.461 239.304C151.893 239.736 152.109 240.36 152.109 241.176V243.48C152.109 244.296 151.893 244.92 151.461 245.352C151.029 245.784 150.397 246 149.565 246H148.149C147.333 246 146.701 245.784 146.253 245.352C145.821 244.92 145.605 244.296 145.605 243.48V241.176C145.605 240.36 145.821 239.736 146.253 239.304C146.701 238.872 147.333 238.656 148.149 238.656ZM140.277 232.248H139.725C139.373 232.248 139.133 232.32 139.005 232.464C138.877 232.592 138.813 232.832 138.813 233.184V235.272C138.813 235.608 138.877 235.848 139.005 235.992C139.133 236.12 139.373 236.184 139.725 236.184H140.277C140.629 236.184 140.869 236.12 140.997 235.992C141.125 235.848 141.189 235.608 141.189 235.272V233.184C141.189 232.848 141.117 232.608 140.973 232.464C140.845 232.32 140.613 232.248 140.277 232.248ZM139.293 230.544H140.709C141.541 230.544 142.173 230.76 142.605 231.192C143.037 231.624 143.253 232.248 143.253 233.064V235.368C143.253 236.184 143.037 236.808 142.605 237.24C142.173 237.672 141.541 237.888 140.709 237.888H139.293C138.477 237.888 137.845 237.672 137.397 237.24C136.965 236.808 136.749 236.184 136.749 235.368V233.064C136.749 232.248 136.965 231.624 137.397 231.192C137.845 230.76 138.477 230.544 139.293 230.544ZM142.053 246H140.805C140.437 246 140.317 245.832 140.445 245.496C140.957 244.184 141.909 241.784 143.301 238.296C144.693 234.792 145.645 232.384 146.157 231.072C146.301 230.736 146.509 230.568 146.781 230.568H148.053C148.421 230.568 148.541 230.736 148.413 231.072L142.701 245.496C142.573 245.832 142.357 246 142.053 246Z" fill="white"/>
<path d="M779.104 186H777.064C776.728 186 776.56 185.832 776.56 185.496V171.072C776.56 170.736 776.728 170.568 777.064 170.568H782.92C784.168 170.568 785.136 170.912 785.824 171.6C786.512 172.272 786.856 173.232 786.856 174.48V176.784C786.856 178.032 786.512 179 785.824 179.688C785.136 180.36 784.168 180.696 782.92 180.696H779.896C779.704 180.696 779.608 180.784 779.608 180.96V185.496C779.608 185.832 779.44 186 779.104 186ZM779.872 178.032H782.416C782.928 178.032 783.288 177.928 783.496 177.72C783.704 177.496 783.808 177.136 783.808 176.64V174.624C783.808 174.112 783.704 173.752 783.496 173.544C783.288 173.32 782.928 173.208 782.416 173.208H779.872C779.696 173.208 779.608 173.296 779.608 173.472V177.768C779.608 177.944 779.696 178.032 779.872 178.032ZM791.711 186H789.671C789.335 186 789.167 185.832 789.167 185.496V169.632C789.167 169.296 789.335 169.128 789.671 169.128H791.711C792.047 169.128 792.215 169.296 792.215 169.632V185.496C792.215 185.832 792.047 186 791.711 186ZM799.272 186H798.696C797.432 186 796.456 185.664 795.768 184.992C795.08 184.32 794.736 183.352 794.736 182.088V177.672C794.736 176.408 795.08 175.44 795.768 174.768C796.456 174.096 797.432 173.76 798.696 173.76H804.24C804.592 173.76 804.768 173.928 804.768 174.264V185.496C804.768 185.832 804.592 186 804.24 186H802.224C801.888 186 801.72 185.832 801.72 185.496V184.704H801.624C801.448 185.136 801.136 185.464 800.688 185.688C800.24 185.896 799.768 186 799.272 186ZM801.72 181.536V176.664C801.72 176.488 801.624 176.4 801.432 176.4H799.176C798.664 176.4 798.304 176.512 798.096 176.736C797.888 176.944 797.784 177.304 797.784 177.816V181.944C797.784 182.456 797.888 182.824 798.096 183.048C798.304 183.256 798.664 183.36 799.176 183.36H800.064C801.168 183.36 801.72 182.752 801.72 181.536ZM809.39 190.056H807.854C807.534 190.056 807.374 189.88 807.374 189.528V187.92C807.374 187.568 807.534 187.392 807.854 187.392H808.358C809.366 187.392 810.046 187.248 810.398 186.96C810.766 186.688 811.046 186.152 811.238 185.352H809.966C809.662 185.352 809.462 185.184 809.366 184.848L806.558 174.264C806.462 173.928 806.582 173.76 806.918 173.76H809.054C809.374 173.76 809.574 173.928 809.654 174.264L811.718 183.12H811.814L813.854 174.264C813.918 173.928 814.118 173.76 814.454 173.76H816.47C816.87 173.76 817.03 173.936 816.95 174.288L814.022 186C813.67 187.328 813.126 188.336 812.39 189.024C811.654 189.712 810.654 190.056 809.39 190.056ZM828.672 179.568H824.112C823.776 179.568 823.608 179.4 823.608 179.064V177.648C823.608 177.296 823.776 177.12 824.112 177.12H828.672C829.008 177.12 829.176 177.296 829.176 177.648V179.064C829.176 179.4 829.008 179.568 828.672 179.568ZM836.982 176.4H836.022C835.83 176.4 835.694 176.368 835.614 176.304C835.55 176.24 835.518 176.112 835.518 175.92V174.264C835.518 173.928 835.686 173.76 836.022 173.76H836.982C837.158 173.76 837.246 173.672 837.246 173.496V171.216C837.246 170.88 837.422 170.712 837.774 170.712H839.79C840.126 170.712 840.294 170.88 840.294 171.216V173.496C840.294 173.672 840.39 173.76 840.582 173.76H842.454C842.79 173.76 842.958 173.928 842.958 174.264V175.92C842.958 176.096 842.918 176.224 842.838 176.304C842.774 176.368 842.646 176.4 842.454 176.4H840.582C840.39 176.4 840.294 176.488 840.294 176.664V181.968C840.294 182.464 840.406 182.824 840.63 183.048C840.854 183.256 841.222 183.36 841.734 183.36H842.694C843.03 183.36 843.198 183.528 843.198 183.864V185.52C843.198 185.696 843.158 185.824 843.078 185.904C843.014 185.968 842.886 186 842.694 186H841.23C839.966 186 838.982 185.664 838.278 184.992C837.59 184.32 837.246 183.36 837.246 182.112V176.664C837.246 176.488 837.158 176.4 836.982 176.4ZM851.035 186H848.899C847.635 186 846.659 185.664 845.971 184.992C845.283 184.32 844.939 183.352 844.939 182.088V177.672C844.939 176.408 845.283 175.44 845.971 174.768C846.659 174.096 847.635 173.76 848.899 173.76H851.035C852.283 173.76 853.251 174.104 853.939 174.792C854.643 175.464 854.995 176.424 854.995 177.672V182.088C854.995 183.336 854.643 184.304 853.939 184.992C853.251 185.664 852.283 186 851.035 186ZM849.355 183.384H850.579C851.091 183.384 851.451 183.28 851.659 183.072C851.883 182.864 851.995 182.504 851.995 181.992V177.768C851.995 177.256 851.883 176.896 851.659 176.688C851.451 176.48 851.091 176.376 850.579 176.376H849.355C848.843 176.376 848.483 176.48 848.275 176.688C848.067 176.896 847.963 177.256 847.963 177.768V181.992C847.963 182.504 848.067 182.864 848.275 183.072C848.483 183.28 848.843 183.384 849.355 183.384ZM867.368 179.568H862.808C862.472 179.568 862.304 179.4 862.304 179.064V177.648C862.304 177.296 862.472 177.12 862.808 177.12H867.368C867.704 177.12 867.872 177.296 867.872 177.648V179.064C867.872 179.4 867.704 179.568 867.368 179.568ZM884.006 186H876.158C875.822 186 875.654 185.832 875.654 185.496V171.072C875.654 170.736 875.822 170.568 876.158 170.568H884.006C884.326 170.568 884.486 170.736 884.486 171.072V172.704C884.486 173.04 884.326 173.208 884.006 173.208H878.99C878.798 173.208 878.702 173.296 878.702 173.472V176.592C878.702 176.768 878.798 176.856 878.99 176.856H883.094C883.43 176.856 883.598 177.024 883.598 177.36V178.992C883.598 179.328 883.43 179.496 883.094 179.496H878.99C878.798 179.496 878.702 179.584 878.702 179.76V183.096C878.702 183.272 878.798 183.36 878.99 183.36H884.006C884.326 183.36 884.486 183.528 884.486 183.864V185.496C884.486 185.832 884.326 186 884.006 186ZM891.194 186H890.618C889.354 186 888.378 185.664 887.69 184.992C887.002 184.32 886.658 183.352 886.658 182.088V177.672C886.658 176.408 887.002 175.44 887.69 174.768C888.378 174.096 889.354 173.76 890.618 173.76H896.162C896.514 173.76 896.69 173.928 896.69 174.264V185.496C896.69 185.832 896.514 186 896.162 186H894.146C893.81 186 893.642 185.832 893.642 185.496V184.704H893.546C893.37 185.136 893.058 185.464 892.61 185.688C892.162 185.896 891.69 186 891.194 186ZM893.642 181.536V176.664C893.642 176.488 893.546 176.4 893.354 176.4H891.098C890.586 176.4 890.226 176.512 890.018 176.736C889.81 176.944 889.706 177.304 889.706 177.816V181.944C889.706 182.456 889.81 182.824 890.018 183.048C890.226 183.256 890.586 183.36 891.098 183.36H891.986C893.09 183.36 893.642 182.752 893.642 181.536ZM901.864 186H899.824C899.488 186 899.32 185.832 899.32 185.496V174.264C899.32 173.928 899.488 173.76 899.824 173.76H901.864C902.2 173.76 902.368 173.928 902.368 174.264V175.08H902.464C902.64 174.648 902.952 174.32 903.4 174.096C903.848 173.872 904.32 173.76 904.816 173.76H905.68C906 173.76 906.16 173.928 906.16 174.264V175.92C906.16 176.112 906.12 176.248 906.04 176.328C905.976 176.392 905.856 176.416 905.68 176.4H904.024C902.92 176.4 902.368 177.024 902.368 178.272V185.496C902.368 185.832 902.2 186 901.864 186ZM910.231 186H908.191C907.855 186 907.687 185.832 907.687 185.496V174.264C907.687 173.928 907.855 173.76 908.191 173.76H910.231C910.567 173.76 910.735 173.928 910.735 174.264V175.056H910.831C911.183 174.192 911.967 173.76 913.183 173.76H913.951C916.463 173.76 917.719 175.064 917.719 177.672V185.496C917.719 185.832 917.543 186 917.191 186H915.175C914.839 186 914.671 185.832 914.671 185.496V177.816C914.671 177.304 914.559 176.944 914.335 176.736C914.127 176.512 913.767 176.4 913.255 176.4H912.391C911.287 176.4 910.735 177.008 910.735 178.224V185.496C910.735 185.832 910.567 186 910.231 186ZM922.914 174.216V177.168C922.914 177.504 922.762 177.672 922.458 177.672H920.322C920.002 177.672 919.842 177.488 919.842 177.12V174.24C919.842 173.92 920.002 173.76 920.322 173.76H922.458C922.762 173.76 922.914 173.912 922.914 174.216ZM922.914 182.544V185.496C922.914 185.832 922.762 186 922.458 186H920.322C920.002 186 919.842 185.824 919.842 185.472V182.568C919.842 182.248 920.002 182.088 920.322 182.088H922.458C922.762 182.088 922.914 182.24 922.914 182.544ZM936.734 180.552V173.136L932.846 180.552H936.734ZM939.11 186H937.238C936.902 186 936.734 185.832 936.734 185.496V183.192H930.782C930.51 183.192 930.294 183.112 930.134 182.952C929.974 182.792 929.894 182.576 929.894 182.304V181.368C929.894 180.888 929.974 180.496 930.134 180.192L934.91 171.312C935.07 171.024 935.214 170.832 935.342 170.736C935.486 170.624 935.694 170.568 935.966 170.568H938.678C938.95 170.568 939.166 170.648 939.326 170.808C939.502 170.968 939.59 171.184 939.59 171.456V180.552H941.318C941.638 180.552 941.798 180.712 941.798 181.032V182.64C941.798 183.008 941.638 183.192 941.318 183.192H939.59V185.496C939.59 185.688 939.55 185.824 939.47 185.904C939.406 185.968 939.286 186 939.11 186ZM947.342 177.024H948.566C949.094 177.024 949.47 176.92 949.694 176.712C949.934 176.488 950.054 176.128 950.054 175.632V174.504C950.054 174.008 949.934 173.656 949.694 173.448C949.47 173.224 949.094 173.112 948.566 173.112H947.414C946.902 173.112 946.542 173.224 946.334 173.448C946.126 173.656 946.022 174.008 946.022 174.504V175.104C946.022 175.44 945.854 175.608 945.518 175.608H943.478C943.142 175.608 942.974 175.44 942.974 175.104V174.456C942.974 173.208 943.318 172.248 944.006 171.576C944.694 170.904 945.67 170.568 946.934 170.568H949.07C950.334 170.568 951.31 170.904 951.998 171.576C952.686 172.248 953.03 173.208 953.03 174.456V175.656C953.03 177 952.398 177.872 951.134 178.272C952.398 178.544 953.03 179.416 953.03 180.888V182.112C953.03 183.36 952.686 184.32 951.998 184.992C951.31 185.664 950.334 186 949.07 186H946.934C945.67 186 944.694 185.664 944.006 184.992C943.318 184.32 942.974 183.36 942.974 182.112V181.44C942.974 181.088 943.142 180.912 943.478 180.912H945.518C945.854 180.912 946.022 181.088 946.022 181.44V182.064C946.022 182.576 946.126 182.936 946.334 183.144C946.542 183.352 946.902 183.456 947.414 183.456H948.566C949.094 183.456 949.47 183.352 949.694 183.144C949.934 182.92 950.054 182.56 950.054 182.064V180.888C950.054 180.392 949.934 180.04 949.694 179.832C949.47 179.608 949.094 179.496 948.566 179.496H947.342C947.006 179.496 946.838 179.328 946.838 178.992V177.552C946.838 177.2 947.006 177.024 947.342 177.024ZM967.905 180.36H967.353C967.001 180.36 966.761 180.432 966.633 180.576C966.505 180.704 966.441 180.936 966.441 181.272V183.36C966.441 183.712 966.505 183.96 966.633 184.104C966.761 184.232 967.001 184.296 967.353 184.296H967.905C968.241 184.296 968.473 184.224 968.601 184.08C968.745 183.936 968.817 183.696 968.817 183.36V181.272C968.817 180.936 968.753 180.704 968.625 180.576C968.497 180.432 968.257 180.36 967.905 180.36ZM966.897 178.656H968.313C969.145 178.656 969.777 178.872 970.209 179.304C970.641 179.736 970.857 180.36 970.857 181.176V183.48C970.857 184.296 970.641 184.92 970.209 185.352C969.777 185.784 969.145 186 968.313 186H966.897C966.081 186 965.449 185.784 965.001 185.352C964.569 184.92 964.353 184.296 964.353 183.48V181.176C964.353 180.36 964.569 179.736 965.001 179.304C965.449 178.872 966.081 178.656 966.897 178.656ZM959.025 172.248H958.473C958.121 172.248 957.881 172.32 957.753 172.464C957.625 172.592 957.561 172.832 957.561 173.184V175.272C957.561 175.608 957.625 175.848 957.753 175.992C957.881 176.12 958.121 176.184 958.473 176.184H959.025C959.377 176.184 959.617 176.12 959.745 175.992C959.873 175.848 959.937 175.608 959.937 175.272V173.184C959.937 172.848 959.865 172.608 959.721 172.464C959.593 172.32 959.361 172.248 959.025 172.248ZM958.041 170.544H959.457C960.289 170.544 960.921 170.76 961.353 171.192C961.785 171.624 962.001 172.248 962.001 173.064V175.368C962.001 176.184 961.785 176.808 961.353 177.24C960.921 177.672 960.289 177.888 959.457 177.888H958.041C957.225 177.888 956.593 177.672 956.145 177.24C955.713 176.808 955.497 176.184 955.497 175.368V173.064C955.497 172.248 955.713 171.624 956.145 171.192C956.593 170.76 957.225 170.544 958.041 170.544ZM960.801 186H959.553C959.185 186 959.065 185.832 959.193 185.496C959.705 184.184 960.657 181.784 962.049 178.296C963.441 174.792 964.393 172.384 964.905 171.072C965.049 170.736 965.257 170.568 965.529 170.568H966.801C967.169 170.568 967.289 170.736 967.161 171.072L961.449 185.496C961.321 185.832 961.105 186 960.801 186Z" fill="white"/>
<path d="M779.456 210.856V211.208C779.456 211.315 779.397 211.368 779.28 211.368H779.232C778.72 211.368 778.325 211.523 778.048 211.832C777.771 212.131 777.632 212.563 777.632 213.128V220.216C777.632 220.781 777.771 221.213 778.048 221.512C778.325 221.821 778.72 221.976 779.232 221.976H779.28C779.397 221.976 779.456 222.029 779.456 222.136V222.488C779.456 222.584 779.397 222.632 779.28 222.632H779.232C778.517 222.632 777.947 222.413 777.52 221.976C777.104 221.549 776.896 220.947 776.896 220.168V213.176C776.896 212.397 777.104 211.795 777.52 211.368C777.947 210.931 778.517 210.712 779.232 210.712H779.296C779.403 210.712 779.456 210.76 779.456 210.856ZM793.549 210.712H794.413C794.52 210.712 794.573 210.776 794.573 210.904V220.808C794.573 220.936 794.52 221 794.413 221H793.949C793.832 221 793.773 220.936 793.773 220.808V211.944H793.709L790.877 218.584C790.813 218.701 790.733 218.76 790.637 218.76H790.109C790.002 218.76 789.928 218.701 789.885 218.584L787.005 211.928H786.941V220.808C786.941 220.936 786.888 221 786.781 221H786.317C786.21 221 786.157 220.936 786.157 220.808V210.904C786.157 210.776 786.21 210.712 786.317 210.712H787.181C787.256 210.712 787.304 210.744 787.325 210.808L790.333 217.832H790.397L793.405 210.808C793.426 210.744 793.474 210.712 793.549 210.712ZM800.594 221H799.218C798.524 221 797.975 220.797 797.57 220.392C797.175 219.987 796.978 219.432 796.978 218.728V215.112C796.978 214.408 797.175 213.853 797.57 213.448C797.975 213.043 798.524 212.84 799.218 212.84H800.594C801.287 212.84 801.836 213.043 802.242 213.448C802.647 213.853 802.85 214.408 802.85 215.112V218.728C802.85 219.432 802.647 219.987 802.242 220.392C801.836 220.797 801.287 221 800.594 221ZM799.282 220.28H800.53C801.02 220.28 801.394 220.147 801.65 219.88C801.916 219.603 802.05 219.213 802.05 218.712V215.128C802.05 214.627 801.916 214.243 801.65 213.976C801.394 213.699 801.02 213.56 800.53 213.56H799.282C798.791 213.56 798.418 213.699 798.162 213.976C797.906 214.243 797.778 214.627 797.778 215.128V218.712C797.778 219.213 797.906 219.603 798.162 219.88C798.418 220.147 798.791 220.28 799.282 220.28ZM805.699 221H805.235C805.128 221 805.075 220.936 805.075 220.808V213.032C805.075 212.904 805.128 212.84 805.235 212.84H805.699C805.816 212.84 805.875 212.904 805.875 213.032V213.672H805.939C806.238 213.117 806.792 212.84 807.603 212.84H808.659C809.342 212.84 809.88 213.043 810.275 213.448C810.67 213.853 810.867 214.408 810.867 215.112V220.808C810.867 220.936 810.814 221 810.707 221H810.243C810.126 221 810.067 220.936 810.067 220.808V215.144C810.067 214.643 809.939 214.253 809.683 213.976C809.427 213.699 809.054 213.56 808.563 213.56H807.523C807.011 213.56 806.606 213.699 806.307 213.976C806.019 214.243 805.875 214.627 805.875 215.128V220.808C805.875 220.936 805.816 221 805.699 221ZM815.824 221H813.04C812.923 221 812.864 220.941 812.864 220.824V220.456C812.864 220.349 812.923 220.296 813.04 220.296H815.744C816.704 220.296 817.184 219.923 817.184 219.176V218.792C817.184 218.099 816.886 217.645 816.288 217.432L814.288 216.664C813.744 216.451 813.355 216.2 813.12 215.912C812.896 215.624 812.784 215.224 812.784 214.712C812.784 213.464 813.472 212.84 814.848 212.84H817.44C817.558 212.84 817.616 212.899 817.616 213.016V213.384C817.616 213.491 817.558 213.544 817.44 213.544H814.928C814.491 213.544 814.16 213.64 813.936 213.832C813.723 214.024 813.616 214.248 813.616 214.504V214.872C813.616 215.171 813.696 215.405 813.856 215.576C814.027 215.747 814.283 215.891 814.624 216.008L816.624 216.808C817.179 216.989 817.547 217.261 817.728 217.624C817.92 217.976 818.016 218.472 818.016 219.112C818.016 219.752 817.835 220.227 817.472 220.536C817.12 220.845 816.571 221 815.824 221ZM820.427 213.56H819.451C819.334 213.56 819.275 213.507 819.275 213.4V213.016C819.275 212.899 819.334 212.84 819.451 212.84H820.427C820.523 212.84 820.571 212.792 820.571 212.696V211.4C820.571 211.272 820.63 211.208 820.747 211.208H821.211C821.328 211.208 821.387 211.272 821.387 211.4V212.696C821.387 212.792 821.435 212.84 821.531 212.84H823.435C823.552 212.84 823.611 212.899 823.611 213.016V213.4C823.611 213.507 823.552 213.56 823.435 213.56H821.531C821.435 213.56 821.387 213.608 821.387 213.704V218.744C821.387 219.235 821.526 219.613 821.803 219.88C822.08 220.147 822.47 220.28 822.971 220.28H823.595C823.712 220.28 823.771 220.339 823.771 220.456V220.824C823.771 220.941 823.712 221 823.595 221H822.907C822.203 221 821.638 220.803 821.211 220.408C820.784 220.013 820.571 219.469 820.571 218.776V213.704C820.571 213.608 820.523 213.56 820.427 213.56ZM831.046 221H827.702C827.009 221 826.459 220.797 826.054 220.392C825.659 219.987 825.462 219.432 825.462 218.728V215.112C825.462 214.408 825.659 213.853 826.054 213.448C826.459 213.043 827.009 212.84 827.702 212.84H829.078C829.771 212.84 830.321 213.043 830.726 213.448C831.131 213.853 831.334 214.408 831.334 215.112V217.144C831.334 217.272 831.27 217.336 831.142 217.336H826.406C826.31 217.336 826.262 217.384 826.262 217.48V218.712C826.262 219.213 826.39 219.603 826.646 219.88C826.902 220.147 827.275 220.28 827.766 220.28H831.046C831.163 220.28 831.222 220.339 831.222 220.456V220.824C831.222 220.941 831.163 221 831.046 221ZM826.406 216.696H830.39C830.486 216.696 830.534 216.648 830.534 216.552V215.128C830.534 214.627 830.406 214.243 830.15 213.976C829.894 213.699 829.521 213.56 829.03 213.56H827.766C827.275 213.56 826.902 213.699 826.646 213.976C826.39 214.243 826.262 214.627 826.262 215.128V216.552C826.262 216.648 826.31 216.696 826.406 216.696ZM834.121 221H833.657C833.55 221 833.497 220.936 833.497 220.808V213.032C833.497 212.904 833.55 212.84 833.657 212.84H834.121C834.238 212.84 834.297 212.904 834.297 213.032V213.704H834.361C834.478 213.48 834.686 213.283 834.985 213.112C835.284 212.931 835.652 212.84 836.089 212.84H836.713C836.83 212.84 836.889 212.899 836.889 213.016V213.4C836.889 213.517 836.83 213.571 836.713 213.56H835.961C835.438 213.56 835.028 213.72 834.729 214.04C834.441 214.36 834.297 214.792 834.297 215.336V220.808C834.297 220.936 834.238 221 834.121 221ZM841.153 221H838.368C838.251 221 838.193 220.941 838.193 220.824V220.456C838.193 220.349 838.251 220.296 838.368 220.296H841.073C842.033 220.296 842.513 219.923 842.513 219.176V218.792C842.513 218.099 842.214 217.645 841.617 217.432L839.617 216.664C839.073 216.451 838.683 216.2 838.449 215.912C838.225 215.624 838.113 215.224 838.113 214.712C838.113 213.464 838.801 212.84 840.177 212.84H842.769C842.886 212.84 842.945 212.899 842.945 213.016V213.384C842.945 213.491 842.886 213.544 842.769 213.544H840.257C839.819 213.544 839.489 213.64 839.265 213.832C839.051 214.024 838.945 214.248 838.945 214.504V214.872C838.945 215.171 839.025 215.405 839.185 215.576C839.355 215.747 839.611 215.891 839.953 216.008L841.953 216.808C842.507 216.989 842.875 217.261 843.057 217.624C843.249 217.976 843.345 218.472 843.345 219.112C843.345 219.752 843.163 220.227 842.801 220.536C842.449 220.845 841.899 221 841.153 221ZM850.437 213.016V214.936C850.437 215.053 850.383 215.112 850.277 215.112H849.717C849.599 215.112 849.541 215.053 849.541 214.936V213.016C849.541 212.899 849.599 212.84 849.717 212.84H850.277C850.383 212.84 850.437 212.899 850.437 213.016ZM850.437 218.904V220.808C850.437 220.936 850.383 221 850.277 221H849.717C849.599 221 849.541 220.936 849.541 220.808V218.904C849.541 218.787 849.599 218.728 849.717 218.728H850.277C850.383 218.728 850.437 218.787 850.437 218.904ZM856.373 212.648V212.296C856.373 212.157 856.437 212.045 856.565 211.96L858.581 210.824C858.688 210.749 858.8 210.712 858.917 210.712H859.333C859.45 210.712 859.509 210.776 859.509 210.904V220.808C859.509 220.936 859.45 221 859.333 221H858.869C858.762 221 858.709 220.936 858.709 220.808V211.576L856.645 212.744C856.464 212.861 856.373 212.829 856.373 212.648ZM866.491 218.184V211.352L862.459 218.184H866.491ZM867.099 221H866.667C866.55 221 866.491 220.936 866.491 220.808V218.904H861.851C861.691 218.904 861.611 218.829 861.611 218.68V218.392C861.611 218.296 861.648 218.173 861.723 218.024L865.915 210.952C866.011 210.792 866.139 210.712 866.299 210.712H867.051C867.2 210.712 867.275 210.792 867.275 210.952V218.184H868.475C868.592 218.184 868.651 218.237 868.651 218.344V218.728C868.651 218.845 868.592 218.904 868.475 218.904H867.275V220.808C867.275 220.936 867.216 221 867.099 221ZM877.988 216.856H877.7C877.23 216.856 876.905 216.957 876.724 217.16C876.553 217.352 876.468 217.693 876.468 218.184V219.08C876.468 219.56 876.558 219.901 876.74 220.104C876.921 220.307 877.241 220.408 877.7 220.408H877.988C878.446 220.408 878.761 220.307 878.932 220.104C879.113 219.901 879.204 219.56 879.204 219.08V218.184C879.204 217.693 879.113 217.352 878.932 217.16C878.761 216.957 878.446 216.856 877.988 216.856ZM877.635 216.264H878.036C878.665 216.264 879.124 216.419 879.412 216.728C879.71 217.037 879.86 217.512 879.86 218.152V219.112C879.86 220.371 879.252 221 878.036 221H877.635C876.409 221 875.796 220.371 875.796 219.112V218.152C875.796 216.893 876.409 216.264 877.635 216.264ZM872.164 211.24H871.876C871.417 211.24 871.097 211.341 870.916 211.544C870.745 211.736 870.66 212.072 870.66 212.552V213.464C870.66 213.944 870.745 214.285 870.916 214.488C871.097 214.691 871.417 214.792 871.876 214.792H872.164C872.622 214.792 872.937 214.691 873.108 214.488C873.289 214.285 873.38 213.944 873.38 213.464V212.552C873.38 212.072 873.289 211.736 873.108 211.544C872.937 211.341 872.622 211.24 872.164 211.24ZM871.828 210.648H872.228C873.444 210.648 874.052 211.272 874.052 212.52V213.48C874.052 214.749 873.444 215.384 872.228 215.384H871.828C870.601 215.384 869.988 214.749 869.988 213.48V212.52C869.988 211.272 870.601 210.648 871.828 210.648ZM872.868 221H872.564C872.436 221 872.404 220.915 872.468 220.744C872.532 220.573 873.236 218.941 874.58 215.848C875.934 212.744 876.649 211.101 876.724 210.92C876.798 210.781 876.884 210.712 876.98 210.712H877.284C877.433 210.712 877.465 210.792 877.38 210.952L873.124 220.792C873.06 220.931 872.974 221 872.868 221ZM885.818 222.488V222.136C885.818 222.029 885.882 221.976 886.01 221.976H886.058C886.57 221.976 886.965 221.821 887.242 221.512C887.519 221.213 887.658 220.781 887.658 220.216V213.128C887.658 212.563 887.519 212.131 887.242 211.832C886.965 211.523 886.57 211.368 886.058 211.368H886.01C885.882 211.368 885.818 211.315 885.818 211.208V210.856C885.818 210.76 885.882 210.712 886.01 210.712H886.058C886.762 210.712 887.322 210.931 887.738 211.368C888.165 211.795 888.378 212.397 888.378 213.176V220.168C888.378 220.947 888.165 221.549 887.738 221.976C887.322 222.413 886.762 222.632 886.058 222.632H886.01C885.882 222.632 885.818 222.584 885.818 222.488ZM779.456 230.856V231.208C779.456 231.315 779.397 231.368 779.28 231.368H779.232C778.72 231.368 778.325 231.523 778.048 231.832C777.771 232.131 777.632 232.563 777.632 233.128V240.216C777.632 240.781 777.771 241.213 778.048 241.512C778.325 241.821 778.72 241.976 779.232 241.976H779.28C779.397 241.976 779.456 242.029 779.456 242.136V242.488C779.456 242.584 779.397 242.632 779.28 242.632H779.232C778.517 242.632 777.947 242.413 777.52 241.976C777.104 241.549 776.896 240.947 776.896 240.168V233.176C776.896 232.397 777.104 231.795 777.52 231.368C777.947 230.931 778.517 230.712 779.232 230.712H779.296C779.403 230.712 779.456 230.76 779.456 230.856ZM786.781 241H786.317C786.21 241 786.157 240.936 786.157 240.808V230.904C786.157 230.776 786.21 230.712 786.317 230.712H791.245C791.373 230.712 791.437 230.771 791.437 230.888V231.256C791.437 231.373 791.373 231.432 791.245 231.432H787.117C787.01 231.432 786.957 231.48 786.957 231.576V235.464C786.957 235.549 787.01 235.592 787.117 235.592H790.813C790.93 235.592 790.989 235.651 790.989 235.768V236.152C790.989 236.269 790.93 236.328 790.813 236.328H787.117C787.01 236.328 786.957 236.371 786.957 236.456V240.808C786.957 240.936 786.898 241 786.781 241ZM796.445 241H795.421C794.727 241 794.178 240.797 793.773 240.392C793.378 239.987 793.181 239.432 793.181 238.728V235.112C793.181 234.408 793.378 233.853 793.773 233.448C794.178 233.043 794.727 232.84 795.421 232.84H798.813C798.919 232.84 798.973 232.904 798.973 233.032V240.808C798.973 240.936 798.919 241 798.813 241H798.349C798.231 241 798.173 240.936 798.173 240.808V240.168H798.109C797.831 240.723 797.277 241 796.445 241ZM798.173 238.712V233.704C798.173 233.608 798.119 233.56 798.013 233.56H795.485C794.994 233.56 794.621 233.699 794.365 233.976C794.109 234.253 793.981 234.643 793.981 235.144V238.696C793.981 239.197 794.109 239.587 794.365 239.864C794.621 240.141 794.994 240.28 795.485 240.28H796.525C797.037 240.28 797.437 240.147 797.725 239.88C798.023 239.603 798.173 239.213 798.173 238.712ZM801.996 241H801.532C801.425 241 801.372 240.936 801.372 240.808V233.032C801.372 232.904 801.425 232.84 801.532 232.84H801.996C802.113 232.84 802.172 232.904 802.172 233.032V233.704H802.236C802.353 233.48 802.561 233.283 802.86 233.112C803.159 232.931 803.527 232.84 803.964 232.84H804.588C804.705 232.84 804.764 232.899 804.764 233.016V233.4C804.764 233.517 804.705 233.571 804.588 233.56H803.836C803.313 233.56 802.903 233.72 802.604 234.04C802.316 234.36 802.172 234.792 802.172 235.336V240.808C802.172 240.936 802.113 241 801.996 241ZM807.012 241H806.548C806.441 241 806.388 240.936 806.388 240.808V233.032C806.388 232.904 806.441 232.84 806.548 232.84H807.012C807.129 232.84 807.188 232.904 807.188 233.032V233.672H807.252C807.561 233.117 808.126 232.84 808.948 232.84H809.604C810.542 232.84 811.193 233.213 811.556 233.96C811.716 233.587 811.988 233.309 812.372 233.128C812.756 232.936 813.15 232.84 813.556 232.84H814.148C814.841 232.84 815.385 233.043 815.78 233.448C816.174 233.853 816.372 234.408 816.372 235.112V240.808C816.372 240.936 816.313 241 816.196 241H815.732C815.614 241 815.556 240.936 815.556 240.808V235.144C815.556 234.632 815.428 234.243 815.172 233.976C814.916 233.699 814.542 233.56 814.052 233.56H813.46C812.948 233.56 812.542 233.709 812.244 234.008C811.945 234.296 811.796 234.691 811.796 235.192V240.808C811.796 240.936 811.737 241 811.62 241H811.156C811.038 241 810.98 240.936 810.98 240.808V235.144C810.98 234.632 810.852 234.243 810.596 233.976C810.34 233.699 809.966 233.56 809.476 233.56H808.836C808.324 233.56 807.918 233.699 807.62 233.976C807.332 234.243 807.188 234.627 807.188 235.128V240.808C807.188 240.936 807.129 241 807.012 241ZM818.764 231.496V229.96C818.764 229.843 818.818 229.784 818.924 229.784H819.404C819.511 229.784 819.564 229.843 819.564 229.96V231.496C819.564 231.624 819.511 231.688 819.404 231.688H818.924C818.818 231.688 818.764 231.624 818.764 231.496ZM818.764 240.808V233.032C818.764 232.904 818.818 232.84 818.924 232.84H819.388C819.506 232.84 819.564 232.904 819.564 233.032V240.808C819.564 240.936 819.511 241 819.404 241H818.924C818.818 241 818.764 240.936 818.764 240.808ZM822.668 241H822.204C822.097 241 822.044 240.936 822.044 240.808V233.032C822.044 232.904 822.097 232.84 822.204 232.84H822.668C822.785 232.84 822.844 232.904 822.844 233.032V233.672H822.908C823.206 233.117 823.761 232.84 824.572 232.84H825.628C826.31 232.84 826.849 233.043 827.244 233.448C827.638 233.853 827.836 234.408 827.836 235.112V240.808C827.836 240.936 827.782 241 827.676 241H827.212C827.094 241 827.036 240.936 827.036 240.808V235.144C827.036 234.643 826.908 234.253 826.652 233.976C826.396 233.699 826.022 233.56 825.532 233.56H824.492C823.98 233.56 823.574 233.699 823.276 233.976C822.988 234.243 822.844 234.627 822.844 235.128V240.808C822.844 240.936 822.785 241 822.668 241ZM833.321 240.536H832.281C831.598 240.536 831.054 240.333 830.649 239.928C830.254 239.523 830.057 238.973 830.057 238.28V235.112C830.057 234.408 830.254 233.853 830.649 233.448C831.054 233.043 831.604 232.84 832.297 232.84H835.689C835.806 232.84 835.865 232.904 835.865 233.032V240.968C835.865 241.672 835.662 242.227 835.257 242.632C834.852 243.037 834.302 243.24 833.609 243.24H830.697C830.58 243.24 830.521 243.181 830.521 243.064V242.68C830.521 242.573 830.58 242.52 830.697 242.52H833.545C834.036 242.52 834.409 242.381 834.665 242.104C834.921 241.837 835.049 241.448 835.049 240.936V239.704H834.985C834.718 240.259 834.164 240.536 833.321 240.536ZM835.049 238.248V233.704C835.049 233.608 835.001 233.56 834.905 233.56H832.377C831.886 233.56 831.508 233.699 831.241 233.976C830.985 234.243 830.857 234.632 830.857 235.144V238.248C830.857 238.749 830.985 239.139 831.241 239.416C831.508 239.683 831.886 239.816 832.377 239.816H833.401C833.913 239.816 834.313 239.683 834.601 239.416C834.9 239.139 835.049 238.749 835.049 238.248ZM843.281 233.016V234.936C843.281 235.053 843.227 235.112 843.121 235.112H842.561C842.443 235.112 842.385 235.053 842.385 234.936V233.016C842.385 232.899 842.443 232.84 842.561 232.84H843.121C843.227 232.84 843.281 232.899 843.281 233.016ZM843.281 238.904V240.808C843.281 240.936 843.227 241 843.121 241H842.561C842.443 241 842.385 240.936 842.385 240.808V238.904C842.385 238.787 842.443 238.728 842.561 238.728H843.121C843.227 238.728 843.281 238.787 843.281 238.904ZM849.217 232.648V232.296C849.217 232.157 849.281 232.045 849.409 231.96L851.425 230.824C851.531 230.749 851.643 230.712 851.761 230.712H852.177C852.294 230.712 852.353 230.776 852.353 230.904V240.808C852.353 240.936 852.294 241 852.177 241H851.713C851.606 241 851.553 240.936 851.553 240.808V231.576L849.489 232.744C849.307 232.861 849.217 232.829 849.217 232.648ZM858.199 235.208H856.823C856.567 235.208 856.353 235.251 856.183 235.336C856.012 235.421 855.9 235.517 855.847 235.624C855.708 235.891 855.58 236.024 855.463 236.024H854.951C854.844 236.024 854.791 235.965 854.791 235.848V230.904C854.791 230.776 854.844 230.712 854.951 230.712H860.151C860.279 230.712 860.343 230.771 860.343 230.888V231.288C860.343 231.405 860.279 231.464 860.151 231.464H855.591V235.304C855.783 234.781 856.241 234.52 856.967 234.52H858.311C859.004 234.52 859.548 234.712 859.943 235.096C860.337 235.48 860.535 236.024 860.535 236.728V238.728C860.535 239.432 860.332 239.987 859.927 240.392C859.521 240.797 858.972 241 858.279 241H856.999C856.305 241 855.756 240.797 855.351 240.392C854.956 239.987 854.759 239.432 854.759 238.728V238.168C854.759 238.04 854.812 237.976 854.919 237.976H855.383C855.5 237.976 855.559 238.04 855.559 238.168V238.712C855.559 239.213 855.687 239.603 855.943 239.88C856.199 240.157 856.572 240.296 857.063 240.296H858.215C858.705 240.296 859.079 240.163 859.335 239.896C859.601 239.619 859.735 239.224 859.735 238.712V236.792C859.735 235.736 859.223 235.208 858.199 235.208ZM870.238 236.856H869.95C869.48 236.856 869.155 236.957 868.974 237.16C868.803 237.352 868.718 237.693 868.718 238.184V239.08C868.718 239.56 868.808 239.901 868.99 240.104C869.171 240.307 869.491 240.408 869.95 240.408H870.238C870.696 240.408 871.011 240.307 871.182 240.104C871.363 239.901 871.454 239.56 871.454 239.08V238.184C871.454 237.693 871.363 237.352 871.182 237.16C871.011 236.957 870.696 236.856 870.238 236.856ZM869.885 236.264H870.286C870.915 236.264 871.374 236.419 871.662 236.728C871.96 237.037 872.11 237.512 872.11 238.152V239.112C872.11 240.371 871.502 241 870.286 241H869.885C868.659 241 868.046 240.371 868.046 239.112V238.152C868.046 236.893 868.659 236.264 869.885 236.264ZM864.414 231.24H864.126C863.667 231.24 863.347 231.341 863.166 231.544C862.995 231.736 862.91 232.072 862.91 232.552V233.464C862.91 233.944 862.995 234.285 863.166 234.488C863.347 234.691 863.667 234.792 864.126 234.792H864.414C864.872 234.792 865.187 234.691 865.358 234.488C865.539 234.285 865.63 233.944 865.63 233.464V232.552C865.63 232.072 865.539 231.736 865.358 231.544C865.187 231.341 864.872 231.24 864.414 231.24ZM864.078 230.648H864.478C865.694 230.648 866.302 231.272 866.302 232.52V233.48C866.302 234.749 865.694 235.384 864.478 235.384H864.078C862.851 235.384 862.238 234.749 862.238 233.48V232.52C862.238 231.272 862.851 230.648 864.078 230.648ZM865.118 241H864.814C864.686 241 864.654 240.915 864.718 240.744C864.782 240.573 865.486 238.941 866.83 235.848C868.184 232.744 868.899 231.101 868.974 230.92C869.048 230.781 869.134 230.712 869.23 230.712H869.534C869.683 230.712 869.715 230.792 869.63 230.952L865.374 240.792C865.31 240.931 865.224 241 865.118 241ZM878.068 242.488V242.136C878.068 242.029 878.132 241.976 878.26 241.976H878.308C878.82 241.976 879.215 241.821 879.492 241.512C879.769 241.213 879.908 240.781 879.908 240.216V233.128C879.908 232.563 879.769 232.131 879.492 231.832C879.215 231.523 878.82 231.368 878.308 231.368H878.26C878.132 231.368 878.068 231.315 878.068 231.208V230.856C878.068 230.76 878.132 230.712 878.26 230.712H878.308C879.012 230.712 879.572 230.931 879.988 231.368C880.415 231.795 880.628 232.397 880.628 233.176V240.168C880.628 240.947 880.415 241.549 879.988 241.976C879.572 242.413 879.012 242.632 878.308 242.632H878.26C878.132 242.632 878.068 242.584 878.068 242.488ZM783.722 250.856V251.208C783.722 251.315 783.663 251.368 783.546 251.368H783.498C782.986 251.368 782.591 251.523 782.314 251.832C782.036 252.131 781.898 252.563 781.898 253.128V260.216C781.898 260.781 782.036 261.213 782.314 261.512C782.591 261.821 782.986 261.976 783.498 261.976H783.546C783.663 261.976 783.722 262.029 783.722 262.136V262.488C783.722 262.584 783.663 262.632 783.546 262.632H783.498C782.783 262.632 782.212 262.413 781.786 261.976C781.37 261.549 781.162 260.947 781.162 260.168V253.176C781.162 252.397 781.37 251.795 781.786 251.368C782.212 250.931 782.783 250.712 783.498 250.712H783.562C783.668 250.712 783.722 250.76 783.722 250.856ZM790.253 261H788.237C787.544 261 786.994 260.797 786.589 260.392C786.194 259.987 785.997 259.432 785.997 258.728V252.984C785.997 252.28 786.194 251.725 786.589 251.32C786.994 250.915 787.544 250.712 788.237 250.712H790.253C790.946 250.712 791.49 250.915 791.885 251.32C792.29 251.725 792.493 252.28 792.493 252.984V253.768C792.493 253.896 792.434 253.96 792.317 253.96H791.869C791.752 253.96 791.693 253.896 791.693 253.768V253.016C791.693 252.504 791.56 252.115 791.293 251.848C791.037 251.571 790.664 251.432 790.173 251.432H788.301C787.81 251.432 787.437 251.571 787.181 251.848C786.925 252.125 786.797 252.515 786.797 253.016V258.696C786.797 259.197 786.925 259.587 787.181 259.864C787.437 260.141 787.81 260.28 788.301 260.28H790.173C790.664 260.28 791.037 260.147 791.293 259.88C791.56 259.603 791.693 259.208 791.693 258.696V257.944C791.693 257.816 791.752 257.752 791.869 257.752H792.317C792.434 257.752 792.493 257.816 792.493 257.944V258.728C792.493 259.432 792.29 259.987 791.885 260.392C791.49 260.797 790.946 261 790.253 261ZM798.125 261H796.749C796.055 261 795.506 260.797 795.101 260.392C794.706 259.987 794.509 259.432 794.509 258.728V255.112C794.509 254.408 794.706 253.853 795.101 253.448C795.506 253.043 796.055 252.84 796.749 252.84H798.125C798.818 252.84 799.367 253.043 799.773 253.448C800.178 253.853 800.381 254.408 800.381 255.112V258.728C800.381 259.432 800.178 259.987 799.773 260.392C799.367 260.797 798.818 261 798.125 261ZM796.813 260.28H798.061C798.551 260.28 798.925 260.147 799.181 259.88C799.447 259.603 799.581 259.213 799.581 258.712V255.128C799.581 254.627 799.447 254.243 799.181 253.976C798.925 253.699 798.551 253.56 798.061 253.56H796.813C796.322 253.56 795.949 253.699 795.693 253.976C795.437 254.243 795.309 254.627 795.309 255.128V258.712C795.309 259.213 795.437 259.603 795.693 259.88C795.949 260.147 796.322 260.28 796.813 260.28ZM803.23 261H802.766C802.66 261 802.606 260.936 802.606 260.808V253.032C802.606 252.904 802.66 252.84 802.766 252.84H803.23C803.348 252.84 803.406 252.904 803.406 253.032V253.672H803.47C803.78 253.117 804.345 252.84 805.166 252.84H805.822C806.761 252.84 807.412 253.213 807.774 253.96C807.934 253.587 808.206 253.309 808.59 253.128C808.974 252.936 809.369 252.84 809.774 252.84H810.366C811.06 252.84 811.604 253.043 811.998 253.448C812.393 253.853 812.59 254.408 812.59 255.112V260.808C812.59 260.936 812.532 261 812.414 261H811.95C811.833 261 811.774 260.936 811.774 260.808V255.144C811.774 254.632 811.646 254.243 811.39 253.976C811.134 253.699 810.761 253.56 810.27 253.56H809.678C809.166 253.56 808.761 253.709 808.462 254.008C808.164 254.296 808.014 254.691 808.014 255.192V260.808C808.014 260.936 807.956 261 807.838 261H807.374C807.257 261 807.198 260.936 807.198 260.808V255.144C807.198 254.632 807.07 254.243 806.814 253.976C806.558 253.699 806.185 253.56 805.694 253.56H805.054C804.542 253.56 804.137 253.699 803.838 253.976C803.55 254.243 803.406 254.627 803.406 255.128V260.808C803.406 260.936 803.348 261 803.23 261ZM815.863 260.28H818.407C818.898 260.28 819.271 260.147 819.527 259.88C819.794 259.603 819.927 259.208 819.927 258.696V255C819.927 254.499 819.794 254.115 819.527 253.848C819.271 253.571 818.898 253.432 818.407 253.432H817.351C816.839 253.432 816.434 253.571 816.135 253.848C815.847 254.115 815.703 254.499 815.703 255V260.136C815.703 260.232 815.756 260.28 815.863 260.28ZM814.903 260.808V249.944C814.903 249.816 814.956 249.752 815.063 249.752H815.527C815.644 249.752 815.703 249.816 815.703 249.944V253.544H815.767C816.066 252.989 816.62 252.712 817.431 252.712H818.487C819.18 252.712 819.724 252.915 820.119 253.32C820.524 253.725 820.727 254.275 820.727 254.968V258.728C820.727 259.432 820.524 259.987 820.119 260.392C819.724 260.797 819.18 261 818.487 261H815.063C814.956 261 814.903 260.936 814.903 260.808ZM826.07 261H825.046C824.352 261 823.803 260.797 823.398 260.392C823.003 259.987 822.806 259.432 822.806 258.728V255.112C822.806 254.408 823.003 253.853 823.398 253.448C823.803 253.043 824.352 252.84 825.046 252.84H828.438C828.544 252.84 828.598 252.904 828.598 253.032V260.808C828.598 260.936 828.544 261 828.438 261H827.974C827.856 261 827.798 260.936 827.798 260.808V260.168H827.734C827.456 260.723 826.902 261 826.07 261ZM827.798 258.712V253.704C827.798 253.608 827.744 253.56 827.638 253.56H825.11C824.619 253.56 824.246 253.699 823.99 253.976C823.734 254.253 823.606 254.643 823.606 255.144V258.696C823.606 259.197 823.734 259.587 823.99 259.864C824.246 260.141 824.619 260.28 825.11 260.28H826.15C826.662 260.28 827.062 260.147 827.35 259.88C827.648 259.603 827.798 259.213 827.798 258.712ZM831.349 253.56H830.373C830.256 253.56 830.197 253.507 830.197 253.4V253.016C830.197 252.899 830.256 252.84 830.373 252.84H831.349C831.445 252.84 831.493 252.792 831.493 252.696V251.4C831.493 251.272 831.552 251.208 831.669 251.208H832.133C832.25 251.208 832.309 251.272 832.309 251.4V252.696C832.309 252.792 832.357 252.84 832.453 252.84H834.357C834.474 252.84 834.533 252.899 834.533 253.016V253.4C834.533 253.507 834.474 253.56 834.357 253.56H832.453C832.357 253.56 832.309 253.608 832.309 253.704V258.744C832.309 259.235 832.448 259.613 832.725 259.88C833.002 260.147 833.392 260.28 833.893 260.28H834.517C834.634 260.28 834.693 260.339 834.693 260.456V260.824C834.693 260.941 834.634 261 834.517 261H833.829C833.125 261 832.56 260.803 832.133 260.408C831.706 260.013 831.493 259.469 831.493 258.776V253.704C831.493 253.608 831.445 253.56 831.349 253.56ZM841.577 253.016V254.936C841.577 255.053 841.524 255.112 841.417 255.112H840.857C840.74 255.112 840.681 255.053 840.681 254.936V253.016C840.681 252.899 840.74 252.84 840.857 252.84H841.417C841.524 252.84 841.577 252.899 841.577 253.016ZM841.577 258.904V260.808C841.577 260.936 841.524 261 841.417 261H840.857C840.74 261 840.681 260.936 840.681 260.808V258.904C840.681 258.787 840.74 258.728 840.857 258.728H841.417C841.524 258.728 841.577 258.787 841.577 258.904ZM847.514 252.648V252.296C847.514 252.157 847.578 252.045 847.706 251.96L849.722 250.824C849.828 250.749 849.94 250.712 850.058 250.712H850.474C850.591 250.712 850.65 250.776 850.65 250.904V260.808C850.65 260.936 850.591 261 850.474 261H850.01C849.903 261 849.85 260.936 849.85 260.808V251.576L847.786 252.744C847.604 252.861 847.514 252.829 847.514 252.648ZM857.632 258.184V251.352L853.6 258.184H857.632ZM858.24 261H857.808C857.69 261 857.632 260.936 857.632 260.808V258.904H852.992C852.832 258.904 852.752 258.829 852.752 258.68V258.392C852.752 258.296 852.789 258.173 852.864 258.024L857.056 250.952C857.152 250.792 857.28 250.712 857.44 250.712H858.192C858.341 250.712 858.416 250.792 858.416 250.952V258.184H859.616C859.733 258.184 859.792 258.237 859.792 258.344V258.728C859.792 258.845 859.733 258.904 859.616 258.904H858.416V260.808C858.416 260.936 858.357 261 858.24 261ZM869.128 256.856H868.84C868.371 256.856 868.045 256.957 867.864 257.16C867.693 257.352 867.608 257.693 867.608 258.184V259.08C867.608 259.56 867.699 259.901 867.88 260.104C868.061 260.307 868.381 260.408 868.84 260.408H869.128C869.587 260.408 869.901 260.307 870.072 260.104C870.253 259.901 870.344 259.56 870.344 259.08V258.184C870.344 257.693 870.253 257.352 870.072 257.16C869.901 256.957 869.587 256.856 869.128 256.856ZM868.776 256.264H869.176C869.805 256.264 870.264 256.419 870.552 256.728C870.851 257.037 871 257.512 871 258.152V259.112C871 260.371 870.392 261 869.176 261H868.776C867.549 261 866.936 260.371 866.936 259.112V258.152C866.936 256.893 867.549 256.264 868.776 256.264ZM863.304 251.24H863.016C862.557 251.24 862.237 251.341 862.056 251.544C861.885 251.736 861.8 252.072 861.8 252.552V253.464C861.8 253.944 861.885 254.285 862.056 254.488C862.237 254.691 862.557 254.792 863.016 254.792H863.304C863.763 254.792 864.077 254.691 864.248 254.488C864.429 254.285 864.52 253.944 864.52 253.464V252.552C864.52 252.072 864.429 251.736 864.248 251.544C864.077 251.341 863.763 251.24 863.304 251.24ZM862.968 250.648H863.368C864.584 250.648 865.192 251.272 865.192 252.52V253.48C865.192 254.749 864.584 255.384 863.368 255.384H862.968C861.741 255.384 861.128 254.749 861.128 253.48V252.52C861.128 251.272 861.741 250.648 862.968 250.648ZM864.008 261H863.704C863.576 261 863.544 260.915 863.608 260.744C863.672 260.573 864.376 258.941 865.72 255.848C867.075 252.744 867.789 251.101 867.864 250.92C867.939 250.781 868.024 250.712 868.12 250.712H868.424C868.573 250.712 868.605 250.792 868.52 250.952L864.264 260.792C864.2 260.931 864.115 261 864.008 261ZM872.693 262.488V262.136C872.693 262.029 872.757 261.976 872.885 261.976H872.933C873.445 261.976 873.84 261.821 874.117 261.512C874.394 261.213 874.533 260.781 874.533 260.216V253.128C874.533 252.563 874.394 252.131 874.117 251.832C873.84 251.523 873.445 251.368 872.933 251.368H872.885C872.757 251.368 872.693 251.315 872.693 251.208V250.856C872.693 250.76 872.757 250.712 872.885 250.712H872.933C873.637 250.712 874.197 250.931 874.613 251.368C875.04 251.795 875.253 252.397 875.253 253.176V260.168C875.253 260.947 875.04 261.549 874.613 261.976C874.197 262.413 873.637 262.632 872.933 262.632H872.885C872.757 262.632 872.693 262.584 872.693 262.488Z" fill="white"/>
<path d="M6.46625 270.856V271.208C6.46625 271.315 6.40759 271.368 6.29025 271.368H6.24225C5.73025 271.368 5.33559 271.523 5.05825 271.832C4.78092 272.131 4.64225 272.563 4.64225 273.128V280.216C4.64225 280.781 4.78092 281.213 5.05825 281.512C5.33559 281.821 5.73025 281.976 6.24225 281.976H6.29025C6.40759 281.976 6.46625 282.029 6.46625 282.136V282.488C6.46625 282.584 6.40759 282.632 6.29025 282.632H6.24225C5.52759 282.632 4.95692 282.413 4.53025 281.976C4.11425 281.549 3.90625 280.947 3.90625 280.168V273.176C3.90625 272.397 4.11425 271.795 4.53025 271.368C4.95692 270.931 5.52759 270.712 6.24225 270.712H6.30625C6.41292 270.712 6.46625 270.76 6.46625 270.856ZM18.4151 281H13.3271C13.2205 281 13.1671 280.936 13.1671 280.808V270.904C13.1671 270.776 13.2205 270.712 13.3271 270.712H13.7911C13.9085 270.712 13.9671 270.776 13.9671 270.904V280.104C13.9671 280.2 14.0205 280.248 14.1271 280.248H18.4151C18.5431 280.248 18.6071 280.307 18.6071 280.424V280.824C18.6071 280.941 18.5431 281 18.4151 281ZM23.6819 281H22.3059C21.6125 281 21.0632 280.797 20.6579 280.392C20.2632 279.987 20.0659 279.432 20.0659 278.728V275.112C20.0659 274.408 20.2632 273.853 20.6579 273.448C21.0632 273.043 21.6125 272.84 22.3059 272.84H23.6819C24.3752 272.84 24.9245 273.043 25.3299 273.448C25.7352 273.853 25.9379 274.408 25.9379 275.112V278.728C25.9379 279.432 25.7352 279.987 25.3299 280.392C24.9245 280.797 24.3752 281 23.6819 281ZM22.3699 280.28H23.6179C24.1085 280.28 24.4819 280.147 24.7379 279.88C25.0045 279.603 25.1379 279.213 25.1379 278.712V275.128C25.1379 274.627 25.0045 274.243 24.7379 273.976C24.4819 273.699 24.1085 273.56 23.6179 273.56H22.3699C21.8792 273.56 21.5059 273.699 21.2499 273.976C20.9939 274.243 20.8659 274.627 20.8659 275.128V278.712C20.8659 279.213 20.9939 279.603 21.2499 279.88C21.5059 280.147 21.8792 280.28 22.3699 280.28ZM32.7234 280.456V280.824C32.7234 280.941 32.6647 281 32.5474 281H30.2434C29.55 281 29.0007 280.797 28.5954 280.392C28.2007 279.987 28.0034 279.432 28.0034 278.728V275.112C28.0034 274.408 28.2007 273.853 28.5954 273.448C29.0007 273.043 29.55 272.84 30.2434 272.84H32.5474C32.6647 272.84 32.7234 272.899 32.7234 273.016V273.4C32.7234 273.507 32.6647 273.56 32.5474 273.56H30.3074C29.8167 273.56 29.4434 273.699 29.1874 273.976C28.9314 274.253 28.8034 274.643 28.8034 275.144V278.696C28.8034 279.197 28.9314 279.587 29.1874 279.864C29.4434 280.141 29.8167 280.28 30.3074 280.28H32.5474C32.6647 280.28 32.7234 280.339 32.7234 280.456ZM39.0523 272.84H39.5483C39.6123 272.84 39.6549 272.861 39.6763 272.904C39.6976 272.936 39.6869 272.979 39.6443 273.032L37.1963 276.744V276.808L39.9323 280.808C39.9749 280.861 39.9856 280.909 39.9643 280.952C39.9429 280.984 39.9003 281 39.8363 281H39.3403C39.1803 281 39.0576 280.936 38.9723 280.808L36.3323 276.92C36.2896 276.835 36.2896 276.749 36.3323 276.664L38.7323 273C38.7963 272.893 38.9029 272.84 39.0523 272.84ZM35.0843 281H34.6203C34.5136 281 34.4603 280.936 34.4603 280.808V269.944C34.4603 269.816 34.5136 269.752 34.6203 269.752H35.0843C35.2016 269.752 35.2603 269.816 35.2603 269.944V280.808C35.2603 280.936 35.2016 281 35.0843 281ZM47.2965 272.84H48.7525C48.8805 272.84 48.9445 272.899 48.9445 273.016V273.384C48.9445 273.501 48.8805 273.56 48.7525 273.56H47.2965C47.2005 273.56 47.1525 273.608 47.1525 273.704V280.808C47.1525 280.936 47.0938 281 46.9765 281H46.5125C46.3952 281 46.3365 280.936 46.3365 280.808V273.704C46.3365 273.608 46.2885 273.56 46.1925 273.56H45.1685C45.0512 273.56 44.9925 273.501 44.9925 273.384V273.016C44.9925 272.899 45.0512 272.84 45.1685 272.84H46.1925C46.2885 272.84 46.3365 272.792 46.3365 272.696V271.992C46.3365 270.499 47.0138 269.752 48.3685 269.752H48.7525C48.8805 269.752 48.9445 269.811 48.9445 269.928V270.296C48.9445 270.413 48.8805 270.472 48.7525 270.472H48.4485C47.9685 270.472 47.6325 270.6 47.4405 270.856C47.2485 271.112 47.1525 271.501 47.1525 272.024V272.696C47.1525 272.792 47.2005 272.84 47.2965 272.84ZM53.9163 281H52.5403C51.8469 281 51.2976 280.797 50.8923 280.392C50.4976 279.987 50.3003 279.432 50.3003 278.728V275.112C50.3003 274.408 50.4976 273.853 50.8923 273.448C51.2976 273.043 51.8469 272.84 52.5403 272.84H53.9163C54.6096 272.84 55.1589 273.043 55.5643 273.448C55.9696 273.853 56.1723 274.408 56.1723 275.112V278.728C56.1723 279.432 55.9696 279.987 55.5643 280.392C55.1589 280.797 54.6096 281 53.9163 281ZM52.6043 280.28H53.8523C54.3429 280.28 54.7163 280.147 54.9723 279.88C55.2389 279.603 55.3723 279.213 55.3723 278.712V275.128C55.3723 274.627 55.2389 274.243 54.9723 273.976C54.7163 273.699 54.3429 273.56 53.8523 273.56H52.6043C52.1136 273.56 51.7403 273.699 51.4843 273.976C51.2283 274.243 51.1003 274.627 51.1003 275.128V278.712C51.1003 279.213 51.2283 279.603 51.4843 279.88C51.7403 280.147 52.1136 280.28 52.6043 280.28ZM59.0218 281H58.5578C58.4511 281 58.3978 280.936 58.3978 280.808V273.032C58.3978 272.904 58.4511 272.84 58.5578 272.84H59.0218C59.1391 272.84 59.1978 272.904 59.1978 273.032V273.704H59.2618C59.3791 273.48 59.5871 273.283 59.8858 273.112C60.1844 272.931 60.5524 272.84 60.9898 272.84H61.6138C61.7311 272.84 61.7898 272.899 61.7898 273.016V273.4C61.7898 273.517 61.7311 273.571 61.6138 273.56H60.8618C60.3391 273.56 59.9284 273.72 59.6298 274.04C59.3418 274.36 59.1978 274.792 59.1978 275.336V280.808C59.1978 280.936 59.1391 281 59.0218 281ZM69.727 280.28H71.087C71.5777 280.28 71.951 280.147 72.207 279.88C72.463 279.603 72.591 279.208 72.591 278.696V277.16C72.591 276.659 72.463 276.275 72.207 276.008C71.951 275.731 71.5777 275.592 71.087 275.592H68.223V278.696C68.223 279.208 68.351 279.603 68.607 279.88C68.863 280.147 69.2363 280.28 69.727 280.28ZM71.151 281H69.663C68.9697 281 68.4203 280.797 68.015 280.392C67.6097 279.987 67.407 279.432 67.407 278.728V272.984C67.407 272.28 67.6097 271.725 68.015 271.32C68.4203 270.915 68.9697 270.712 69.663 270.712H72.703C72.8203 270.712 72.879 270.771 72.879 270.888V271.272C72.879 271.379 72.8203 271.432 72.703 271.432H69.727C69.2363 271.432 68.863 271.571 68.607 271.848C68.351 272.115 68.223 272.504 68.223 273.016V274.872H71.151C71.8443 274.872 72.3937 275.075 72.799 275.48C73.2043 275.885 73.407 276.435 73.407 277.128V278.728C73.407 279.432 73.2043 279.987 72.799 280.392C72.3937 280.797 71.8443 281 71.151 281ZM80.5218 281H80.0578C79.9511 281 79.8978 280.936 79.8978 280.808V273.032C79.8978 272.904 79.9511 272.84 80.0578 272.84H80.5218C80.6391 272.84 80.6978 272.904 80.6978 273.032V273.672H80.7618C81.0711 273.117 81.6364 272.84 82.4578 272.84H83.1138C84.0524 272.84 84.7031 273.213 85.0658 273.96C85.2258 273.587 85.4978 273.309 85.8818 273.128C86.2658 272.936 86.6604 272.84 87.0658 272.84H87.6578C88.3511 272.84 88.8951 273.043 89.2898 273.448C89.6844 273.853 89.8818 274.408 89.8818 275.112V280.808C89.8818 280.936 89.8231 281 89.7058 281H89.2418C89.1244 281 89.0658 280.936 89.0658 280.808V275.144C89.0658 274.632 88.9378 274.243 88.6818 273.976C88.4258 273.699 88.0524 273.56 87.5618 273.56H86.9698C86.4578 273.56 86.0524 273.709 85.7538 274.008C85.4551 274.296 85.3058 274.691 85.3058 275.192V280.808C85.3058 280.936 85.2471 281 85.1298 281H84.6658C84.5484 281 84.4898 280.936 84.4898 280.808V275.144C84.4898 274.632 84.3618 274.243 84.1058 273.976C83.8498 273.699 83.4764 273.56 82.9858 273.56H82.3458C81.8338 273.56 81.4284 273.699 81.1298 273.976C80.8418 274.243 80.6978 274.627 80.6978 275.128V280.808C80.6978 280.936 80.6391 281 80.5218 281ZM95.6506 281H94.2746C93.5813 281 93.032 280.797 92.6266 280.392C92.232 279.987 92.0346 279.432 92.0346 278.728V275.112C92.0346 274.408 92.232 273.853 92.6266 273.448C93.032 273.043 93.5813 272.84 94.2746 272.84H95.6506C96.344 272.84 96.8933 273.043 97.2986 273.448C97.704 273.853 97.9066 274.408 97.9066 275.112V278.728C97.9066 279.432 97.704 279.987 97.2986 280.392C96.8933 280.797 96.344 281 95.6506 281ZM94.3386 280.28H95.5866C96.0773 280.28 96.4506 280.147 96.7066 279.88C96.9733 279.603 97.1066 279.213 97.1066 278.712V275.128C97.1066 274.627 96.9733 274.243 96.7066 273.976C96.4506 273.699 96.0773 273.56 95.5866 273.56H94.3386C93.848 273.56 93.4746 273.699 93.2186 273.976C92.9626 274.243 92.8346 274.627 92.8346 275.128V278.712C92.8346 279.213 92.9626 279.603 93.2186 279.88C93.4746 280.147 93.848 280.28 94.3386 280.28ZM100.756 281H100.292C100.185 281 100.132 280.936 100.132 280.808V273.032C100.132 272.904 100.185 272.84 100.292 272.84H100.756C100.873 272.84 100.932 272.904 100.932 273.032V273.672H100.996C101.295 273.117 101.849 272.84 102.66 272.84H103.716C104.399 272.84 104.937 273.043 105.332 273.448C105.727 273.853 105.924 274.408 105.924 275.112V280.808C105.924 280.936 105.871 281 105.764 281H105.3C105.183 281 105.124 280.936 105.124 280.808V275.144C105.124 274.643 104.996 274.253 104.74 273.976C104.484 273.699 104.111 273.56 103.62 273.56H102.58C102.068 273.56 101.663 273.699 101.364 273.976C101.076 274.243 100.932 274.627 100.932 275.128V280.808C100.932 280.936 100.873 281 100.756 281ZM108.594 273.56H107.618C107.5 273.56 107.442 273.507 107.442 273.4V273.016C107.442 272.899 107.5 272.84 107.618 272.84H108.594C108.69 272.84 108.738 272.792 108.738 272.696V271.4C108.738 271.272 108.796 271.208 108.914 271.208H109.378C109.495 271.208 109.554 271.272 109.554 271.4V272.696C109.554 272.792 109.602 272.84 109.698 272.84H111.602C111.719 272.84 111.778 272.899 111.778 273.016V273.4C111.778 273.507 111.719 273.56 111.602 273.56H109.698C109.602 273.56 109.554 273.608 109.554 273.704V278.744C109.554 279.235 109.692 279.613 109.97 279.88C110.247 280.147 110.636 280.28 111.138 280.28H111.762C111.879 280.28 111.938 280.339 111.938 280.456V280.824C111.938 280.941 111.879 281 111.762 281H111.074C110.37 281 109.804 280.803 109.378 280.408C108.951 280.013 108.738 279.469 108.738 278.776V273.704C108.738 273.608 108.69 273.56 108.594 273.56ZM114.412 281H113.948C113.842 281 113.788 280.936 113.788 280.808V269.944C113.788 269.816 113.842 269.752 113.948 269.752H114.412C114.53 269.752 114.588 269.816 114.588 269.944V273.672H114.652C114.951 273.117 115.506 272.84 116.316 272.84H117.372C118.055 272.84 118.594 273.043 118.988 273.448C119.383 273.853 119.58 274.408 119.58 275.112V280.808C119.58 280.936 119.527 281 119.42 281H118.956C118.839 281 118.78 280.936 118.78 280.808V275.144C118.78 274.643 118.652 274.253 118.396 273.976C118.14 273.699 117.767 273.56 117.276 273.56H116.236C115.724 273.56 115.319 273.699 115.02 273.976C114.732 274.243 114.588 274.627 114.588 275.128V280.808C114.588 280.936 114.53 281 114.412 281ZM125.859 282.488V282.136C125.859 282.029 125.923 281.976 126.051 281.976H126.099C126.611 281.976 127.006 281.821 127.283 281.512C127.561 281.213 127.699 280.781 127.699 280.216V273.128C127.699 272.563 127.561 272.131 127.283 271.832C127.006 271.523 126.611 271.368 126.099 271.368H126.051C125.923 271.368 125.859 271.315 125.859 271.208V270.856C125.859 270.76 125.923 270.712 126.051 270.712H126.099C126.803 270.712 127.363 270.931 127.779 271.368C128.206 271.795 128.419 272.397 128.419 273.176V280.168C128.419 280.947 128.206 281.549 127.779 281.976C127.363 282.413 126.803 282.632 126.099 282.632H126.051C125.923 282.632 125.859 282.584 125.859 282.488Z" fill="white"/>
<line x1="118" y1="87.5" x2="423" y2="87.5" stroke="white" stroke-width="5"/>
<line x1="672.988" y1="283.848" x2="951.996" y2="282.5" stroke="white" stroke-width="5"/>
<line y1="307.25" x2="300.446" y2="307.25" stroke="white" stroke-width="5"/>
<line x1="124" y1="453.5" x2="406" y2="453.5" stroke="white" stroke-width="5"/>
<path d="M323.168 23H320.864C320.576 23 320.48 22.832 320.576 22.496L324.368 8.072C324.48 7.736 324.72 7.568 325.088 7.568L328.28 7.568C328.68 7.568 328.92 7.736 329 8.072L332.792 22.496C332.888 22.832 332.792 23 332.504 23H330.2C330.024 23 329.904 22.968 329.84 22.904C329.776 22.824 329.728 22.688 329.696 22.496L329.024 19.856H324.344L323.672 22.496C323.64 22.688 323.584 22.824 323.504 22.904C323.44 22.968 323.328 23 323.168 23ZM326.648 10.472L324.92 17.408H328.472L326.744 10.472H326.648ZM334.799 8.696V6.608C334.799 6.288 334.959 6.128 335.279 6.128H337.367C337.687 6.128 337.847 6.28 337.847 6.584V8.696C337.847 9.016 337.687 9.176 337.367 9.176H335.279C334.959 9.176 334.799 9.016 334.799 8.696ZM334.799 22.496L334.799 11.264C334.799 10.928 334.959 10.76 335.279 10.76H337.343C337.679 10.76 337.847 10.928 337.847 11.264V22.496C337.847 22.704 337.807 22.84 337.727 22.904C337.663 22.968 337.543 23 337.367 23H335.303C334.967 23 334.799 22.832 334.799 22.496ZM343.153 23H341.113C340.777 23 340.609 22.832 340.609 22.496V11.264C340.609 10.928 340.777 10.76 341.113 10.76H343.153C343.489 10.76 343.657 10.928 343.657 11.264V12.08H343.753C343.929 11.648 344.241 11.32 344.689 11.096C345.137 10.872 345.609 10.76 346.105 10.76H346.969C347.289 10.76 347.449 10.928 347.449 11.264V12.92C347.449 13.112 347.409 13.248 347.329 13.328C347.265 13.392 347.145 13.416 346.969 13.4H345.313C344.209 13.4 343.657 14.024 343.657 15.272V22.496C343.657 22.832 343.489 23 343.153 23ZM353.464 23H352.48C351.248 23 350.312 22.664 349.672 21.992C349.048 21.32 348.736 20.352 348.736 19.088V14.672C348.736 13.408 349.048 12.44 349.672 11.768C350.312 11.096 351.248 10.76 352.48 10.76H353.464C353.96 10.76 354.432 10.872 354.88 11.096C355.328 11.304 355.64 11.624 355.816 12.056H355.912V6.632C355.912 6.296 356.08 6.128 356.416 6.128H358.456C358.792 6.128 358.96 6.296 358.96 6.632V22.496C358.96 22.832 358.792 23 358.456 23H356.416C356.08 23 355.912 22.832 355.912 22.496V21.704H355.816C355.64 22.136 355.328 22.464 354.88 22.688C354.432 22.896 353.96 23 353.464 23ZM355.912 18.536V15.224C355.912 14.008 355.36 13.4 354.256 13.4H353.176C352.664 13.4 352.304 13.512 352.096 13.736C351.888 13.944 351.784 14.304 351.784 14.816V18.944C351.784 19.456 351.888 19.824 352.096 20.048C352.304 20.256 352.664 20.36 353.176 20.36H354.256C355.36 20.36 355.912 19.752 355.912 18.536ZM364.153 23H362.113C361.777 23 361.609 22.832 361.609 22.496V11.264C361.609 10.928 361.777 10.76 362.113 10.76L364.153 10.76C364.489 10.76 364.657 10.928 364.657 11.264V12.08H364.753C364.929 11.648 365.241 11.32 365.689 11.096C366.137 10.872 366.609 10.76 367.105 10.76H367.969C368.289 10.76 368.449 10.928 368.449 11.264V12.92C368.449 13.112 368.409 13.248 368.329 13.328C368.265 13.392 368.145 13.416 367.969 13.4H366.313C365.209 13.4 364.657 14.024 364.657 15.272V22.496C364.657 22.832 364.489 23 364.153 23ZM375.832 23H373.696C372.432 23 371.456 22.664 370.768 21.992C370.08 21.32 369.736 20.352 369.736 19.088V14.672C369.736 13.408 370.08 12.44 370.768 11.768C371.456 11.096 372.432 10.76 373.696 10.76H375.832C377.08 10.76 378.048 11.104 378.736 11.792C379.44 12.464 379.792 13.424 379.792 14.672V19.088C379.792 20.336 379.44 21.304 378.736 21.992C378.048 22.664 377.08 23 375.832 23ZM374.152 20.384H375.376C375.888 20.384 376.248 20.28 376.456 20.072C376.68 19.864 376.792 19.504 376.792 18.992V14.768C376.792 14.256 376.68 13.896 376.456 13.688C376.248 13.48 375.888 13.376 375.376 13.376H374.152C373.64 13.376 373.28 13.48 373.072 13.688C372.864 13.896 372.76 14.256 372.76 14.768V18.992C372.76 19.504 372.864 19.864 373.072 20.072C373.28 20.28 373.64 20.384 374.152 20.384ZM384.731 26.264H382.691C382.355 26.264 382.187 26.104 382.187 25.784V11.264C382.187 10.928 382.355 10.76 382.691 10.76H384.731C385.067 10.76 385.235 10.928 385.235 11.264V12.056H385.331C385.507 11.624 385.819 11.304 386.267 11.096C386.715 10.872 387.187 10.76 387.683 10.76H388.667C389.899 10.76 390.827 11.096 391.451 11.768C392.091 12.44 392.411 13.408 392.411 14.672V19.088C392.411 20.352 392.091 21.32 391.451 21.992C390.827 22.664 389.899 23 388.667 23H387.683C387.187 23 386.715 22.896 386.267 22.688C385.819 22.464 385.507 22.136 385.331 21.704H385.235V25.784C385.235 26.104 385.067 26.264 384.731 26.264ZM386.891 20.36H387.947C388.459 20.36 388.819 20.256 389.027 20.048C389.251 19.824 389.363 19.456 389.363 18.944V14.816C389.363 14.304 389.251 13.944 389.027 13.736C388.819 13.512 388.459 13.4 387.947 13.4H386.891C385.787 13.4 385.235 14.008 385.235 15.224V18.536C385.235 19.752 385.787 20.36 386.891 20.36ZM402.757 11.216V14.168C402.757 14.504 402.605 14.672 402.301 14.672H400.165C399.845 14.672 399.685 14.488 399.685 14.12V11.24C399.685 10.92 399.845 10.76 400.165 10.76H402.301C402.605 10.76 402.757 10.912 402.757 11.216ZM402.757 19.544V22.496C402.757 22.832 402.605 23 402.301 23H400.165C399.845 23 399.685 22.824 399.685 22.472V19.568C399.685 19.248 399.845 19.088 400.165 19.088H402.301C402.605 19.088 402.757 19.24 402.757 19.544ZM410.073 22.496V20.216C410.073 19.304 410.465 18.528 411.249 17.888L415.665 14.144C416.385 13.552 416.745 12.912 416.745 12.224V11.504C416.745 11.008 416.625 10.656 416.385 10.448C416.161 10.224 415.785 10.112 415.257 10.112H414.417C413.905 10.112 413.545 10.224 413.337 10.448C413.129 10.656 413.025 11.008 413.025 11.504V12.272C413.025 12.624 412.857 12.8 412.521 12.8H410.481C410.145 12.8 409.977 12.624 409.977 12.272V11.456C409.977 10.208 410.321 9.248 411.009 8.576C411.697 7.904 412.673 7.568 413.937 7.568L415.761 7.568C417.025 7.568 418.001 7.904 418.689 8.576C419.377 9.248 419.721 10.208 419.721 11.456V12.416C419.721 13.664 419.241 14.696 418.281 15.512L413.769 19.352C413.577 19.528 413.481 19.72 413.481 19.928V20.312H419.217C419.553 20.312 419.721 20.48 419.721 20.816V22.496C419.721 22.832 419.553 23 419.217 23H410.577C410.241 23 410.073 22.832 410.073 22.496ZM434.389 17.36H433.837C433.485 17.36 433.245 17.432 433.117 17.576C432.989 17.704 432.925 17.936 432.925 18.272V20.36C432.925 20.712 432.989 20.96 433.117 21.104C433.245 21.232 433.485 21.296 433.837 21.296H434.389C434.725 21.296 434.957 21.224 435.085 21.08C435.229 20.936 435.301 20.696 435.301 20.36V18.272C435.301 17.936 435.237 17.704 435.109 17.576C434.981 17.432 434.741 17.36 434.389 17.36ZM433.381 15.656H434.797C435.629 15.656 436.261 15.872 436.693 16.304C437.125 16.736 437.341 17.36 437.341 18.176V20.48C437.341 21.296 437.125 21.92 436.693 22.352C436.261 22.784 435.629 23 434.797 23H433.381C432.565 23 431.933 22.784 431.485 22.352C431.053 21.92 430.837 21.296 430.837 20.48V18.176C430.837 17.36 431.053 16.736 431.485 16.304C431.933 15.872 432.565 15.656 433.381 15.656ZM425.509 9.248H424.957C424.605 9.248 424.365 9.32 424.237 9.464C424.109 9.592 424.045 9.832 424.045 10.184V12.272C424.045 12.608 424.109 12.848 424.237 12.992C424.365 13.12 424.605 13.184 424.957 13.184H425.509C425.861 13.184 426.101 13.12 426.229 12.992C426.357 12.848 426.421 12.608 426.421 12.272V10.184C426.421 9.848 426.349 9.608 426.205 9.464C426.077 9.32 425.845 9.248 425.509 9.248ZM424.525 7.544H425.941C426.773 7.544 427.405 7.76 427.837 8.192C428.269 8.624 428.485 9.248 428.485 10.064V12.368C428.485 13.184 428.269 13.808 427.837 14.24C427.405 14.672 426.773 14.888 425.941 14.888H424.525C423.709 14.888 423.077 14.672 422.629 14.24C422.197 13.808 421.981 13.184 421.981 12.368V10.064C421.981 9.248 422.197 8.624 422.629 8.192C423.077 7.76 423.709 7.544 424.525 7.544ZM427.285 23H426.037C425.669 23 425.549 22.832 425.677 22.496C426.189 21.184 427.141 18.784 428.533 15.296C429.925 11.792 430.877 9.384 431.389 8.072C431.533 7.736 431.741 7.568 432.013 7.568H433.285C433.653 7.568 433.773 7.736 433.645 8.072L427.933 22.496C427.805 22.832 427.589 23 427.285 23Z" fill="white"/>
<line x1="320" y1="49.5" x2="476" y2="49.5" stroke="white" stroke-width="5"/>
<circle cx="476.01" cy="49" r="5" fill="white"/>
<circle cx="423.01" cy="87" r="5" fill="white"/>
<circle cx="300.01" cy="308" r="5" fill="white"/>
<circle cx="673" cy="284" r="5" fill="white"/>
<circle cx="408.01" cy="453" r="5" fill="white"/>
</svg>
