<svg width="22" height="22" viewBox="0 0 22 22" fill="none" xmlns="http://www.w3.org/2000/svg">
<g filter="url(#filter0_i)">
<path fill-rule="evenodd" clip-rule="evenodd" d="M1 0C0.447715 0 0 0.447715 0 1V8C0 8.55229 0.447715 9 1 9H8C8.55229 9 9 8.55229 9 8V1C9 0.447715 8.55229 0 8 0H1ZM1 13C0.447715 13 0 13.4477 0 14V21C0 21.5523 0.447715 22 1 22H8C8.55229 22 9 21.5523 9 21V14C9 13.4477 8.55229 13 8 13H1ZM13 14C13 13.4477 13.4477 13 14 13H21C21.5523 13 22 13.4477 22 14V21C22 21.5523 21.5523 22 21 22H14C13.4477 22 13 21.5523 13 21V14ZM14 0C13.4477 0 13 0.447715 13 1V8C13 8.55229 13.4477 9 14 9H21C21.5523 9 22 8.55229 22 8V1C22 0.447715 21.5523 0 21 0H14Z" fill="#645B4C"/>
</g>
<defs>
<filter id="filter0_i" x="0" y="0" width="22" height="26" filterUnits="userSpaceOnUse" color-interpolation-filters="sRGB">
<feFlood flood-opacity="0" result="BackgroundImageFix"/>
<feBlend mode="normal" in="SourceGraphic" in2="BackgroundImageFix" result="shape"/>
<feColorMatrix in="SourceAlpha" type="matrix" values="0 0 0 0 0 0 0 0 0 0 0 0 0 0 0 0 0 0 127 0" result="hardAlpha"/>
<feOffset dy="4"/>
<feGaussianBlur stdDeviation="15"/>
<feComposite in2="hardAlpha" operator="arithmetic" k2="-1" k3="1"/>
<feColorMatrix type="matrix" values="0 0 0 0 0 0 0 0 0 0 0 0 0 0 0 0 0 0 0.5 0"/>
<feBlend mode="normal" in2="shape" result="effect1_innerShadow"/>
</filter>
</defs>
</svg>
