<svg width="22" height="22" viewBox="0 0 22 22" fill="none" xmlns="http://www.w3.org/2000/svg">
<rect x="0.5" y="0.5" width="21" height="21" rx="2.5" stroke="#5188D4"/>
<rect x="3" y="3" width="16" height="16" rx="1" fill="#1F1D19"/>
<path d="M15.0143 16.16C14.4383 16.16 13.905 15.984 13.4143 15.632C12.9236 15.28 12.4276 14.6827 11.9263 13.84L10.3263 11.168H9.68631V16H7.59031V7.52C7.59031 6.976 7.51565 6.576 7.36631 6.32C7.21698 6.05333 6.91831 5.92 6.47031 5.92H6.31031V5.44H10.7263C11.8143 5.44 12.8063 5.64267 13.7023 6.048C14.5983 6.44267 15.0463 7.20533 15.0463 8.336C15.0463 9.11467 14.8063 9.712 14.3263 10.128C13.857 10.5333 13.233 10.8373 12.4543 11.04L14.1343 13.84C14.7636 14.896 15.425 15.4827 16.1183 15.6V16C16.033 16.0427 15.8783 16.08 15.6543 16.112C15.4303 16.144 15.217 16.16 15.0143 16.16ZM10.6463 10.528C11.2436 10.528 11.7503 10.352 12.1663 10C12.593 9.63733 12.8063 9.072 12.8063 8.304C12.8063 7.536 12.5983 6.976 12.1823 6.624C11.7663 6.26133 11.265 6.08 10.6783 6.08C10.401 6.08 10.0703 6.11733 9.68631 6.192V10.528H10.6463Z" fill="#5188D4"/>
</svg>
