<svg width="105" height="33" viewBox="0 0 105 33" fill="none" xmlns="http://www.w3.org/2000/svg">
<path d="M14.3554 33H8.64465C5.88535 33 3.75475 32.2815 2.25285 30.8445C0.750949 29.4075 0 27.3375 0 24.6345V8.36547C0 5.66252 0.750949 3.59253 2.25285 2.15552C3.75475 0.718506 5.88535 0 8.64465 0H14.3554C17.0797 0 19.1929 0.735614 20.6948 2.20684C22.2316 3.64386 23 5.69673 23 8.36547V10.7776C23 11.5303 22.6158 11.9067 21.8474 11.9067H17.4465C16.713 11.9067 16.3462 11.5303 16.3462 10.7776V8.6734C16.3462 7.57854 16.1017 6.80871 15.6128 6.36392C15.1587 5.88491 14.3728 5.64541 13.2551 5.64541H9.69248C8.60972 5.64541 7.82384 5.88491 7.33485 6.36392C6.88079 6.80871 6.65376 7.57854 6.65376 8.6734V24.3266C6.65376 25.4215 6.88079 26.2084 7.33485 26.6874C7.82384 27.1322 8.60972 27.3546 9.69248 27.3546H13.2551C14.3728 27.3546 15.1587 27.1322 15.6128 26.6874C16.1017 26.2084 16.3462 25.4215 16.3462 24.3266V22.2224C16.3462 21.4697 16.713 21.0933 17.4465 21.0933H21.8474C22.6158 21.0933 23 21.4697 23 22.2224V24.6345C23 27.3033 22.2316 29.3733 20.6948 30.8445C19.1929 32.2815 17.0797 33 14.3554 33Z" fill="#BF2ED5"/>
<path d="M33.4688 33H29.0834C28.3611 33 28 32.6407 28 31.9222V1.07776C28 0.359254 28.3611 0 29.0834 0H41.3624C44.0451 0 46.1432 0.735614 47.6566 2.20684C49.17 3.67807 49.9266 5.74805 49.9266 8.41679V12.4199C49.9266 16.2862 48.3961 18.8523 45.3349 20.1182V20.3235L50.8553 31.7683C51.1649 32.5894 50.8725 33 49.9782 33H45.7993C45.1802 33 44.733 32.9316 44.4579 32.7947C44.1827 32.6579 43.9592 32.367 43.7872 31.9222L38.628 20.8367H35.1713C34.7586 20.8367 34.5522 21.0249 34.5522 21.4012V31.9222C34.5522 32.6407 34.1911 33 33.4688 33ZM35.1197 15.6019H40.1757C41.2764 15.6019 42.0846 15.3795 42.6006 14.9347C43.1165 14.4557 43.3744 13.703 43.3744 12.6765V8.6734C43.3744 7.61275 43.1165 6.84292 42.6006 6.36392C42.0846 5.88491 41.2764 5.64541 40.1757 5.64541H35.1197C34.7414 5.64541 34.5522 5.83359 34.5522 6.20995V15.0373C34.5522 15.4137 34.7414 15.6019 35.1197 15.6019Z" fill="#54EAE9"/>
<path d="M68.3902 33H64.0048C63.2825 33 62.9214 32.6407 62.9214 31.9222V20.9393L53.48 1.12908C53.3425 0.821148 53.3425 0.564539 53.48 0.359252C53.652 0.119751 53.8928 0 54.2023 0H59.6711C60.2214 0 60.6342 0.359254 60.9093 1.07776L66.0685 13.549H66.4297L71.4857 1.07776C71.7265 0.359254 72.1392 0 72.7239 0H78.1927C78.5366 0 78.7774 0.102643 78.915 0.30793C79.0869 0.513217 79.0869 0.786934 78.915 1.12908L69.4736 20.9393V31.9222C69.4736 32.6407 69.1125 33 68.3902 33Z" fill="#54EAE9"/>
<path d="M88.3358 33H83.9504C83.2281 33 82.867 32.6407 82.867 31.9222V1.07776C82.867 0.359254 83.2281 0 83.9504 0H96.5389C99.2217 0 101.303 0.735614 102.782 2.20684C104.261 3.64386 105 5.69673 105 8.36547V13.2924C105 15.9611 104.261 18.0311 102.782 19.5023C101.303 20.9393 99.2217 21.6579 96.5389 21.6579H90.0383C89.6256 21.6579 89.4192 21.846 89.4192 22.2224V31.9222C89.4192 32.6407 89.058 33 88.3358 33ZM89.9867 15.9611H95.4555C96.5561 15.9611 97.33 15.7387 97.7771 15.2939C98.2242 14.8149 98.4478 14.0451 98.4478 12.9844V8.6734C98.4478 7.57854 98.2242 6.80871 97.7771 6.36392C97.33 5.88491 96.5561 5.64541 95.4555 5.64541H89.9867C89.6084 5.64541 89.4192 5.83359 89.4192 6.20995V15.3966C89.4192 15.7729 89.6084 15.9611 89.9867 15.9611Z" fill="#54EAE9"/>
</svg>
