<svg width="57" height="23" viewBox="0 0 57 23" fill="none" xmlns="http://www.w3.org/2000/svg">
<mask id="path-1-inside-1" fill="white">
<path d="M0.0978241 14.8625C8.64064 19.7947 18.3313 22.3913 28.1956 22.3913C38.06 22.3913 47.7507 19.7947 56.2935 14.8625L48.0075 0.510788C41.9839 3.98849 35.1511 5.81936 28.1957 5.81935C21.2402 5.81935 14.4074 3.98849 8.3838 0.510788L0.0978241 14.8625Z"/>
</mask>
<g filter="url(#filter0_i)">
<path d="M0.0978241 14.8625C8.64064 19.7947 18.3313 22.3913 28.1956 22.3913C38.06 22.3913 47.7507 19.7947 56.2935 14.8625L48.0075 0.510788C41.9839 3.98849 35.1511 5.81936 28.1957 5.81935C21.2402 5.81935 14.4074 3.98849 8.3838 0.510788L0.0978241 14.8625Z" fill="#0F1118"/>
</g>
<path d="M0.0978241 14.8625C8.64064 19.7947 18.3313 22.3913 28.1956 22.3913C38.06 22.3913 47.7507 19.7947 56.2935 14.8625L48.0075 0.510788C41.9839 3.98849 35.1511 5.81936 28.1957 5.81935C21.2402 5.81935 14.4074 3.98849 8.3838 0.510788L0.0978241 14.8625Z" stroke="url(#paint0_linear)" stroke-width="4" mask="url(#path-1-inside-1)"/>
<defs>
<filter id="filter0_i" x="0.0977783" y="0.510788" width="56.1957" height="21.8805" filterUnits="userSpaceOnUse" color-interpolation-filters="sRGB">
<feFlood flood-opacity="0" result="BackgroundImageFix"/>
<feBlend mode="normal" in="SourceGraphic" in2="BackgroundImageFix" result="shape"/>
<feColorMatrix in="SourceAlpha" type="matrix" values="0 0 0 0 0 0 0 0 0 0 0 0 0 0 0 0 0 0 127 0" result="hardAlpha"/>
<feOffset/>
<feGaussianBlur stdDeviation="5"/>
<feComposite in2="hardAlpha" operator="arithmetic" k2="-1" k3="1"/>
<feColorMatrix type="matrix" values="0 0 0 0 0 0 0 0 0 0 0 0 0 0 0 0 0 0 1 0"/>
<feBlend mode="normal" in2="shape" result="effect1_innerShadow"/>
</filter>
<linearGradient id="paint0_linear" x1="28.1957" y1="-90" x2="28.1957" y2="22.3913" gradientUnits="userSpaceOnUse">
<stop stop-color="#2A3F5C"/>
<stop offset="0.515625" stop-color="#5188D4"/>
<stop offset="1" stop-color="#2A3F5C"/>
</linearGradient>
</defs>
</svg>
