<svg width="45" height="92" viewBox="0 0 45 92" fill="none" xmlns="http://www.w3.org/2000/svg">
<g filter="url(#filter0_d)">
<path d="M32.6689 81.72C26.8636 78.0632 21.9118 73.2018 18.1487 67.4649C14.3855 61.7281 11.8988 55.2497 10.857 48.4682C9.8152 41.6868 10.2425 34.7607 12.1101 28.1588C13.9777 21.5569 17.2419 15.4333 21.6817 10.2026L24.0927 12.249C19.946 17.1344 16.8973 22.8536 15.153 29.0196C13.4088 35.1856 13.0096 41.6544 13.9827 47.988C14.9557 54.3217 17.2782 60.3724 20.7929 65.7304C24.3076 71.0885 28.9324 75.6289 34.3543 79.0442L32.6689 81.72Z" fill="url(#paint0_linear)"/>
</g>
<defs>
<filter id="filter0_d" x="0.301636" y="0.202576" width="44.0527" height="91.5174" filterUnits="userSpaceOnUse" color-interpolation-filters="sRGB">
<feFlood flood-opacity="0" result="BackgroundImageFix"/>
<feColorMatrix in="SourceAlpha" type="matrix" values="0 0 0 0 0 0 0 0 0 0 0 0 0 0 0 0 0 0 127 0" result="hardAlpha"/>
<feOffset/>
<feGaussianBlur stdDeviation="5"/>
<feColorMatrix type="matrix" values="0 0 0 0 1 0 0 0 0 0.48 0 0 0 0 0 0 0 0 0.5 0"/>
<feBlend mode="normal" in2="BackgroundImageFix" result="effect1_dropShadow"/>
<feBlend mode="normal" in="SourceGraphic" in2="effect1_dropShadow" result="shape"/>
</filter>
<linearGradient id="paint0_linear" x1="58.1957" y1="0.485739" x2="58.1957" y2="89.0897" gradientUnits="userSpaceOnUse">
<stop stop-color="#C09645"/>
<stop offset="0.5" stop-color="#FFC977"/>
<stop offset="1" stop-color="#C09645"/>
</linearGradient>
</defs>
</svg>
