<svg width="18" height="16" viewBox="0 0 18 16" fill="none" xmlns="http://www.w3.org/2000/svg">
<path d="M11.0171 0.707001C10.7175 0.421626 10.2424 0.432876 9.957 0.732876C9.67125 1.03288 9.68325 1.50763 9.98287 1.79338L15.7361 7.25H0.75C0.336 7.25 0 7.586 0 8C0 8.414 0.336 8.75 0.75 8.75H15.7121L9.98287 14.207C9.68287 14.4927 9.67125 14.9675 9.957 15.2675C10.1044 15.422 10.302 15.5 10.5 15.5C10.686 15.5 10.872 15.4314 11.0171 15.293L17.5605 9.06049C17.844 8.77737 18 8.40087 18 8C18 7.59912 17.844 7.22262 17.5474 6.92675L11.0171 0.707001Z" fill="white"/>
</svg>
