<svg width="120" height="120" viewBox="0 0 120 120" fill="none" xmlns="http://www.w3.org/2000/svg">
<path d="M71.864 46.8435H53.7038C50.3171 46.8461 47.573 49.5902 47.5686 52.977V106.014C47.573 109.399 50.3171 112.144 53.7038 112.147H54.5542C57.9418 112.144 60.6868 109.399 60.6903 106.014V72.0393C60.6965 66.4888 65.194 61.9922 70.7427 61.986H106.158C105.987 58.7256 103.296 56.1682 100.031 56.1647H84.8419C83.7233 56.1638 82.6563 55.6921 81.9023 54.868L76.3913 48.8371C75.2279 47.5677 73.585 46.8453 71.864 46.8435Z" fill="#FCC739"/>
<path d="M60.4887 16.6208H45.2988C44.181 16.6199 43.1149 16.1491 42.3592 15.325L36.8465 9.295C35.6848 8.02377 34.041 7.29873 32.3183 7.29785H14.1616C10.7749 7.30136 8.02987 10.0463 8.02637 13.4331V66.4679C8.02987 69.8547 10.7749 72.5996 14.1616 72.604H15.0137C18.3996 72.5996 21.1428 69.8547 21.1463 66.4679V32.4945C21.1542 26.9449 25.6518 22.4492 31.2013 22.443H66.6161C66.4451 19.1817 63.7536 16.6243 60.4887 16.6208Z" fill="#FCC739"/>
<path d="M70.4147 26.3633H31.2012C27.8153 26.3659 25.0712 29.1091 25.0651 32.495V66.4684C25.0669 68.6891 24.3295 70.8476 22.968 72.6045H43.6496V52.9767C43.6566 47.4263 48.1542 42.9296 53.7037 42.9243H71.863C73.4955 42.9261 75.1033 43.3259 76.5482 44.0869V32.495C76.542 29.11 73.7997 26.3677 70.4147 26.3633Z" fill="#FCC739"/>
<path d="M109.957 65.9048H70.7442C67.3584 65.9092 64.6143 68.6533 64.6099 72.0391V106.013C64.6099 106.175 64.6055 106.333 64.5976 106.491C64.5959 106.543 64.5915 106.593 64.5889 106.644C64.5818 106.752 64.574 106.86 64.5643 106.967C64.5582 107.025 64.552 107.082 64.5459 107.14C64.5345 107.242 64.5214 107.343 64.5073 107.444C64.4986 107.499 64.4907 107.556 64.4819 107.612C64.4644 107.719 64.4451 107.826 64.4267 107.933C64.4161 107.979 64.4091 108.025 64.3986 108.071C64.3355 108.374 64.2592 108.673 64.168 108.966C64.1549 109.01 64.1409 109.054 64.1268 109.098C64.0926 109.2 64.0584 109.302 64.0225 109.404C64.0041 109.453 63.9857 109.504 63.9655 109.553C63.9296 109.649 63.8927 109.743 63.8542 109.838C63.8349 109.886 63.8147 109.934 63.7946 109.982C63.7507 110.083 63.7043 110.182 63.6587 110.282C63.6403 110.319 63.6236 110.358 63.6052 110.396C63.4719 110.669 63.3273 110.934 63.1712 111.193C63.1493 111.232 63.1248 111.268 63.102 111.305C63.0458 111.396 62.9871 111.487 62.9284 111.577C62.8994 111.619 62.8723 111.659 62.8416 111.703C62.7837 111.787 62.725 111.87 62.6645 111.952C62.6338 111.993 62.604 112.034 62.5733 112.074C62.5549 112.1 62.5374 112.125 62.5181 112.149H109.957C113.343 112.145 116.087 109.402 116.091 106.016V72.0391C116.087 68.6533 113.343 65.9092 109.957 65.9048Z" fill="#FCC739"/>
<path d="M31.8623 101.219L26.7161 106.515C25.9612 107.291 25.9787 108.532 26.7555 109.287C27.5305 110.041 28.7719 110.023 29.5268 109.247L37.7503 100.785C38.4876 100.027 38.4894 98.8204 37.7556 98.0594L29.5321 89.5246C28.7798 88.7566 27.5472 88.7373 26.7722 89.4843C25.9963 90.2313 25.9691 91.4639 26.7099 92.2451L31.5818 97.3002H20.494C17.0433 97.2975 13.7355 95.9229 11.3 93.4777C8.86448 91.0334 7.50032 87.7204 7.51084 84.2696C7.51084 83.7506 7.30306 83.2544 6.93484 82.8879C6.5675 82.5232 6.06953 82.3181 5.55052 82.3216C4.4669 82.3268 3.59107 83.2071 3.59107 84.2915C3.58756 88.7812 5.36904 93.0876 8.54536 96.2639C11.7199 99.4385 16.0263 101.221 20.5168 101.219H31.8623Z" fill="#FCC739"/>
</svg>
