<svg width="100" height="120" viewBox="0 0 100 120" fill="none" xmlns="http://www.w3.org/2000/svg">
<path d="M56.2863 26.1103C65.4149 18.4418 71.5146 1.1658 67.7608 0.410188C62.7731 -0.594188 51.9421 3.80988 46.707 4.58582C39.2819 5.48233 31.195 -3.46585 26.6556 1.52186C22.9648 5.5772 29.3017 20.3252 39.2158 26.7501C9.63743 41.2875 -31.937 114.266 40.5918 119.561C140.948 126.888 90.696 40.2766 56.2863 26.1103ZM64.905 83.6647C64.5963 86.5098 63.0885 89.0827 60.8346 90.8294C58.4549 92.6739 55.47 93.5317 52.5043 93.772V96.9156C52.5043 97.7567 52.1369 98.5702 51.5072 99.1271C50.6418 99.8928 49.37 100.082 48.3196 99.5978C47.2825 99.1206 46.6011 98.0569 46.6011 96.9156V93.4797C46.0926 93.3832 45.5877 93.2682 45.0888 93.1313C42.3171 92.3698 39.7461 90.8854 37.8681 88.6891C36.9326 87.5944 36.17 86.3522 35.6425 85.0113C35.5047 84.6609 35.3819 84.304 35.2743 83.9431C35.1769 83.6164 35.0764 83.2843 35.0416 82.9438C34.9832 82.3726 35.0964 81.7898 35.3627 81.2809C35.9099 80.2342 37.0631 79.602 38.2406 79.707C39.3994 79.8098 40.4151 80.614 40.7799 81.7186C40.8923 82.0589 40.9685 82.4076 41.0947 82.7442C41.2198 83.0785 41.3709 83.4035 41.5485 83.713C41.8992 84.3223 42.3385 84.8842 42.8445 85.3719C43.8876 86.3768 45.2161 87.0299 46.6011 87.4185V75.7392C43.893 75.0381 41.0975 74.1326 38.8612 72.3938C37.7744 71.5484 36.8522 70.498 36.2482 69.2547C35.6109 67.9425 35.3469 66.4807 35.3361 65.0288C35.3251 63.5546 35.6052 62.0933 36.2202 60.7501C36.7962 59.4925 37.6256 58.3633 38.6424 57.4272C40.8166 55.4261 43.7046 54.3099 46.6014 53.8999V53.643V50.6366C46.6014 49.7957 46.9688 48.9819 47.5984 48.4251C48.4642 47.6596 49.7354 47.4704 50.7861 47.9544C51.8229 48.4319 52.5046 49.4953 52.5046 50.6366V53.643V53.8821C52.8906 53.9307 53.2754 53.9889 53.6583 54.0583C56.5029 54.5731 59.285 55.7477 61.3652 57.7985C62.3507 58.7699 63.1574 59.9273 63.7247 61.1895C63.8831 61.5416 64.0217 61.9019 64.1417 62.2692C64.2535 62.6118 64.3659 62.9644 64.4193 63.3219C64.5046 63.8926 64.4176 64.4821 64.1733 65.0042C63.673 66.0738 62.5509 66.7549 61.3703 66.7044C60.2103 66.6538 59.1594 65.8985 58.744 64.8142C58.6203 64.4917 58.5585 64.1504 58.4323 63.8288C58.3049 63.5032 58.14 63.1926 57.95 62.8992C57.5807 62.3288 57.102 61.8398 56.5557 61.4368C55.3726 60.5632 53.9376 60.108 52.5037 59.8536V71.0302C54.2078 71.4382 55.9133 71.8832 57.5459 72.527C60.0135 73.5001 62.3518 74.9921 63.6987 77.3448C63.4897 76.9783 63.2864 76.6211 63.7057 77.3569C64.1174 78.0798 63.9209 77.7353 63.7142 77.373C64.7858 79.2615 65.1379 81.5196 64.905 83.6647Z" fill="#FCC739"/>
</svg>
